<svg width="138" height="24" viewBox="0 0 138 24" fill="none" xmlns="http://www.w3.org/2000/svg">
<path d="M12.7 18H8.16V16.52L6.24 18.04C5.81333 18.1467 5.32 18.2 4.76 18.2C3.88 18.2 3.08667 17.9733 2.38 17.52C1.68667 17.0533 1.14 16.42 0.74 15.62C0.353333 14.82 0.16 13.9333 0.16 12.96C0.16 11.9067 0.5 10.9267 1.18 10.02C1.86 9.1 2.70667 8.37333 3.72 7.84C4.74667 7.29333 5.73333 7.02 6.68 7.02C7.21333 7.02 7.70667 7.15333 8.16 7.42V4.44L6.38 3.26V2.14L10.3 0.539999H11.56V16.1L13.36 16.7L12.7 18ZM5.98 15.52C6.76667 15.52 7.49333 15.3267 8.16 14.94V11.12C8.08 10.6 7.81333 10.1733 7.36 9.84C6.90667 9.50667 6.29333 9.34 5.52 9.34C4.34667 9.34 3.76 10.2333 3.76 12.02C3.76 13.0333 3.94667 13.8733 4.32 14.54C4.70667 15.1933 5.26 15.52 5.98 15.52ZM21.2894 7.02C22.6894 7.02 23.7694 7.55333 24.5294 8.62C25.3027 9.68667 25.676 11.1667 25.6494 13.06H18.4494C18.5827 13.8733 18.8694 14.5267 19.3094 15.02C19.7494 15.5 20.3227 15.74 21.0294 15.74C21.9627 15.74 23.3027 15.2733 25.0494 14.34L25.6494 15.48L22.6094 17.9C21.8227 18.1 20.9094 18.2 19.8694 18.2C18.896 18.2 18.016 17.9733 17.2294 17.52C16.456 17.0533 15.8494 16.42 15.4094 15.62C14.9827 14.82 14.7694 13.9333 14.7694 12.96C14.7694 11.9067 15.1094 10.9267 15.7894 10.02C16.4694 9.1 17.316 8.37333 18.3294 7.84C19.356 7.29333 20.3427 7.02 21.2894 7.02ZM20.1894 9.34C19.6027 9.34 19.1627 9.54 18.8694 9.94C18.576 10.3267 18.416 10.9267 18.3894 11.74H22.2094C22.1027 10.9133 21.9027 10.3067 21.6094 9.92C21.3294 9.53333 20.8494 9.34 20.1694 9.34H20.1894ZM40.532 18H35.992V16.52L34.072 18.04C33.6454 18.1467 33.152 18.2 32.592 18.2C31.712 18.2 30.9187 17.9733 30.212 17.52C29.5187 17.0533 28.972 16.42 28.572 15.62C28.1854 14.82 27.992 13.9333 27.992 12.96C27.992 11.9067 28.332 10.9267 29.012 10.02C29.692 9.1 30.5387 8.37333 31.552 7.84C32.5787 7.29333 33.5654 7.02 34.512 7.02C35.0454 7.02 35.5387 7.15333 35.992 7.42V4.44L34.212 3.26V2.14L38.132 0.539999H39.392V16.1L41.192 16.7L40.532 18ZM33.812 15.52C34.5987 15.52 35.3254 15.3267 35.992 14.94V11.12C35.912 10.6 35.6454 10.1733 35.192 9.84C34.7387 9.50667 34.1254 9.34 33.352 9.34C32.1787 9.34 31.592 10.2333 31.592 12.02C31.592 13.0333 31.7787 13.8733 32.152 14.54C32.5387 15.1933 33.092 15.52 33.812 15.52ZM49.1214 7.02C50.5214 7.02 51.6014 7.55333 52.3614 8.62C53.1347 9.68667 53.5081 11.1667 53.4814 13.06H46.2814C46.4147 13.8733 46.7014 14.5267 47.1414 15.02C47.5814 15.5 48.1547 15.74 48.8614 15.74C49.7947 15.74 51.1347 15.2733 52.8814 14.34L53.4814 15.48L50.4414 17.9C49.6547 18.1 48.7414 18.2 47.7014 18.2C46.7281 18.2 45.8481 17.9733 45.0614 17.52C44.2881 17.0533 43.6814 16.42 43.2414 15.62C42.8147 14.82 42.6014 13.9333 42.6014 12.96C42.6014 11.9067 42.9414 10.9267 43.6214 10.02C44.3014 9.1 45.1481 8.37333 46.1614 7.84C47.1881 7.29333 48.1747 7.02 49.1214 7.02ZM48.0214 9.34C47.4347 9.34 46.9947 9.54 46.7014 9.94C46.4081 10.3267 46.2481 10.9267 46.2214 11.74H50.0414C49.9347 10.9133 49.7347 10.3067 49.4414 9.92C49.1614 9.53333 48.6814 9.34 48.0014 9.34H48.0214ZM61.3241 15.46C61.3241 15.2067 61.1507 14.9533 60.8041 14.7C60.4574 14.4333 59.9241 14.1 59.2041 13.7C58.4974 13.3 57.9307 12.96 57.5041 12.68C57.0774 12.3867 56.7041 12.06 56.3841 11.7C56.0774 11.3267 55.9241 10.9267 55.9241 10.5C55.9241 10.02 56.1507 9.50667 56.6041 8.96C57.0707 8.41333 57.6374 7.95333 58.3041 7.58C58.9707 7.20667 59.5841 7.02 60.1441 7.02C60.8241 7.02 61.6174 7.1 62.5241 7.26C63.4441 7.40667 64.1107 7.57333 64.5241 7.76V11.1H63.2641C62.9041 10.4333 62.4707 9.91333 61.9641 9.54C61.4707 9.16667 60.9574 8.98 60.4241 8.98C60.1574 8.98 59.9441 9.06 59.7841 9.22C59.6241 9.36667 59.5441 9.54667 59.5441 9.76C59.5441 10.04 59.7174 10.3133 60.0641 10.58C60.4241 10.8467 60.9907 11.2 61.7641 11.64C62.7907 12.2 63.5774 12.7067 64.1241 13.16C64.6841 13.6133 64.9641 14.1333 64.9641 14.72C64.9641 15.2133 64.7241 15.7333 64.2441 16.28C63.7774 16.8133 63.1974 17.2667 62.5041 17.64C61.8241 18.0133 61.1974 18.2 60.6241 18.2C59.8907 18.2 59.0174 18.1267 58.0041 17.98C57.0041 17.82 56.2907 17.6467 55.8641 17.46V14H57.1241C57.5241 14.7067 58.0174 15.26 58.6041 15.66C59.1907 16.0467 59.7707 16.24 60.3441 16.24C60.6374 16.24 60.8707 16.1667 61.0441 16.02C61.2307 15.86 61.3241 15.6733 61.3241 15.46ZM73.0159 18H66.6959V16.88L68.4759 15.38V10.74L66.6959 9.56V8.44L70.6159 6.84H71.8759V16.1L73.6759 16.7L73.0159 18ZM70.1559 0.819999C70.7293 0.819999 71.1959 1.00667 71.5559 1.38C71.9293 1.74 72.1159 2.19333 72.1159 2.74C72.1159 3.12667 71.9826 3.48667 71.7159 3.82C71.4493 4.15333 71.1159 4.42 70.7159 4.62C70.3159 4.82 69.9293 4.92 69.5559 4.92C68.9959 4.92 68.5293 4.74 68.1559 4.38C67.7959 4.00667 67.6159 3.54667 67.6159 3C67.6159 2.61333 67.7493 2.25333 68.0159 1.92C68.2826 1.58667 68.6093 1.32 68.9959 1.12C69.3959 0.919999 69.7826 0.819999 70.1559 0.819999ZM84.66 9.16C84.8867 9.58667 85 10.04 85 10.52C85 11.3333 84.6533 12.12 83.96 12.88C83.28 13.6267 82.4333 14.1933 81.42 14.58C81.0733 14.98 80.9 15.38 80.9 15.78C80.9 15.9667 81.0467 16.1533 81.34 16.34C81.6333 16.5133 82.0933 16.74 82.72 17.02C83.64 17.42 84.3467 17.7867 84.84 18.12C85.3333 18.4667 85.58 18.8667 85.58 19.32C85.58 19.7467 85.3133 20.2733 84.78 20.9C84.2467 21.54 83.58 22.0933 82.78 22.56C81.9933 23.04 81.2267 23.28 80.48 23.28C79.6667 23.28 78.7 23.1533 77.58 22.9C76.46 22.6467 75.5267 22.3933 74.78 22.14V18.56H76.04C76.6933 19.44 77.3533 20.1067 78.02 20.56C78.7 21.0267 79.4667 21.26 80.32 21.26C80.76 21.26 81.1267 21.16 81.42 20.96C81.7267 20.7733 81.88 20.5733 81.88 20.36C81.88 20.0533 81.7 19.78 81.34 19.54C80.9933 19.3133 80.4533 19.0333 79.72 18.7C78.9333 18.3533 78.34 18.0467 77.94 17.78C77.54 17.5 77.34 17.18 77.34 16.82C77.34 16.5 77.58 16.1733 78.06 15.84C78.5533 15.5067 79.14 15.2133 79.82 14.96C79.5533 14.9867 79.3533 15 79.22 15C78.4067 15 77.66 14.84 76.98 14.52C76.3133 14.2 75.7867 13.7733 75.4 13.24C75.0133 12.6933 74.82 12.1133 74.82 11.5C74.82 10.74 75.1 10.0133 75.66 9.32C76.22 8.62667 76.9467 8.07333 77.84 7.66C78.7333 7.23333 79.6467 7.02 80.58 7.02C81.6467 7.02 82.5867 7.28667 83.4 7.82H86.7L86.72 9.16H84.66ZM80.4 12.72C80.8267 12.72 81.1533 12.62 81.38 12.42C81.62 12.2067 81.74 11.8933 81.74 11.48C81.74 10.8267 81.5267 10.3133 81.1 9.94C80.6867 9.55333 80.1333 9.36 79.44 9.36C78.56 9.36 78.12 9.75333 78.12 10.54C78.12 11.18 78.3267 11.7067 78.74 12.12C79.1667 12.52 79.72 12.72 80.4 12.72ZM100.773 18H96.233V11.6C96.233 10.9733 96.133 10.5333 95.933 10.28C95.7463 10.0133 95.413 9.88 94.933 9.88C94.2263 9.88 93.5263 10.1067 92.833 10.56V16.1L94.633 16.7L93.973 18H87.653V16.88L89.433 15.38V10.84L87.653 9.72V8.6L91.813 6.84L92.593 9.16L95.073 7.18C95.433 7.07333 95.8396 7.02 96.293 7.02C97.3063 7.02 98.113 7.3 98.713 7.86C99.3263 8.40667 99.633 9.15333 99.633 10.1V16.1L101.433 16.7L100.773 18ZM105.276 14.08C105.849 14.08 106.316 14.2667 106.676 14.64C107.049 15.0133 107.236 15.4733 107.236 16.02C107.236 16.4067 107.102 16.7667 106.836 17.1C106.569 17.4333 106.236 17.7 105.836 17.9C105.436 18.1 105.049 18.2 104.676 18.2C104.116 18.2 103.649 18.02 103.276 17.66C102.916 17.2867 102.736 16.8267 102.736 16.28C102.736 15.8933 102.869 15.5333 103.136 15.2C103.402 14.8533 103.729 14.58 104.116 14.38C104.516 14.18 104.902 14.08 105.276 14.08ZM121.821 18H117.281V16.52L115.361 18.04C114.934 18.1467 114.441 18.2 113.881 18.2C113.001 18.2 112.208 17.9733 111.501 17.52C110.808 17.0533 110.261 16.42 109.861 15.62C109.474 14.82 109.281 13.9333 109.281 12.96C109.281 11.9067 109.621 10.9267 110.301 10.02C110.981 9.1 111.828 8.37333 112.841 7.84C113.868 7.29333 114.854 7.02 115.801 7.02C116.334 7.02 116.828 7.15333 117.281 7.42V4.44L115.501 3.26V2.14L119.421 0.539999H120.681V16.1L122.481 16.7L121.821 18ZM115.101 15.52C115.888 15.52 116.614 15.3267 117.281 14.94V11.12C117.201 10.6 116.934 10.1733 116.481 9.84C116.028 9.50667 115.414 9.34 114.641 9.34C113.468 9.34 112.881 10.2333 112.881 12.02C112.881 13.0333 113.068 13.8733 113.441 14.54C113.828 15.1933 114.381 15.52 115.101 15.52ZM130.17 16.7L129.51 18H123.19V16.88L124.97 15.38V4.44L123.19 3.26V2.14L127.11 0.539999H128.37V16.1L130.17 16.7ZM136.55 17.98H132.41L129.15 12.62L132.67 9.82L130.23 8.5L130.87 7.2H136.65V8.32L132.51 11.72L135.21 15.92L137.19 16.68L136.55 17.98Z" fill="white"/>
</svg>
