<?xml version="1.0" encoding="UTF-8"?>
<svg id="Lag_2" data-name="Lag 2" xmlns="http://www.w3.org/2000/svg" viewBox="0 0 201 101">
  <defs>
    <style>
      .cls-1 {
        fill: #000;
        stroke: #000;
        stroke-miterlimit: 10;
      }

      .cls-2 {
        fill: #fff;
        stroke-width: 0px;
      }
    </style>
  </defs>
  <g id="Lag_1-2" data-name="Lag 1">
    <rect class="cls-1" x=".5" y=".5" width="200" height="100" rx="24.57" ry="24.57"/>
    <g>
      <path class="cls-2" d="M51.56,33.79c2.54,7.43,4.64,15.02,6.24,22.71.39,1.88.76,3.77,1.09,5.67.28,1.56.67,3.2.52,4.8s-1.11,2.52-2.66,2.93c-.82.22-2.88.56-3.18-.58-.5-1.86-3.39-1.07-2.89.8,1.01,3.81,6.36,3.45,9.02,1.79,3.69-2.31,2.73-6.95,2.1-10.53-1.71-9.63-4.17-19.12-7.33-28.37-.62-1.82-3.52-1.04-2.89.8h0Z"/>
      <path class="cls-2" d="M34.26,41.11c7.46-6.74,16.99-11.65,27.11-12.48,4.69-.39,10.42-.32,14.33,2.68,1.66,1.27,2.88,3.26,3.06,5.36.2,2.35-1.1,4.15-3,5.39-2.44,1.59-5.26,2.7-7.99,3.68-2.99,1.08-6.06,1.91-9.19,2.52l.8,2.89c5.4-1.94,11.05-3.13,16.78-3.38,2.8-.12,5.7,0,8.24,1.31,2.21,1.15,4.21,2.92,5.8,4.84s2.45,4.05,1.42,6.36-3.09,3.9-5.09,5.18c-4.32,2.76-9.41,4.06-14.38,5.12-5.75,1.24-12.62,1.86-17.27-2.5-1.41-1.32-3.53.8-2.12,2.12,4.57,4.28,10.94,4.79,16.86,3.89s12.3-2.47,17.55-5.51c4.64-2.7,9.7-7.65,7.27-13.47-1.12-2.69-3.39-4.91-5.64-6.69-2.39-1.89-5.01-3.11-8.04-3.5-3.62-.47-7.38-.05-10.97.49-3.82.58-7.56,1.54-11.2,2.85-1.82.65-1.11,3.27.8,2.89,5.94-1.16,12.2-3.06,17.41-6.21,2.2-1.33,4.18-3.24,4.76-5.83.56-2.45-.03-5.08-1.34-7.2-3.04-4.92-9.17-6.25-14.55-6.41-5.8-.18-11.64.98-17.02,3.11-6.1,2.41-11.64,5.97-16.51,10.37-1.44,1.3.69,3.41,2.12,2.12h0Z"/>
      <path class="cls-2" d="M50.32,29.74c.17,1.68.69,3.32,1.67,4.71.23.33.5.58.9.69.36.1.84.05,1.16-.15s.6-.51.69-.9.08-.83-.15-1.16c-.34-.48-.62-.99-.85-1.53l.15.36c-.28-.67-.47-1.37-.57-2.08l.05.4c-.01-.11-.03-.22-.04-.34-.04-.41-.14-.76-.44-1.06-.26-.26-.69-.46-1.06-.44s-.79.14-1.06.44c-.25.28-.48.67-.44,1.06h0Z"/>
      <path class="cls-2" d="M94.35,62.41c3.22-1.4,5.65-4.47,6.31-7.91l-2.95-.4c-.35,2.88.93,6.02,3.64,7.31s5.55.46,7.35-1.77c1.67-2.07,2.57-5.12,1.71-7.72-.93-2.79-3.69-4.16-6.52-3.63-3.11.58-5.14,3.55-5.62,6.51-.13.8.21,1.61,1.05,1.85.71.2,1.72-.24,1.85-1.05.32-2.01,1.47-4.29,3.76-4.43s3.07,1.85,2.73,3.79c-.31,1.79-1.61,4.09-3.68,4.09-2.58,0-3.51-2.81-3.25-4.95.2-1.67-2.62-2.05-2.95-.4-.54,2.78-2.35,4.99-4.94,6.11-.74.32-.91,1.41-.54,2.05.45.77,1.31.86,2.05.54h0Z"/>
      <path class="cls-2" d="M107.29,51.26c.12.95.31,1.87.68,2.76.41,1,.93,1.88,1.6,2.73s1.43,1.52,2.42,1.92c1.05.42,2.31.21,3.11-.62.94-.98,1.12-2.52.13-3.54-.55-.57-1.58-.59-2.12,0s-.58,1.52,0,2.12c.1.11.07.06-.11-.15.05.1.04.07-.02-.06-.05-.14-.07-.16-.04-.06-.03-.29-.04-.36-.04-.21,0,.25.08-.39.01-.14-.06.24.19-.33.05-.1-.1.16-.14.12.08-.07-.04.04-.12.11-.15.15.21-.16.26-.19.13-.1-.03.02-.06.04-.09.05-.1.08.38-.12.1-.05-.11.03-.04.02.2-.02-.06,0-.13,0-.19,0,.02-.04.39.09.02,0-.05-.01-.09-.03-.14-.04-.11-.04-.06-.02.13.06,0,.01-.23-.12-.26-.14-.06-.04-.11-.07-.17-.11-.11-.08-.11-.08,0,0,.17.17-.08-.08-.12-.11-.16-.15-.31-.3-.45-.47-.07-.07-.13-.15-.2-.23-.04-.05-.08-.1-.13-.16l.11.15c-.14-.1-.28-.39-.37-.53-.23-.35-.43-.72-.6-1.09-.03-.06-.06-.12-.08-.18l.07.17c-.06-.06-.1-.24-.13-.33-.07-.2-.14-.41-.2-.62-.05-.19-.1-.39-.15-.58-.02-.1-.04-.2-.06-.29s-.08-.56-.02-.1c-.05-.41-.13-.75-.44-1.06-.26-.26-.69-.46-1.06-.44-.73.03-1.6.67-1.5,1.5h0Z"/>
      <path class="cls-2" d="M115.77,55.22c.16-2.62-.54-5.26-1.94-7.47l-1.69,2.2c.98.36,1.99.63,3.02.78s2.19.31,3.25-.05c1.74-.59,2.72-2.19,3.45-3.78l-2.74-1.16c-.6,1.66-1.07,3.41-1.41,5.15-.31,1.58-.39,3.3.66,4.64,1.13,1.45,3.21,1.78,4.82.93,1.5-.79,2.35-2.6,2.18-4.26-.08-.81-.63-1.5-1.5-1.5-.75,0-1.58.69-1.5,1.5.01.13.02.27.02.4,0,.04-.03.37,0,.16-.02.11-.05.21-.07.31-.09.4.05-.04-.05.16-.15.31-.15.29-.32.46,0,0-.31.19-.21.16,0,0-.38.1-.27.08.13-.02-.24,0-.28,0,.2,0-.07-.01-.15-.03-.2-.05.17.15-.15-.06-.16-.1-.13-.09-.18-.16s-.16-.3-.08-.11c-.05-.12-.07-.24-.1-.36-.06-.24,0,.19-.02-.06-.01-.13-.02-.26-.02-.4s0-.27.02-.4c0-.03.04-.37,0-.17.07-.55.22-1.1.35-1.64.33-1.35.68-2.69,1.15-4,.57-1.58-2.03-2.7-2.74-1.16-.27.59-.55,1.18-.92,1.71-.21.3-.58.66-.89.74-.67.18-1.45.02-2.12-.11-.82-.16-1.62-.39-2.4-.68-1.23-.45-2.37,1.14-1.69,2.2,1.16,1.81,1.66,3.83,1.53,5.96-.05.81.72,1.5,1.5,1.5.85,0,1.45-.69,1.5-1.5h0Z"/>
      <path class="cls-2" d="M122.52,51.48c.04,1.14.57,2.19,1.45,2.91s2.01,1.13,3.14,1.42c1.2.32,2.43.23,3.29-.76.69-.8.96-1.86,1.19-2.87.52-2.28.51-4.74-1.17-6.54-.71-.76-1.65-1.27-2.68-1.41-1.15-.15-2.2.24-3.09.96-2.02,1.63-2,4.39-1.71,6.73.1.78.62,1.54,1.5,1.5.73-.03,1.6-.67,1.5-1.5s-.2-1.62-.17-2.43c0-.11.01-.21.02-.32,0-.03.04-.29,0-.08.03-.18.07-.36.12-.53.03-.1.16-.44.04-.17.07-.15.15-.3.23-.45.04-.07.09-.14.14-.21-.03.05-.19.21,0,0,.1-.11.21-.2.3-.31.14-.16-.2.11-.02,0,.05-.03.1-.07.15-.1.07-.04.14-.08.21-.11-.18.09-.11.04.04,0,.06-.02.12-.03.18-.04-.25.08-.14,0-.03,0,.08,0,.17,0,.25,0-.02,0-.26-.06-.1-.01.14.04.27.07.41.12-.27-.09-.09-.04-.02,0,.08.05.18.12.27.16.14.07-.03-.03-.05-.05.07.05.13.11.19.17.11.1.21.22.31.33.15.16-.1-.19,0,0,.03.06.07.11.11.16.04.07.08.15.13.22.15.23-.02-.1.03.05s.1.3.14.46c.03.1.05.21.07.32-.01-.07-.02-.24,0,.08.03.4.02.81-.02,1.21-.03.27.03-.18,0,.09-.01.08-.03.16-.04.24-.04.22-.08.43-.13.64-.09.38-.18.75-.29,1.12-.04.14-.09.27-.14.4.12-.33-.09.11-.12.18,0,0,.17-.21.06-.07-.04.05-.22.17-.06.07.2-.12-.2,0,.04-.03.12-.02.28-.01.04-.05.25.04-.22-.06-.32-.09-.2-.05-.39-.11-.59-.16-.22-.06-.44-.14-.66-.21-.16-.06-.03,0,0,0-.12-.05-.23-.11-.34-.17-.09-.05-.18-.1-.26-.15-.07-.04-.26-.23-.07-.04-.12-.12-.25-.23-.36-.37.18.23-.07-.15-.11-.24.13.25.04.07.02,0-.1-.29,0,.24-.02-.1-.03-.78-.67-1.54-1.5-1.5-.79.04-1.53.66-1.5,1.5h0Z"/>
      <path class="cls-2" d="M127.55,31.61c-.2,6.73-.35,13.77,2.25,20.11.54,1.32,1.12,2.81,2.42,3.57,1.13.66,2.5.61,3.67.11,3.09-1.31,3.46-4.72,3.38-7.68-.04-1.38-2.14-2.18-2.8-.76-1.35,2.94.83,6.35,4.05,6.6s5.76-2.97,6-6.01c.3-3.73-3-5.71-6.4-4.89-1.46.35-3.07,1.49-3.1,3.13s1.59,2.77,3.05,3.24c4.02,1.29,7.89-1.79,8.04-5.87h-3c-.04,2.34.89,7.08,3.86,7.38,3.2.32,4.16-4.58,4.33-6.88l-2.95.4c.44,1.53,1.2,3.24,2.45,4.28s3.01.87,3.9-.56c1.7-2.75.75-6.52-1.32-8.76l-1.82,2.36c2.84,1.31,6.14,1.16,8.71-.7l-1.82-2.36c-1.6,1.59-2.11,4.12-1.01,6.14s3.48,2.91,5.7,2.49c1.89-.36,1.09-3.25-.8-2.89-2.17.41-3.23-2.17-1.77-3.62,1.17-1.16-.4-3.38-1.82-2.36-1.66,1.2-3.78,1.58-5.69.7-1.51-.7-3.03,1.05-1.82,2.36.98,1.06,1.46,2.52,1.24,3.96-.05.33-.29.71-.3,1.02l.46-.13c-.17-.18-.32-.37-.45-.59-.45-.66-.75-1.38-.97-2.14-.49-1.68-2.83-1.26-2.95.4-.05.77-.19,1.52-.44,2.25-.14.41-.46.88-.56,1.29l-.17.28c.22,0,.24-.08.07-.23-.7-1.35-1.11-2.56-1.09-4.09.04-1.93-2.93-1.93-3,0-.07,2.03-1.86,3.55-3.89,3.08-.31-.07-1.06-.27-1.23-.58.21.4.47,0,.93-.11.66-.16,1.63-.2,2.18.28,1.26,1.1-.03,3.67-1.15,4.39-.7.44-1.47.48-2.15-.02-.48-.36-1.02-1.1-.73-1.72l-2.8-.76c.04,1.4.19,5.25-2.16,5.07-.91-.07-1.31-1.57-1.59-2.27-.48-1.21-.85-2.47-1.15-3.74-1.15-4.96-.98-10.12-.83-15.17.06-1.93-2.94-1.93-3,0h0Z"/>
    </g>
  </g>
</svg>