<svg width="1336" height="306" viewBox="0 0 1336 306" fill="none" xmlns="http://www.w3.org/2000/svg">
<path d="M456.791 10.4531H470.048C472.766 10.4531 475.102 10.86 477.055 11.6738C479.024 12.4876 480.538 13.6921 481.596 15.2871C482.654 16.8822 483.183 18.8434 483.183 21.1709C483.183 23.0752 482.857 24.7109 482.206 26.0781C481.571 27.429 480.668 28.5602 479.496 29.4717C478.34 30.3669 476.981 31.083 475.419 31.6201L473.1 32.8408H461.576L461.527 27.1279H470.097C471.382 27.1279 472.449 26.9001 473.295 26.4443C474.141 25.9886 474.776 25.3538 475.199 24.54C475.639 23.7262 475.858 22.7822 475.858 21.708C475.858 20.5687 475.647 19.584 475.224 18.7539C474.8 17.9238 474.158 17.2891 473.295 16.8496C472.432 16.4102 471.35 16.1904 470.048 16.1904H464.115V46H456.791V10.4531ZM476.664 46L468.559 30.1553L476.298 30.1064L484.501 45.6582V46H476.664ZM508.451 10.4531H515.751V33.9395C515.751 36.6738 515.165 38.9769 513.993 40.8486C512.838 42.7204 511.234 44.1283 509.184 45.0723C507.149 46.0163 504.805 46.4883 502.152 46.4883C499.499 46.4883 497.139 46.0163 495.072 45.0723C493.021 44.1283 491.41 42.7204 490.238 40.8486C489.083 38.9769 488.505 36.6738 488.505 33.9395V10.4531H495.829V33.9395C495.829 35.5345 496.081 36.8366 496.586 37.8457C497.09 38.8548 497.815 39.5954 498.759 40.0674C499.719 40.5394 500.85 40.7754 502.152 40.7754C503.487 40.7754 504.618 40.5394 505.546 40.0674C506.49 39.5954 507.206 38.8548 507.694 37.8457C508.199 36.8366 508.451 35.5345 508.451 33.9395V10.4531ZM550.712 10.4531V46H543.388L529.105 22.1719V46H521.781V10.4531H529.105L543.412 34.3057V10.4531H550.712ZM567.997 46H560.258L560.307 40.2871H567.997C569.918 40.2871 571.537 39.8558 572.855 38.9932C574.174 38.1143 575.167 36.8366 575.834 35.1602C576.518 33.4837 576.859 31.4574 576.859 29.0811V27.3477C576.859 25.5247 576.664 23.9215 576.273 22.5381C575.899 21.1546 575.338 19.9909 574.589 19.0469C573.84 18.1029 572.921 17.3949 571.83 16.9229C570.74 16.4346 569.486 16.1904 568.07 16.1904H560.111V10.4531H568.07C570.447 10.4531 572.619 10.86 574.589 11.6738C576.575 12.4714 578.292 13.6188 579.74 15.1162C581.189 16.6136 582.304 18.404 583.085 20.4873C583.882 22.5544 584.281 24.8574 584.281 27.3965V29.0811C584.281 31.6038 583.882 33.9069 583.085 35.9902C582.304 38.0736 581.189 39.8639 579.74 41.3613C578.308 42.8424 576.591 43.9899 574.589 44.8037C572.603 45.6012 570.406 46 567.997 46ZM564.408 10.4531V46H557.084V10.4531H564.408ZM603.837 10.4531V46H596.537V10.4531H603.837ZM614.774 10.4531V16.1904H585.771V10.4531H614.774ZM647.465 27.3965V29.0811C647.465 31.7829 647.099 34.208 646.366 36.3564C645.634 38.5049 644.6 40.3359 643.266 41.8496C641.931 43.347 640.336 44.4945 638.48 45.292C636.641 46.0895 634.599 46.4883 632.353 46.4883C630.123 46.4883 628.08 46.0895 626.225 45.292C624.385 44.4945 622.79 43.347 621.439 41.8496C620.089 40.3359 619.039 38.5049 618.29 36.3564C617.558 34.208 617.191 31.7829 617.191 29.0811V27.3965C617.191 24.6784 617.558 22.2533 618.29 20.1211C619.022 17.9727 620.056 16.1416 621.391 14.6279C622.742 13.1143 624.337 11.9587 626.176 11.1611C628.031 10.3636 630.074 9.96484 632.304 9.96484C634.55 9.96484 636.592 10.3636 638.432 11.1611C640.287 11.9587 641.882 13.1143 643.217 14.6279C644.568 16.1416 645.609 17.9727 646.342 20.1211C647.09 22.2533 647.465 24.6784 647.465 27.3965ZM640.067 29.0811V27.3477C640.067 25.4596 639.896 23.7995 639.555 22.3672C639.213 20.9349 638.708 19.7305 638.041 18.7539C637.374 17.7773 636.56 17.0449 635.6 16.5566C634.639 16.0521 633.541 15.7998 632.304 15.7998C631.067 15.7998 629.968 16.0521 629.008 16.5566C628.064 17.0449 627.258 17.7773 626.591 18.7539C625.94 19.7305 625.443 20.9349 625.102 22.3672C624.76 23.7995 624.589 25.4596 624.589 27.3477V29.0811C624.589 30.9528 624.76 32.613 625.102 34.0615C625.443 35.4938 625.948 36.7064 626.615 37.6992C627.283 38.6758 628.096 39.4163 629.057 39.9209C630.017 40.4255 631.116 40.6777 632.353 40.6777C633.59 40.6777 634.688 40.4255 635.648 39.9209C636.609 39.4163 637.414 38.6758 638.065 37.6992C638.716 36.7064 639.213 35.4938 639.555 34.0615C639.896 32.613 640.067 30.9528 640.067 29.0811ZM656.083 10.4531H662.284L671.415 36.5518L680.546 10.4531H686.747L673.905 46H668.925L656.083 10.4531ZM652.738 10.4531H658.915L660.038 35.8926V46H652.738V10.4531ZM683.915 10.4531H690.116V46H682.792V35.8926L683.915 10.4531ZM709.354 38.5781L717.729 10.4531H725.883L713.505 46H708.134L709.354 38.5781ZM701.64 10.4531L709.989 38.5781L711.259 46H705.839L693.534 10.4531H701.64ZM753.056 40.2871V46H734.135V40.2871H753.056ZM736.527 10.4531V46H729.203V10.4531H736.527ZM750.59 24.9307V30.4971H734.135V24.9307H750.59ZM753.031 10.4531V16.1904H734.135V10.4531H753.031ZM757.328 10.4531H770.585C773.303 10.4531 775.639 10.86 777.592 11.6738C779.561 12.4876 781.075 13.6921 782.133 15.2871C783.191 16.8822 783.72 18.8434 783.72 21.1709C783.72 23.0752 783.394 24.7109 782.743 26.0781C782.108 27.429 781.205 28.5602 780.033 29.4717C778.878 30.3669 777.519 31.083 775.956 31.6201L773.637 32.8408H762.113L762.064 27.1279H770.634C771.92 27.1279 772.986 26.9001 773.832 26.4443C774.678 25.9886 775.313 25.3538 775.736 24.54C776.176 23.7262 776.396 22.7822 776.396 21.708C776.396 20.5687 776.184 19.584 775.761 18.7539C775.338 17.9238 774.695 17.2891 773.832 16.8496C772.969 16.4102 771.887 16.1904 770.585 16.1904H764.652V46H757.328V10.4531ZM777.201 46L769.096 30.1553L776.835 30.1064L785.038 45.6582V46H777.201ZM800.272 46H792.533L792.582 40.2871H800.272C802.193 40.2871 803.812 39.8558 805.131 38.9932C806.449 38.1143 807.442 36.8366 808.109 35.1602C808.793 33.4837 809.135 31.4574 809.135 29.0811V27.3477C809.135 25.5247 808.939 23.9215 808.549 22.5381C808.174 21.1546 807.613 19.9909 806.864 19.0469C806.116 18.1029 805.196 17.3949 804.105 16.9229C803.015 16.4346 801.762 16.1904 800.346 16.1904H792.387V10.4531H800.346C802.722 10.4531 804.895 10.86 806.864 11.6738C808.85 12.4714 810.567 13.6188 812.016 15.1162C813.464 16.6136 814.579 18.404 815.36 20.4873C816.158 22.5544 816.557 24.8574 816.557 27.3965V29.0811C816.557 31.6038 816.158 33.9069 815.36 35.9902C814.579 38.0736 813.464 39.8639 812.016 41.3613C810.583 42.8424 808.866 43.9899 806.864 44.8037C804.879 45.6012 802.681 46 800.272 46ZM796.684 10.4531V46H789.359V10.4531H796.684ZM845.731 40.2871V46H826.811V40.2871H845.731ZM829.203 10.4531V46H821.879V10.4531H829.203ZM843.266 24.9307V30.4971H826.811V24.9307H843.266ZM845.707 10.4531V16.1904H826.811V10.4531H845.707ZM878.935 10.4531V46H871.61L857.328 22.1719V46H850.004V10.4531H857.328L871.635 34.3057V10.4531H878.935Z" fill="black"/>
<path d="M0 93L1336 93" stroke="black"/>
<circle cx="668" cy="173" r="19.5" stroke="black"/>
<circle cx="668" cy="173" r="19.5" stroke="black"/>
<circle cx="604" cy="173" r="19.5" stroke="black"/>
<circle cx="732" cy="173" r="19.5" stroke="black"/>
<circle cx="796" cy="173" r="19.5" stroke="black"/>
<circle cx="540" cy="173" r="19.5" stroke="black"/>
<path d="M568.91 290.17H570.404C570.404 291.192 570.111 291.96 569.525 292.475C568.939 292.982 568.145 293.236 567.143 293.236C566.446 293.236 565.844 293.077 565.336 292.758C564.828 292.439 564.434 291.996 564.154 291.43C563.881 290.863 563.744 290.206 563.744 289.457V288.314C563.744 287.566 563.881 286.908 564.154 286.342C564.434 285.775 564.828 285.333 565.336 285.014C565.844 284.695 566.446 284.535 567.143 284.535C568.145 284.535 568.939 284.789 569.525 285.297C570.118 285.805 570.414 286.57 570.414 287.592H568.92C568.92 286.96 568.77 286.508 568.471 286.234C568.171 285.961 567.729 285.824 567.143 285.824C566.719 285.824 566.365 285.932 566.078 286.146C565.798 286.355 565.583 286.645 565.434 287.016C565.29 287.387 565.219 287.816 565.219 288.305V289.457C565.219 289.945 565.29 290.378 565.434 290.756C565.583 291.127 565.798 291.42 566.078 291.635C566.365 291.843 566.719 291.947 567.143 291.947C567.729 291.947 568.168 291.811 568.461 291.537C568.76 291.264 568.91 290.808 568.91 290.17ZM561.518 288.881C561.518 289.74 561.664 290.541 561.957 291.283C562.257 292.025 562.67 292.676 563.197 293.236C563.731 293.79 564.346 294.223 565.043 294.535C565.74 294.841 566.485 294.994 567.279 294.994C568.074 294.994 568.816 294.841 569.506 294.535C570.202 294.223 570.814 293.79 571.342 293.236C571.876 292.676 572.289 292.025 572.582 291.283C572.882 290.541 573.031 289.74 573.031 288.881C573.031 288.015 572.882 287.214 572.582 286.479C572.289 285.736 571.876 285.089 571.342 284.535C570.814 283.982 570.202 283.552 569.506 283.246C568.816 282.94 568.074 282.787 567.279 282.787C566.485 282.787 565.74 282.94 565.043 283.246C564.346 283.552 563.731 283.982 563.197 284.535C562.67 285.089 562.257 285.736 561.957 286.479C561.664 287.214 561.518 288.015 561.518 288.881ZM560.346 288.881C560.346 287.846 560.525 286.885 560.883 286C561.241 285.115 561.739 284.343 562.377 283.686C563.015 283.021 563.751 282.507 564.584 282.143C565.424 281.771 566.322 281.586 567.279 281.586C568.236 281.586 569.132 281.771 569.965 282.143C570.805 282.507 571.54 283.021 572.172 283.686C572.81 284.343 573.308 285.115 573.666 286C574.031 286.885 574.213 287.846 574.213 288.881C574.213 289.916 574.031 290.876 573.666 291.762C573.308 292.647 572.81 293.422 572.172 294.086C571.54 294.75 570.805 295.268 569.965 295.639C569.132 296.01 568.236 296.195 567.279 296.195C566.322 296.195 565.424 296.01 564.584 295.639C563.751 295.268 563.015 294.75 562.377 294.086C561.739 293.422 561.241 292.647 560.883 291.762C560.525 290.876 560.346 289.916 560.346 288.881ZM582.797 281.781H585.277L588.93 292.221L592.582 281.781H595.062L589.926 296H587.934L582.797 281.781ZM581.459 281.781H583.93L584.379 291.957V296H581.459V281.781ZM593.93 281.781H596.41V296H593.48V291.957L593.93 281.781ZM604.506 293.617V288.91C604.506 288.572 604.451 288.282 604.34 288.041C604.229 287.794 604.057 287.602 603.822 287.465C603.594 287.328 603.298 287.26 602.934 287.26C602.621 287.26 602.351 287.315 602.123 287.426C601.895 287.53 601.719 287.683 601.596 287.885C601.472 288.08 601.41 288.311 601.41 288.578H598.598C598.598 288.129 598.702 287.702 598.91 287.299C599.118 286.895 599.421 286.54 599.818 286.234C600.215 285.922 600.688 285.678 601.234 285.502C601.788 285.326 602.406 285.238 603.09 285.238C603.91 285.238 604.639 285.375 605.277 285.648C605.915 285.922 606.417 286.332 606.781 286.879C607.152 287.426 607.338 288.109 607.338 288.93V293.451C607.338 294.031 607.374 294.506 607.445 294.877C607.517 295.242 607.621 295.561 607.758 295.834V296H604.916C604.779 295.714 604.675 295.355 604.604 294.926C604.538 294.49 604.506 294.053 604.506 293.617ZM604.877 289.564L604.896 291.156H603.324C602.953 291.156 602.631 291.199 602.357 291.283C602.084 291.368 601.859 291.488 601.684 291.645C601.508 291.794 601.378 291.97 601.293 292.172C601.215 292.374 601.176 292.595 601.176 292.836C601.176 293.077 601.231 293.295 601.342 293.49C601.452 293.679 601.612 293.829 601.82 293.939C602.029 294.044 602.273 294.096 602.553 294.096C602.976 294.096 603.344 294.011 603.656 293.842C603.969 293.673 604.21 293.464 604.379 293.217C604.555 292.969 604.646 292.735 604.652 292.514L605.395 293.705C605.29 293.972 605.147 294.249 604.965 294.535C604.789 294.822 604.564 295.092 604.291 295.346C604.018 295.593 603.689 295.798 603.305 295.961C602.921 296.117 602.465 296.195 601.938 296.195C601.267 296.195 600.658 296.062 600.111 295.795C599.571 295.521 599.141 295.147 598.822 294.672C598.51 294.19 598.354 293.643 598.354 293.031C598.354 292.478 598.458 291.986 598.666 291.557C598.874 291.127 599.18 290.766 599.584 290.473C599.994 290.173 600.505 289.949 601.117 289.799C601.729 289.643 602.439 289.564 603.246 289.564H604.877ZM615.219 293.08C615.219 292.878 615.16 292.696 615.043 292.533C614.926 292.37 614.708 292.221 614.389 292.084C614.076 291.941 613.624 291.811 613.031 291.693C612.497 291.576 611.999 291.43 611.537 291.254C611.081 291.072 610.684 290.854 610.346 290.6C610.014 290.346 609.753 290.046 609.564 289.701C609.376 289.35 609.281 288.949 609.281 288.5C609.281 288.057 609.376 287.641 609.564 287.25C609.76 286.859 610.036 286.514 610.395 286.215C610.759 285.909 611.202 285.671 611.723 285.502C612.25 285.326 612.842 285.238 613.5 285.238C614.418 285.238 615.206 285.385 615.863 285.678C616.527 285.971 617.035 286.374 617.387 286.889C617.745 287.396 617.924 287.976 617.924 288.627H615.111C615.111 288.354 615.053 288.109 614.936 287.895C614.825 287.673 614.649 287.501 614.408 287.377C614.174 287.247 613.868 287.182 613.49 287.182C613.178 287.182 612.908 287.237 612.68 287.348C612.452 287.452 612.276 287.595 612.152 287.777C612.035 287.953 611.977 288.148 611.977 288.363C611.977 288.526 612.009 288.673 612.074 288.803C612.146 288.926 612.26 289.04 612.416 289.145C612.572 289.249 612.774 289.346 613.021 289.438C613.275 289.522 613.588 289.6 613.959 289.672C614.721 289.828 615.401 290.033 616 290.287C616.599 290.535 617.074 290.873 617.426 291.303C617.777 291.726 617.953 292.283 617.953 292.973C617.953 293.441 617.849 293.871 617.641 294.262C617.432 294.652 617.133 294.994 616.742 295.287C616.352 295.574 615.883 295.798 615.336 295.961C614.796 296.117 614.187 296.195 613.51 296.195C612.527 296.195 611.693 296.02 611.01 295.668C610.333 295.316 609.818 294.87 609.467 294.33C609.122 293.783 608.949 293.223 608.949 292.65H611.615C611.628 293.035 611.726 293.344 611.908 293.578C612.097 293.812 612.335 293.982 612.621 294.086C612.914 294.19 613.23 294.242 613.568 294.242C613.933 294.242 614.236 294.193 614.477 294.096C614.717 293.992 614.9 293.855 615.023 293.686C615.154 293.51 615.219 293.308 615.219 293.08ZM625.492 293.08C625.492 292.878 625.434 292.696 625.316 292.533C625.199 292.37 624.981 292.221 624.662 292.084C624.35 291.941 623.897 291.811 623.305 291.693C622.771 291.576 622.273 291.43 621.811 291.254C621.355 291.072 620.958 290.854 620.619 290.6C620.287 290.346 620.027 290.046 619.838 289.701C619.649 289.35 619.555 288.949 619.555 288.5C619.555 288.057 619.649 287.641 619.838 287.25C620.033 286.859 620.31 286.514 620.668 286.215C621.033 285.909 621.475 285.671 621.996 285.502C622.523 285.326 623.116 285.238 623.773 285.238C624.691 285.238 625.479 285.385 626.137 285.678C626.801 285.971 627.309 286.374 627.66 286.889C628.018 287.396 628.197 287.976 628.197 288.627H625.385C625.385 288.354 625.326 288.109 625.209 287.895C625.098 287.673 624.923 287.501 624.682 287.377C624.447 287.247 624.141 287.182 623.764 287.182C623.451 287.182 623.181 287.237 622.953 287.348C622.725 287.452 622.549 287.595 622.426 287.777C622.309 287.953 622.25 288.148 622.25 288.363C622.25 288.526 622.283 288.673 622.348 288.803C622.419 288.926 622.533 289.04 622.689 289.145C622.846 289.249 623.048 289.346 623.295 289.438C623.549 289.522 623.861 289.6 624.232 289.672C624.994 289.828 625.674 290.033 626.273 290.287C626.872 290.535 627.348 290.873 627.699 291.303C628.051 291.726 628.227 292.283 628.227 292.973C628.227 293.441 628.122 293.871 627.914 294.262C627.706 294.652 627.406 294.994 627.016 295.287C626.625 295.574 626.156 295.798 625.609 295.961C625.069 296.117 624.46 296.195 623.783 296.195C622.8 296.195 621.967 296.02 621.283 295.668C620.606 295.316 620.092 294.87 619.74 294.33C619.395 293.783 619.223 293.223 619.223 292.65H621.889C621.902 293.035 621.999 293.344 622.182 293.578C622.37 293.812 622.608 293.982 622.895 294.086C623.188 294.19 623.503 294.242 623.842 294.242C624.206 294.242 624.509 294.193 624.75 294.096C624.991 293.992 625.173 293.855 625.297 293.686C625.427 293.51 625.492 293.308 625.492 293.08ZM633.021 285.434V296H630.199V285.434H633.021ZM630.023 282.68C630.023 282.27 630.167 281.931 630.453 281.664C630.74 281.397 631.124 281.264 631.605 281.264C632.081 281.264 632.462 281.397 632.748 281.664C633.041 281.931 633.188 282.27 633.188 282.68C633.188 283.09 633.041 283.428 632.748 283.695C632.462 283.962 632.081 284.096 631.605 284.096C631.124 284.096 630.74 283.962 630.453 283.695C630.167 283.428 630.023 283.09 630.023 282.68ZM638.158 287.621V296H635.336V285.434H637.982L638.158 287.621ZM637.768 290.346H636.986C636.986 289.61 637.074 288.933 637.25 288.314C637.432 287.689 637.696 287.149 638.041 286.693C638.393 286.231 638.826 285.873 639.34 285.619C639.854 285.365 640.45 285.238 641.127 285.238C641.596 285.238 642.025 285.31 642.416 285.453C642.807 285.59 643.142 285.808 643.422 286.107C643.708 286.4 643.93 286.785 644.086 287.26C644.242 287.729 644.32 288.292 644.32 288.949V296H641.508V289.262C641.508 288.78 641.443 288.409 641.312 288.148C641.182 287.888 640.997 287.706 640.756 287.602C640.521 287.497 640.238 287.445 639.906 287.445C639.542 287.445 639.223 287.52 638.949 287.67C638.682 287.82 638.461 288.028 638.285 288.295C638.109 288.555 637.979 288.861 637.895 289.213C637.81 289.564 637.768 289.942 637.768 290.346ZM644.057 290.023L643.051 290.15C643.051 289.46 643.135 288.819 643.305 288.227C643.48 287.634 643.738 287.113 644.076 286.664C644.421 286.215 644.848 285.867 645.355 285.619C645.863 285.365 646.449 285.238 647.113 285.238C647.621 285.238 648.083 285.313 648.5 285.463C648.917 285.606 649.271 285.837 649.564 286.156C649.864 286.469 650.092 286.879 650.248 287.387C650.411 287.895 650.492 288.516 650.492 289.252V296H647.67V289.252C647.67 288.764 647.605 288.393 647.475 288.139C647.351 287.878 647.169 287.699 646.928 287.602C646.693 287.497 646.413 287.445 646.088 287.445C645.749 287.445 645.453 287.514 645.199 287.65C644.945 287.781 644.734 287.963 644.564 288.197C644.395 288.432 644.268 288.705 644.184 289.018C644.099 289.324 644.057 289.659 644.057 290.023ZM652.221 290.824V290.619C652.221 289.844 652.331 289.132 652.553 288.48C652.774 287.823 653.096 287.253 653.52 286.771C653.943 286.29 654.464 285.915 655.082 285.648C655.701 285.375 656.41 285.238 657.211 285.238C658.012 285.238 658.725 285.375 659.35 285.648C659.975 285.915 660.499 286.29 660.922 286.771C661.352 287.253 661.677 287.823 661.898 288.48C662.12 289.132 662.23 289.844 662.23 290.619V290.824C662.23 291.592 662.12 292.305 661.898 292.963C661.677 293.614 661.352 294.184 660.922 294.672C660.499 295.154 659.978 295.528 659.359 295.795C658.741 296.062 658.031 296.195 657.23 296.195C656.43 296.195 655.717 296.062 655.092 295.795C654.473 295.528 653.949 295.154 653.52 294.672C653.096 294.184 652.774 293.614 652.553 292.963C652.331 292.305 652.221 291.592 652.221 290.824ZM655.033 290.619V290.824C655.033 291.267 655.072 291.68 655.15 292.064C655.229 292.449 655.352 292.787 655.521 293.08C655.697 293.367 655.925 293.591 656.205 293.754C656.485 293.917 656.827 293.998 657.23 293.998C657.621 293.998 657.956 293.917 658.236 293.754C658.516 293.591 658.741 293.367 658.91 293.08C659.079 292.787 659.203 292.449 659.281 292.064C659.366 291.68 659.408 291.267 659.408 290.824V290.619C659.408 290.189 659.366 289.786 659.281 289.408C659.203 289.024 659.076 288.686 658.9 288.393C658.731 288.093 658.507 287.859 658.227 287.689C657.947 287.52 657.608 287.436 657.211 287.436C656.814 287.436 656.475 287.52 656.195 287.689C655.922 287.859 655.697 288.093 655.521 288.393C655.352 288.686 655.229 289.024 655.15 289.408C655.072 289.786 655.033 290.189 655.033 290.619ZM673.48 296H670.385L670.404 293.715H673.48C674.249 293.715 674.896 293.542 675.424 293.197C675.951 292.846 676.348 292.335 676.615 291.664C676.889 290.993 677.025 290.183 677.025 289.232V288.539C677.025 287.81 676.947 287.169 676.791 286.615C676.641 286.062 676.417 285.596 676.117 285.219C675.818 284.841 675.45 284.558 675.014 284.369C674.577 284.174 674.076 284.076 673.51 284.076H670.326V281.781H673.51C674.46 281.781 675.329 281.944 676.117 282.27C676.911 282.589 677.598 283.048 678.178 283.646C678.757 284.245 679.203 284.962 679.516 285.795C679.835 286.622 679.994 287.543 679.994 288.559V289.232C679.994 290.242 679.835 291.163 679.516 291.996C679.203 292.829 678.757 293.546 678.178 294.145C677.605 294.737 676.918 295.196 676.117 295.521C675.323 295.84 674.444 296 673.48 296ZM672.045 281.781V296H669.115V281.781H672.045ZM686.811 296.195C685.99 296.195 685.255 296.065 684.604 295.805C683.952 295.538 683.399 295.17 682.943 294.701C682.494 294.232 682.149 293.689 681.908 293.07C681.667 292.445 681.547 291.781 681.547 291.078V290.688C681.547 289.887 681.661 289.154 681.889 288.49C682.117 287.826 682.442 287.25 682.865 286.762C683.295 286.273 683.816 285.899 684.428 285.639C685.04 285.372 685.73 285.238 686.498 285.238C687.247 285.238 687.911 285.362 688.49 285.609C689.07 285.857 689.555 286.208 689.945 286.664C690.342 287.12 690.642 287.667 690.844 288.305C691.046 288.936 691.146 289.639 691.146 290.414V291.586H682.748V289.711H688.383V289.496C688.383 289.105 688.311 288.757 688.168 288.451C688.031 288.139 687.823 287.891 687.543 287.709C687.263 287.527 686.905 287.436 686.469 287.436C686.098 287.436 685.779 287.517 685.512 287.68C685.245 287.842 685.027 288.07 684.857 288.363C684.695 288.656 684.571 289.001 684.486 289.398C684.408 289.789 684.369 290.219 684.369 290.688V291.078C684.369 291.501 684.428 291.892 684.545 292.25C684.669 292.608 684.841 292.917 685.062 293.178C685.29 293.438 685.564 293.64 685.883 293.783C686.208 293.926 686.576 293.998 686.986 293.998C687.494 293.998 687.966 293.9 688.402 293.705C688.845 293.503 689.226 293.201 689.545 292.797L690.912 294.281C690.691 294.6 690.388 294.906 690.004 295.199C689.626 295.492 689.171 295.733 688.637 295.922C688.103 296.104 687.494 296.195 686.811 296.195ZM698.988 293.695V281H701.82V296H699.271L698.988 293.695ZM692.309 290.844V290.639C692.309 289.831 692.4 289.099 692.582 288.441C692.764 287.777 693.031 287.208 693.383 286.732C693.734 286.257 694.167 285.889 694.682 285.629C695.196 285.368 695.782 285.238 696.439 285.238C697.058 285.238 697.598 285.368 698.061 285.629C698.529 285.889 698.926 286.26 699.252 286.742C699.584 287.217 699.851 287.781 700.053 288.432C700.255 289.076 700.401 289.783 700.492 290.551V291C700.401 291.736 700.255 292.419 700.053 293.051C699.851 293.682 699.584 294.236 699.252 294.711C698.926 295.18 698.529 295.544 698.061 295.805C697.592 296.065 697.045 296.195 696.42 296.195C695.762 296.195 695.176 296.062 694.662 295.795C694.154 295.528 693.725 295.154 693.373 294.672C693.028 294.19 692.764 293.624 692.582 292.973C692.4 292.322 692.309 291.612 692.309 290.844ZM695.121 290.639V290.844C695.121 291.28 695.154 291.687 695.219 292.064C695.29 292.442 695.404 292.777 695.561 293.07C695.723 293.357 695.932 293.581 696.186 293.744C696.446 293.9 696.762 293.979 697.133 293.979C697.615 293.979 698.012 293.871 698.324 293.656C698.637 293.435 698.874 293.132 699.037 292.748C699.206 292.364 699.304 291.921 699.33 291.42V290.141C699.311 289.73 699.252 289.363 699.154 289.037C699.063 288.705 698.926 288.422 698.744 288.188C698.568 287.953 698.347 287.771 698.08 287.641C697.82 287.51 697.51 287.445 697.152 287.445C696.788 287.445 696.475 287.53 696.215 287.699C695.954 287.862 695.743 288.087 695.58 288.373C695.424 288.66 695.307 288.998 695.229 289.389C695.157 289.773 695.121 290.189 695.121 290.639ZM708.881 296.195C708.061 296.195 707.325 296.065 706.674 295.805C706.023 295.538 705.469 295.17 705.014 294.701C704.564 294.232 704.219 293.689 703.979 293.07C703.738 292.445 703.617 291.781 703.617 291.078V290.688C703.617 289.887 703.731 289.154 703.959 288.49C704.187 287.826 704.512 287.25 704.936 286.762C705.365 286.273 705.886 285.899 706.498 285.639C707.11 285.372 707.8 285.238 708.568 285.238C709.317 285.238 709.981 285.362 710.561 285.609C711.14 285.857 711.625 286.208 712.016 286.664C712.413 287.12 712.712 287.667 712.914 288.305C713.116 288.936 713.217 289.639 713.217 290.414V291.586H704.818V289.711H710.453V289.496C710.453 289.105 710.382 288.757 710.238 288.451C710.102 288.139 709.893 287.891 709.613 287.709C709.333 287.527 708.975 287.436 708.539 287.436C708.168 287.436 707.849 287.517 707.582 287.68C707.315 287.842 707.097 288.07 706.928 288.363C706.765 288.656 706.641 289.001 706.557 289.398C706.479 289.789 706.439 290.219 706.439 290.688V291.078C706.439 291.501 706.498 291.892 706.615 292.25C706.739 292.608 706.911 292.917 707.133 293.178C707.361 293.438 707.634 293.64 707.953 293.783C708.279 293.926 708.646 293.998 709.057 293.998C709.564 293.998 710.036 293.9 710.473 293.705C710.915 293.503 711.296 293.201 711.615 292.797L712.982 294.281C712.761 294.6 712.458 294.906 712.074 295.199C711.697 295.492 711.241 295.733 710.707 295.922C710.173 296.104 709.564 296.195 708.881 296.195ZM725.346 288.793V291H719.828V288.793H725.346ZM742.279 293.803V296H732.553V294.125L737.152 289.193C737.615 288.679 737.979 288.227 738.246 287.836C738.513 287.439 738.705 287.084 738.822 286.771C738.946 286.452 739.008 286.15 739.008 285.863C739.008 285.434 738.936 285.066 738.793 284.76C738.65 284.447 738.438 284.206 738.158 284.037C737.885 283.868 737.546 283.783 737.143 283.783C736.713 283.783 736.342 283.887 736.029 284.096C735.723 284.304 735.489 284.594 735.326 284.965C735.17 285.336 735.092 285.756 735.092 286.225H732.27C732.27 285.378 732.471 284.604 732.875 283.9C733.279 283.191 733.848 282.628 734.584 282.211C735.32 281.788 736.192 281.576 737.201 281.576C738.197 281.576 739.037 281.739 739.721 282.064C740.411 282.383 740.932 282.846 741.283 283.451C741.641 284.05 741.82 284.766 741.82 285.6C741.82 286.068 741.745 286.527 741.596 286.977C741.446 287.419 741.231 287.862 740.951 288.305C740.678 288.741 740.346 289.184 739.955 289.633C739.564 290.082 739.132 290.548 738.656 291.029L736.186 293.803H742.279ZM753.607 287.641V290.102C753.607 291.169 753.493 292.09 753.266 292.865C753.038 293.633 752.709 294.265 752.279 294.76C751.856 295.248 751.352 295.609 750.766 295.844C750.18 296.078 749.529 296.195 748.812 296.195C748.24 296.195 747.706 296.124 747.211 295.98C746.716 295.831 746.27 295.6 745.873 295.287C745.482 294.975 745.144 294.581 744.857 294.105C744.577 293.624 744.363 293.051 744.213 292.387C744.063 291.723 743.988 290.961 743.988 290.102V287.641C743.988 286.573 744.102 285.658 744.33 284.896C744.564 284.128 744.893 283.5 745.316 283.012C745.746 282.523 746.254 282.165 746.84 281.938C747.426 281.703 748.077 281.586 748.793 281.586C749.366 281.586 749.896 281.661 750.385 281.811C750.88 281.954 751.326 282.178 751.723 282.484C752.12 282.79 752.458 283.184 752.738 283.666C753.018 284.141 753.233 284.711 753.383 285.375C753.533 286.033 753.607 286.788 753.607 287.641ZM750.785 290.473V287.26C750.785 286.745 750.756 286.296 750.697 285.912C750.645 285.528 750.564 285.202 750.453 284.936C750.342 284.662 750.206 284.441 750.043 284.271C749.88 284.102 749.695 283.979 749.486 283.9C749.278 283.822 749.047 283.783 748.793 283.783C748.474 283.783 748.191 283.845 747.943 283.969C747.702 284.092 747.497 284.291 747.328 284.564C747.159 284.831 747.029 285.189 746.938 285.639C746.853 286.081 746.811 286.622 746.811 287.26V290.473C746.811 290.987 746.837 291.439 746.889 291.83C746.947 292.221 747.032 292.556 747.143 292.836C747.26 293.109 747.396 293.334 747.553 293.51C747.715 293.679 747.901 293.803 748.109 293.881C748.324 293.959 748.559 293.998 748.812 293.998C749.125 293.998 749.402 293.936 749.643 293.812C749.89 293.682 750.098 293.48 750.268 293.207C750.443 292.927 750.574 292.562 750.658 292.113C750.743 291.664 750.785 291.117 750.785 290.473ZM765.248 293.803V296H755.521V294.125L760.121 289.193C760.583 288.679 760.948 288.227 761.215 287.836C761.482 287.439 761.674 287.084 761.791 286.771C761.915 286.452 761.977 286.15 761.977 285.863C761.977 285.434 761.905 285.066 761.762 284.76C761.618 284.447 761.407 284.206 761.127 284.037C760.854 283.868 760.515 283.783 760.111 283.783C759.682 283.783 759.311 283.887 758.998 284.096C758.692 284.304 758.458 284.594 758.295 284.965C758.139 285.336 758.061 285.756 758.061 286.225H755.238C755.238 285.378 755.44 284.604 755.844 283.9C756.247 283.191 756.817 282.628 757.553 282.211C758.288 281.788 759.161 281.576 760.17 281.576C761.166 281.576 762.006 281.739 762.689 282.064C763.38 282.383 763.9 282.846 764.252 283.451C764.61 284.05 764.789 284.766 764.789 285.6C764.789 286.068 764.714 286.527 764.564 286.977C764.415 287.419 764.2 287.862 763.92 288.305C763.646 288.741 763.314 289.184 762.924 289.633C762.533 290.082 762.1 290.548 761.625 291.029L759.154 293.803H765.248ZM776.967 290.688V292.895H766.723L766.586 291.186L772.514 281.781H774.75L772.328 285.834L769.379 290.688H776.967ZM775.355 281.781V296H772.543V281.781H775.355Z" fill="black"/>
</svg>
