<svg width="139" height="139" viewBox="0 0 139 139" fill="none" xmlns="http://www.w3.org/2000/svg">
<path fill-rule="evenodd" clip-rule="evenodd" d="M0 6.31799C0 4.64235 0.665662 3.03535 1.85055 1.85049C3.03544 0.665643 4.64249 0 6.31817 0H12.7311C18.5393 -0.000419053 24.2906 1.14316 29.6568 3.36545C35.023 5.58774 39.8989 8.84521 44.0061 12.9519L61.5706 30.5222L106.91 12.895C110.339 11.5616 114.081 11.2548 117.682 12.0121C121.282 12.7693 124.584 14.5579 127.185 17.1596L137.149 27.1231C137.838 27.8127 138.359 28.6526 138.67 29.577C138.981 30.5015 139.074 31.4854 138.941 32.4517C138.808 33.418 138.454 34.3404 137.905 35.1467C137.356 35.953 136.628 36.6213 135.777 37.0992L92.0115 61.7141L106.745 78.5515L121.05 76.5108C124.219 76.0581 127.45 76.6141 130.286 78.1C133.121 79.5859 135.418 81.9264 136.849 84.7898C138.28 87.6532 138.774 90.8944 138.261 94.0543C137.748 97.2141 136.254 100.132 133.989 102.396L102.399 133.986C100.135 136.25 97.217 137.744 94.057 138.257C90.8971 138.77 87.6558 138.276 84.7923 136.845C81.9287 135.414 79.5882 133.118 78.1023 130.282C76.6164 127.447 76.0604 124.215 76.513 121.046L78.5538 106.742L61.7159 92.0088L37.1003 135.774C36.6226 136.625 35.9541 137.354 35.1472 137.904C34.3403 138.453 33.4171 138.808 32.4499 138.941C31.4827 139.074 30.4978 138.981 29.5727 138.669C28.6475 138.357 27.8071 137.836 27.1176 137.145L17.1665 127.181C14.5647 124.58 12.776 121.278 12.0187 117.678C11.2614 114.078 11.5682 110.335 12.9017 106.907L30.5294 61.5751L12.9649 43.9985C8.85583 39.8924 5.59593 35.0171 3.37139 29.6511C1.14685 24.285 0.00124021 18.5333 0 12.7244V6.31799ZM12.6363 12.636V12.7307C12.6365 21.1073 15.9636 29.1409 21.8861 35.0648L42.376 55.554C43.2436 56.4212 43.8401 57.5222 44.0925 58.7227C44.345 59.9231 44.2425 61.1711 43.7976 62.3143L24.6725 111.487C24.2275 112.63 24.125 113.878 24.3775 115.079C24.6299 116.279 25.2264 117.38 26.094 118.247L30.1693 122.323L54.5132 79.038C54.974 78.2193 55.6116 77.5137 56.3796 76.9726C57.1476 76.4314 58.0266 76.0683 58.9526 75.9098C59.8786 75.7512 60.8283 75.8011 61.7326 76.0559C62.6369 76.3107 63.473 76.764 64.18 77.3827L89.4527 99.4956C90.244 100.187 90.8503 101.066 91.2166 102.051C91.5828 103.036 91.6975 104.097 91.5503 105.138L89.023 122.828C88.9435 123.372 89.0376 123.928 89.292 124.416C89.5464 124.904 89.9482 125.299 90.4401 125.545C90.9321 125.791 91.4892 125.876 92.0322 125.788C92.5752 125.699 93.0765 125.442 93.4647 125.052L125.056 93.462C125.445 93.0737 125.703 92.5725 125.791 92.0295C125.88 91.4865 125.795 90.9294 125.549 90.4375C125.302 89.9455 124.907 89.5438 124.419 89.2894C123.932 89.035 123.376 88.9409 122.832 89.0204L105.141 91.5476C104.099 91.696 103.037 91.5818 102.05 91.2155C101.064 90.8492 100.185 90.2423 99.4922 89.45L77.3786 64.1781C76.7602 63.4707 76.3073 62.6343 76.0529 61.7298C75.7986 60.8252 75.7492 59.8753 75.9084 58.9493C76.0676 58.0233 76.4313 57.1444 76.9731 56.3767C77.5149 55.609 78.2211 54.9718 79.0403 54.5116L122.32 30.1684L118.251 26.0933C117.384 25.2256 116.283 24.6292 115.082 24.3767C113.882 24.1243 112.634 24.2268 111.49 24.6717L62.3098 43.7963C61.1666 44.2412 59.9186 44.3437 58.7181 44.0913C57.5176 43.8388 56.4165 43.2424 55.5494 42.3747L35.0658 21.8855C29.1418 15.9632 21.1079 12.6361 12.7311 12.636H12.6363Z" fill="black"/>
</svg>
