<?xml version="1.0" encoding="UTF-8" standalone="no"?>
<!DOCTYPE svg PUBLIC "-//W3C//DTD SVG 1.1//EN" "http://www.w3.org/Graphics/SVG/1.1/DTD/svg11.dtd">
<svg height="100%" stroke-miterlimit="10" style="fill-rule:nonzero;clip-rule:evenodd;stroke-linecap:round;stroke-linejoin:round;" version="1.1" viewBox="0 0 204 19" width="100%" xml:space="preserve" xmlns="http://www.w3.org/2000/svg" xmlns:vectornator="http://vectornator.io" xmlns:xlink="http://www.w3.org/1999/xlink">
<defs/>
<g id="Senza-Titolo" vectornator:layerName="Senza Titolo">black
<path d="M0.523438 0.9375L6.88672 0.9375C8.19141 0.9375 9.3125 1.13281 10.25 1.52344C11.1953 1.91406 11.9219 2.49219 12.4297 3.25781C12.9375 4.02344 13.1914 4.96484 13.1914 6.08203C13.1914 6.99609 13.0352 7.78125 12.7227 8.4375C12.418 9.08594 11.9844 9.62891 11.4219 10.0664C10.8672 10.4961 10.2148 10.8398 9.46484 11.0977L8.35156 11.6836L2.82031 11.6836L2.79688 8.94141L6.91016 8.94141C7.52734 8.94141 8.03906 8.83203 8.44531 8.61328C8.85156 8.39453 9.15625 8.08984 9.35938 7.69922C9.57031 7.30859 9.67578 6.85547 9.67578 6.33984C9.67578 5.79297 9.57422 5.32031 9.37109 4.92188C9.16797 4.52344 8.85938 4.21875 8.44531 4.00781C8.03125 3.79688 7.51172 3.69141 6.88672 3.69141L4.03906 3.69141L4.03906 18L0.523438 18L0.523438 0.9375ZM10.0625 18L6.17188 10.3945L9.88672 10.3711L13.8242 17.8359L13.8242 18L10.0625 18ZM25.3203 0.9375L28.8242 0.9375L28.8242 12.2109C28.8242 13.5234 28.543 14.6289 27.9805 15.5273C27.4258 16.4258 26.6562 17.1016 25.6719 17.5547C24.6953 18.0078 23.5703 18.2344 22.2969 18.2344C21.0234 18.2344 19.8906 18.0078 18.8984 17.5547C17.9141 17.1016 17.1406 16.4258 16.5781 15.5273C16.0234 14.6289 15.7461 13.5234 15.7461 12.2109L15.7461 0.9375L19.2617 0.9375L19.2617 12.2109C19.2617 12.9766 19.3828 13.6016 19.625 14.0859C19.8672 14.5703 20.2148 14.9258 20.668 15.1523C21.1289 15.3789 21.6719 15.4922 22.2969 15.4922C22.9375 15.4922 23.4805 15.3789 23.9258 15.1523C24.3789 14.9258 24.7227 14.5703 24.957 14.0859C25.1992 13.6016 25.3203 12.9766 25.3203 12.2109L25.3203 0.9375ZM45.6055 0.9375L45.6055 18L42.0898 18L35.2344 6.5625L35.2344 18L31.7188 18L31.7188 0.9375L35.2344 0.9375L42.1016 12.3867L42.1016 0.9375L45.6055 0.9375ZM53.9023 18L50.1875 18L50.2109 15.2578L53.9023 15.2578C54.8242 15.2578 55.6016 15.0508 56.2344 14.6367C56.8672 14.2148 57.3438 13.6016 57.6641 12.7969C57.9922 11.9922 58.1562 11.0195 58.1562 9.87891L58.1562 9.04688C58.1562 8.17188 58.0625 7.40234 57.875 6.73828C57.6953 6.07422 57.4258 5.51562 57.0664 5.0625C56.707 4.60938 56.2656 4.26953 55.7422 4.04297C55.2188 3.80859 54.6172 3.69141 53.9375 3.69141L50.1172 3.69141L50.1172 0.9375L53.9375 0.9375C55.0781 0.9375 56.1211 1.13281 57.0664 1.52344C58.0195 1.90625 58.8438 2.45703 59.5391 3.17578C60.2344 3.89453 60.7695 4.75391 61.1445 5.75391C61.5273 6.74609 61.7188 7.85156 61.7188 9.07031L61.7188 9.87891C61.7188 11.0898 61.5273 12.1953 61.1445 13.1953C60.7695 14.1953 60.2344 15.0547 59.5391 15.7734C58.8516 16.4844 58.0273 17.0352 57.0664 17.4258C56.1133 17.8086 55.0586 18 53.9023 18ZM52.1797 0.9375L52.1797 18L48.6641 18L48.6641 0.9375L52.1797 0.9375ZM71.1055 0.9375L71.1055 18L67.6016 18L67.6016 0.9375L71.1055 0.9375ZM76.3555 0.9375L76.3555 3.69141L62.4336 3.69141L62.4336 0.9375L76.3555 0.9375ZM92.0469 9.07031L92.0469 9.87891C92.0469 11.1758 91.8711 12.3398 91.5195 13.3711C91.168 14.4023 90.6719 15.2812 90.0312 16.0078C89.3906 16.7266 88.625 17.2773 87.7344 17.6602C86.8516 18.043 85.8711 18.2344 84.793 18.2344C83.7227 18.2344 82.7422 18.043 81.8516 17.6602C80.9688 17.2773 80.2031 16.7266 79.5547 16.0078C78.9062 15.2812 78.4023 14.4023 78.043 13.3711C77.6914 12.3398 77.5156 11.1758 77.5156 9.87891L77.5156 9.07031C77.5156 7.76562 77.6914 6.60156 78.043 5.57812C78.3945 4.54688 78.8906 3.66797 79.5312 2.94141C80.1797 2.21484 80.9453 1.66016 81.8281 1.27734C82.7188 0.894531 83.6992 0.703125 84.7695 0.703125C85.8477 0.703125 86.8281 0.894531 87.7109 1.27734C88.6016 1.66016 89.3672 2.21484 90.0078 2.94141C90.6562 3.66797 91.1562 4.54688 91.5078 5.57812C91.8672 6.60156 92.0469 7.76562 92.0469 9.07031ZM88.4961 9.87891L88.4961 9.04688C88.4961 8.14062 88.4141 7.34375 88.25 6.65625C88.0859 5.96875 87.8438 5.39062 87.5234 4.92188C87.2031 4.45312 86.8125 4.10156 86.3516 3.86719C85.8906 3.625 85.3633 3.50391 84.7695 3.50391C84.1758 3.50391 83.6484 3.625 83.1875 3.86719C82.7344 4.10156 82.3477 4.45312 82.0273 4.92188C81.7148 5.39062 81.4766 5.96875 81.3125 6.65625C81.1484 7.34375 81.0664 8.14062 81.0664 9.04688L81.0664 9.87891C81.0664 10.7773 81.1484 11.5742 81.3125 12.2695C81.4766 12.957 81.7188 13.5391 82.0391 14.0156C82.3594 14.4844 82.75 14.8398 83.2109 15.082C83.6719 15.3242 84.1992 15.4453 84.793 15.4453C85.3867 15.4453 85.9141 15.3242 86.375 15.082C86.8359 14.8398 87.2227 14.4844 87.5352 14.0156C87.8477 13.5391 88.0859 12.957 88.25 12.2695C88.4141 11.5742 88.4961 10.7773 88.4961 9.87891ZM96.1836 0.9375L99.1602 0.9375L103.543 13.4648L107.926 0.9375L110.902 0.9375L104.738 18L102.348 18L96.1836 0.9375ZM94.5781 0.9375L97.543 0.9375L98.082 13.1484L98.082 18L94.5781 18L94.5781 0.9375ZM109.543 0.9375L112.52 0.9375L112.52 18L109.004 18L109.004 13.1484L109.543 0.9375ZM121.754 14.4375L125.773 0.9375L129.688 0.9375L123.746 18L121.168 18L121.754 14.4375ZM118.051 0.9375L122.059 14.4375L122.668 18L120.066 18L114.16 0.9375L118.051 0.9375ZM142.73 15.2578L142.73 18L133.648 18L133.648 15.2578L142.73 15.2578ZM134.797 0.9375L134.797 18L131.281 18L131.281 0.9375L134.797 0.9375ZM141.547 7.88672L141.547 10.5586L133.648 10.5586L133.648 7.88672L141.547 7.88672ZM142.719 0.9375L142.719 3.69141L133.648 3.69141L133.648 0.9375L142.719 0.9375ZM144.781 0.9375L151.145 0.9375C152.449 0.9375 153.57 1.13281 154.508 1.52344C155.453 1.91406 156.18 2.49219 156.688 3.25781C157.195 4.02344 157.449 4.96484 157.449 6.08203C157.449 6.99609 157.293 7.78125 156.98 8.4375C156.676 9.08594 156.242 9.62891 155.68 10.0664C155.125 10.4961 154.473 10.8398 153.723 11.0977L152.609 11.6836L147.078 11.6836L147.055 8.94141L151.168 8.94141C151.785 8.94141 152.297 8.83203 152.703 8.61328C153.109 8.39453 153.414 8.08984 153.617 7.69922C153.828 7.30859 153.934 6.85547 153.934 6.33984C153.934 5.79297 153.832 5.32031 153.629 4.92188C153.426 4.52344 153.117 4.21875 152.703 4.00781C152.289 3.79688 151.77 3.69141 151.145 3.69141L148.297 3.69141L148.297 18L144.781 18L144.781 0.9375ZM154.32 18L150.43 10.3945L154.145 10.3711L158.082 17.8359L158.082 18L154.32 18ZM165.395 18L161.68 18L161.703 15.2578L165.395 15.2578C166.316 15.2578 167.094 15.0508 167.727 14.6367C168.359 14.2148 168.836 13.6016 169.156 12.7969C169.484 11.9922 169.648 11.0195 169.648 9.87891L169.648 9.04688C169.648 8.17188 169.555 7.40234 169.367 6.73828C169.188 6.07422 168.918 5.51562 168.559 5.0625C168.199 4.60938 167.758 4.26953 167.234 4.04297C166.711 3.80859 166.109 3.69141 165.43 3.69141L161.609 3.69141L161.609 0.9375L165.43 0.9375C166.57 0.9375 167.613 1.13281 168.559 1.52344C169.512 1.90625 170.336 2.45703 171.031 3.17578C171.727 3.89453 172.262 4.75391 172.637 5.75391C173.02 6.74609 173.211 7.85156 173.211 9.07031L173.211 9.87891C173.211 11.0898 173.02 12.1953 172.637 13.1953C172.262 14.1953 171.727 15.0547 171.031 15.7734C170.344 16.4844 169.52 17.0352 168.559 17.4258C167.605 17.8086 166.551 18 165.395 18ZM163.672 0.9375L163.672 18L160.156 18L160.156 0.9375L163.672 0.9375ZM187.215 15.2578L187.215 18L178.133 18L178.133 15.2578L187.215 15.2578ZM179.281 0.9375L179.281 18L175.766 18L175.766 0.9375L179.281 0.9375ZM186.031 7.88672L186.031 10.5586L178.133 10.5586L178.133 7.88672L186.031 7.88672ZM187.203 0.9375L187.203 3.69141L178.133 3.69141L178.133 0.9375L187.203 0.9375ZM203.152 0.9375L203.152 18L199.637 18L192.781 6.5625L192.781 18L189.266 18L189.266 0.9375L192.781 0.9375L199.648 12.3867L199.648 0.9375L203.152 0.9375Z" fill="black" fill-rule="nonzero" opacity="1" stroke="none" vectornator:layerName="path"/>
<path d="M0.523438 0.9375L6.88672 0.9375C8.19141 0.9375 9.3125 1.13281 10.25 1.52344C11.1953 1.91406 11.9219 2.49219 12.4297 3.25781C12.9375 4.02344 13.1914 4.96484 13.1914 6.08203C13.1914 6.99609 13.0352 7.78125 12.7227 8.4375C12.418 9.08594 11.9844 9.62891 11.4219 10.0664C10.8672 10.4961 10.2148 10.8398 9.46484 11.0977L8.35156 11.6836L2.82031 11.6836L2.79688 8.94141L6.91016 8.94141C7.52734 8.94141 8.03906 8.83203 8.44531 8.61328C8.85156 8.39453 9.15625 8.08984 9.35938 7.69922C9.57031 7.30859 9.67578 6.85547 9.67578 6.33984C9.67578 5.79297 9.57422 5.32031 9.37109 4.92188C9.16797 4.52344 8.85938 4.21875 8.44531 4.00781C8.03125 3.79688 7.51172 3.69141 6.88672 3.69141L4.03906 3.69141L4.03906 18L0.523438 18L0.523438 0.9375ZM10.0625 18L6.17188 10.3945L9.88672 10.3711L13.8242 17.8359L13.8242 18L10.0625 18ZM25.3203 0.9375L28.8242 0.9375L28.8242 12.2109C28.8242 13.5234 28.543 14.6289 27.9805 15.5273C27.4258 16.4258 26.6562 17.1016 25.6719 17.5547C24.6953 18.0078 23.5703 18.2344 22.2969 18.2344C21.0234 18.2344 19.8906 18.0078 18.8984 17.5547C17.9141 17.1016 17.1406 16.4258 16.5781 15.5273C16.0234 14.6289 15.7461 13.5234 15.7461 12.2109L15.7461 0.9375L19.2617 0.9375L19.2617 12.2109C19.2617 12.9766 19.3828 13.6016 19.625 14.0859C19.8672 14.5703 20.2148 14.9258 20.668 15.1523C21.1289 15.3789 21.6719 15.4922 22.2969 15.4922C22.9375 15.4922 23.4805 15.3789 23.9258 15.1523C24.3789 14.9258 24.7227 14.5703 24.957 14.0859C25.1992 13.6016 25.3203 12.9766 25.3203 12.2109L25.3203 0.9375ZM45.6055 0.9375L45.6055 18L42.0898 18L35.2344 6.5625L35.2344 18L31.7188 18L31.7188 0.9375L35.2344 0.9375L42.1016 12.3867L42.1016 0.9375L45.6055 0.9375ZM53.9023 18L50.1875 18L50.2109 15.2578L53.9023 15.2578C54.8242 15.2578 55.6016 15.0508 56.2344 14.6367C56.8672 14.2148 57.3438 13.6016 57.6641 12.7969C57.9922 11.9922 58.1562 11.0195 58.1562 9.87891L58.1562 9.04688C58.1562 8.17188 58.0625 7.40234 57.875 6.73828C57.6953 6.07422 57.4258 5.51562 57.0664 5.0625C56.707 4.60938 56.2656 4.26953 55.7422 4.04297C55.2188 3.80859 54.6172 3.69141 53.9375 3.69141L50.1172 3.69141L50.1172 0.9375L53.9375 0.9375C55.0781 0.9375 56.1211 1.13281 57.0664 1.52344C58.0195 1.90625 58.8438 2.45703 59.5391 3.17578C60.2344 3.89453 60.7695 4.75391 61.1445 5.75391C61.5273 6.74609 61.7188 7.85156 61.7188 9.07031L61.7188 9.87891C61.7188 11.0898 61.5273 12.1953 61.1445 13.1953C60.7695 14.1953 60.2344 15.0547 59.5391 15.7734C58.8516 16.4844 58.0273 17.0352 57.0664 17.4258C56.1133 17.8086 55.0586 18 53.9023 18ZM52.1797 0.9375L52.1797 18L48.6641 18L48.6641 0.9375L52.1797 0.9375ZM71.1055 0.9375L71.1055 18L67.6016 18L67.6016 0.9375L71.1055 0.9375ZM76.3555 0.9375L76.3555 3.69141L62.4336 3.69141L62.4336 0.9375L76.3555 0.9375ZM92.0469 9.07031L92.0469 9.87891C92.0469 11.1758 91.8711 12.3398 91.5195 13.3711C91.168 14.4023 90.6719 15.2812 90.0312 16.0078C89.3906 16.7266 88.625 17.2773 87.7344 17.6602C86.8516 18.043 85.8711 18.2344 84.793 18.2344C83.7227 18.2344 82.7422 18.043 81.8516 17.6602C80.9688 17.2773 80.2031 16.7266 79.5547 16.0078C78.9062 15.2812 78.4023 14.4023 78.043 13.3711C77.6914 12.3398 77.5156 11.1758 77.5156 9.87891L77.5156 9.07031C77.5156 7.76562 77.6914 6.60156 78.043 5.57812C78.3945 4.54688 78.8906 3.66797 79.5312 2.94141C80.1797 2.21484 80.9453 1.66016 81.8281 1.27734C82.7188 0.894531 83.6992 0.703125 84.7695 0.703125C85.8477 0.703125 86.8281 0.894531 87.7109 1.27734C88.6016 1.66016 89.3672 2.21484 90.0078 2.94141C90.6562 3.66797 91.1562 4.54688 91.5078 5.57812C91.8672 6.60156 92.0469 7.76562 92.0469 9.07031ZM88.4961 9.87891L88.4961 9.04688C88.4961 8.14062 88.4141 7.34375 88.25 6.65625C88.0859 5.96875 87.8438 5.39062 87.5234 4.92188C87.2031 4.45312 86.8125 4.10156 86.3516 3.86719C85.8906 3.625 85.3633 3.50391 84.7695 3.50391C84.1758 3.50391 83.6484 3.625 83.1875 3.86719C82.7344 4.10156 82.3477 4.45312 82.0273 4.92188C81.7148 5.39062 81.4766 5.96875 81.3125 6.65625C81.1484 7.34375 81.0664 8.14062 81.0664 9.04688L81.0664 9.87891C81.0664 10.7773 81.1484 11.5742 81.3125 12.2695C81.4766 12.957 81.7188 13.5391 82.0391 14.0156C82.3594 14.4844 82.75 14.8398 83.2109 15.082C83.6719 15.3242 84.1992 15.4453 84.793 15.4453C85.3867 15.4453 85.9141 15.3242 86.375 15.082C86.8359 14.8398 87.2227 14.4844 87.5352 14.0156C87.8477 13.5391 88.0859 12.957 88.25 12.2695C88.4141 11.5742 88.4961 10.7773 88.4961 9.87891ZM96.1836 0.9375L99.1602 0.9375L103.543 13.4648L107.926 0.9375L110.902 0.9375L104.738 18L102.348 18L96.1836 0.9375ZM94.5781 0.9375L97.543 0.9375L98.082 13.1484L98.082 18L94.5781 18L94.5781 0.9375ZM109.543 0.9375L112.52 0.9375L112.52 18L109.004 18L109.004 13.1484L109.543 0.9375ZM121.754 14.4375L125.773 0.9375L129.688 0.9375L123.746 18L121.168 18L121.754 14.4375ZM118.051 0.9375L122.059 14.4375L122.668 18L120.066 18L114.16 0.9375L118.051 0.9375ZM142.73 15.2578L142.73 18L133.648 18L133.648 15.2578L142.73 15.2578ZM134.797 0.9375L134.797 18L131.281 18L131.281 0.9375L134.797 0.9375ZM141.547 7.88672L141.547 10.5586L133.648 10.5586L133.648 7.88672L141.547 7.88672ZM142.719 0.9375L142.719 3.69141L133.648 3.69141L133.648 0.9375L142.719 0.9375ZM144.781 0.9375L151.145 0.9375C152.449 0.9375 153.57 1.13281 154.508 1.52344C155.453 1.91406 156.18 2.49219 156.688 3.25781C157.195 4.02344 157.449 4.96484 157.449 6.08203C157.449 6.99609 157.293 7.78125 156.98 8.4375C156.676 9.08594 156.242 9.62891 155.68 10.0664C155.125 10.4961 154.473 10.8398 153.723 11.0977L152.609 11.6836L147.078 11.6836L147.055 8.94141L151.168 8.94141C151.785 8.94141 152.297 8.83203 152.703 8.61328C153.109 8.39453 153.414 8.08984 153.617 7.69922C153.828 7.30859 153.934 6.85547 153.934 6.33984C153.934 5.79297 153.832 5.32031 153.629 4.92188C153.426 4.52344 153.117 4.21875 152.703 4.00781C152.289 3.79688 151.77 3.69141 151.145 3.69141L148.297 3.69141L148.297 18L144.781 18L144.781 0.9375ZM154.32 18L150.43 10.3945L154.145 10.3711L158.082 17.8359L158.082 18L154.32 18ZM165.395 18L161.68 18L161.703 15.2578L165.395 15.2578C166.316 15.2578 167.094 15.0508 167.727 14.6367C168.359 14.2148 168.836 13.6016 169.156 12.7969C169.484 11.9922 169.648 11.0195 169.648 9.87891L169.648 9.04688C169.648 8.17188 169.555 7.40234 169.367 6.73828C169.188 6.07422 168.918 5.51562 168.559 5.0625C168.199 4.60938 167.758 4.26953 167.234 4.04297C166.711 3.80859 166.109 3.69141 165.43 3.69141L161.609 3.69141L161.609 0.9375L165.43 0.9375C166.57 0.9375 167.613 1.13281 168.559 1.52344C169.512 1.90625 170.336 2.45703 171.031 3.17578C171.727 3.89453 172.262 4.75391 172.637 5.75391C173.02 6.74609 173.211 7.85156 173.211 9.07031L173.211 9.87891C173.211 11.0898 173.02 12.1953 172.637 13.1953C172.262 14.1953 171.727 15.0547 171.031 15.7734C170.344 16.4844 169.52 17.0352 168.559 17.4258C167.605 17.8086 166.551 18 165.395 18ZM163.672 0.9375L163.672 18L160.156 18L160.156 0.9375L163.672 0.9375ZM187.215 15.2578L187.215 18L178.133 18L178.133 15.2578L187.215 15.2578ZM179.281 0.9375L179.281 18L175.766 18L175.766 0.9375L179.281 0.9375ZM186.031 7.88672L186.031 10.5586L178.133 10.5586L178.133 7.88672L186.031 7.88672ZM187.203 0.9375L187.203 3.69141L178.133 3.69141L178.133 0.9375L187.203 0.9375ZM203.152 0.9375L203.152 18L199.637 18L192.781 6.5625L192.781 18L189.266 18L189.266 0.9375L192.781 0.9375L199.648 12.3867L199.648 0.9375L203.152 0.9375Z" fill="black" fill-rule="nonzero" opacity="1" stroke="none" vectornator:layerName="path"/>
</g>
</svg>