<?xml version="1.0" encoding="UTF-8"?>
<svg id="Lag_2" data-name="Lag 2" xmlns="http://www.w3.org/2000/svg" viewBox="0 0 671.45 878.18">
  <defs>
    <style>
      .cls-1 {
        fill: #527c1e;
      }

      .cls-1, .cls-2, .cls-3, .cls-4, .cls-5, .cls-6, .cls-7, .cls-8, .cls-9, .cls-10, .cls-11, .cls-12, .cls-13, .cls-14, .cls-15, .cls-16, .cls-17, .cls-18, .cls-19, .cls-20, .cls-21, .cls-22, .cls-23, .cls-24, .cls-25, .cls-26, .cls-27, .cls-28, .cls-29, .cls-30, .cls-31, .cls-32, .cls-33, .cls-34, .cls-35, .cls-36, .cls-37, .cls-38 {
        stroke-width: 0px;
      }

      .cls-2 {
        fill: #38691e;
      }

      .cls-3 {
        fill: #d02d31;
      }

      .cls-4 {
        fill: #799820;
      }

      .cls-5 {
        fill: #fdfdfd;
      }

      .cls-6 {
        fill: #016473;
      }

      .cls-7 {
        fill: #e75438;
      }

      .cls-8 {
        fill: #d9b22c;
      }

      .cls-9 {
        fill: #3d251f;
      }

      .cls-10 {
        fill: #653829;
      }

      .cls-11 {
        fill: #331611;
      }

      .cls-12 {
        fill: #8f7155;
      }

      .cls-13 {
        fill: #096361;
      }

      .cls-14 {
        fill: #5a1b15;
      }

      .cls-15 {
        fill: #7d614d;
      }

      .cls-16 {
        fill: #443d30;
      }

      .cls-17 {
        fill: #9daa20;
      }

      .cls-18 {
        fill: #deb17c;
      }

      .cls-19 {
        fill: #06412f;
      }

      .cls-20 {
        fill: #648a1e;
      }

      .cls-21 {
        fill: #4c2619;
      }

      .cls-22 {
        fill: #ed8a57;
      }

      .cls-23 {
        fill: #e8d493;
      }

      .cls-24 {
        fill: #eb7548;
      }

      .cls-25 {
        fill: #9c8661;
      }

      .cls-26 {
        fill: #1e5721;
      }

      .cls-27 {
        fill: #271b0a;
      }

      .cls-28 {
        fill: #ebd2a4;
      }

      .cls-29 {
        fill: #334338;
      }

      .cls-30 {
        fill: #de9769;
      }

      .cls-31 {
        fill: #db4232;
      }

      .cls-32 {
        fill: #645148;
      }

      .cls-33 {
        fill: #231915;
      }

      .cls-34 {
        fill: #392c21;
      }

      .cls-35 {
        fill: #704734;
      }

      .cls-36 {
        fill: #1e1f1f;
      }

      .cls-37 {
        fill: #543f38;
      }

      .cls-38 {
        fill: #034940;
      }
    </style>
  </defs>
  <g id="Lag_1-2" data-name="Lag 1">
    <g>
      <g>
        <path class="cls-6" d="M229.93,848.33c102.61-.32,205.3-.58,307.91,0,11.64.07,23.3-.08,34.9,0,11.9.08,23.93,1.02,35.92,1.03,20.14,0,40.47.85,60.56-1.03.04.14,2.36.9,2.05,2.05-.17,5.43,1.17,25.48-1.54,26.69-12.14.13-24.3-.18-36.44,0-210.04,3.03-420.14-1.23-630.19,0-1.48-1.49-1.47-22.44-1.03-25.66.05-.34-.05-.69,0-1.03,21.84-1.88,43.81-1.01,65.69-1.03,32.17-.02,64.33-.87,96.48-1.03,21.89-.11,43.79.07,65.69,0Z"/>
        <path class="cls-19" d="M662.04,814.46c6.57,19.58,6.22,30.42,7.18,33.87-20.09,1.87-40.42,1.03-60.56,1.03-1.04-3.53-1.13-7.7-1.03-11.29,1.13-37.97,31.05-58.38,54.4-23.61Z"/>
        <g>
          <path class="cls-17" d="M453.68,759.04c2.28,6.92,14.13,13.55,20.53,16.42.28.96,1.21,3.64,1.54,4.11,2.38,3.38,54.72,45.05,63.12,53.37-2,4.41-.62,10.66-1.03,15.4-102.61-.58-205.3-.32-307.91,0l-2.05-1.54c16.91-10.78,21.34-16.45,1.03-26.17,1-.82,5.17-13.24,18.99-16.42,4.23-.98,32.76-1.88,35.41-1.03.47.15,4.99,6.33,6.67,7.18,20.11,10.19,45.25.21,59.53,2.05,5.99.77,29.84,9.95,40.03,12.32,16.64-7.83-19.86-15-24.12-25.15-4.98-11.88,8.41-12.51,16.94-11.8,1.23.1,19.9,5.26,23.61,7.18.3-8.38,9.7-7.52,4.62-20.01-5.71-14.03-17.84-13.38-18.99-13.86-3.67-1.51-3.81-3.99-4.11-4.11-1.13-.45-21.56.47-16.42-11.29,8.44-8.14,31.85-5.55,3.08-11.29-5.27-6.19-18.5-3.21-27.2-11.8,15.44-12,25.7-5.49,27.2-5.65,3.8-.4-4.56-5.4,2.57-9.24,6.12,4.21,14.84,7.98,21.04,12.32,7.87,5.5,49.28,37.88,52.34,39,.74.27,2.39-.17,3.59,0Z"/>
          <path class="cls-23" d="M376.71,707.72c-7.13,3.84,1.23,8.84-2.57,9.24-1.5.16-11.75-6.35-27.2,5.65,8.7,8.6,21.93,5.61,27.2,11.8,28.77,5.74,5.36,3.15-3.08,11.29-5.14,11.76,15.3,10.84,16.42,11.29.3.12.44,2.59,4.11,4.11,1.14.47,13.28-.18,18.99,13.86,5.08,12.49-4.32,11.63-4.62,20.01-3.71-1.92-22.38-7.08-23.61-7.18-8.52-.7-21.92-.07-16.94,11.8,4.26,10.15,40.75,17.31,24.12,25.15-10.19-2.36-34.04-11.54-40.03-12.32-14.28-1.84-39.42,8.14-59.53-2.05-1.68-.85-6.2-7.03-6.67-7.18,6.1-9.67,11.09-4.96,11.8-5.13,1.1-.26.45-3.48,21.55-3.08.42,0,1.02,1.94,3.08,2.05.37.02,3.36-2.43,7.18-2.05,1.04.1,3.85,3.05,4.11,3.08,1.92.23,3.56-1.57,7.18-1.03,1.16.17,3.85,3.04,4.11,3.08,2.44.39,6.94-3.93,11.29,2.05,2.99-14.9-23.49-10.45-27.2-24.12,7.03-7.96,17.56-4.3,25.15-6.67,7.09,6.08,15.39,4.58,24.12,3.59-16.13-19.57-42.07-17.11-18.47-28.74-10.24-24.04-21.57-16.44-23.09-16.94-.51-.17-2.76-3.33-5.13-4.11-2.51-.82-1.58,4-13.86-6.67,11.66-5.81,23.52-3.98,35.92-8.21-28.45-9.65-14.11-16.83-13.34-19.5.5-1.74-.42-5.47,0-7.7.26-1.38,2.92-2.11,2.05-6.16,3.65.57,3.92-2.42,5.65-2.05,4.42.95-1.59,9.88,14.88-2.05,8.19,5.48-3.17,20.02,8.72,30.79.7.64,4.8,2.11,7.7,4.11Z"/>
        </g>
        <path class="cls-20" d="M228.91,820.62c20.31,9.72,15.88,15.4-1.03,26.17l2.05,1.54c-21.9.07-43.79-.11-65.69,0,2.14-20.9-21.84-23.43-22.58-25.15-.15-.36,1.37-2.19,1.03-7.7-.37-5.93-.06-10.07-1.03-16.42,12.61-16.91,23.87-34.48,45.16-15.91-12.61,11.04-.47,53.44,22.07,49.78,1.34-.22,18.2-10.83,20.01-12.32Z"/>
        <g>
          <path class="cls-38" d="M142.69,815.49c.34,5.51-1.18,7.34-1.03,7.7.74,1.72,24.72,4.25,22.58,25.15-32.15.15-64.3,1-96.48,1.03,3.33-7.27,5.95-14.92,8.21-22.58,4.72-15.97,7.44-39.41,19.5-51.32-4.78,6.85,4.09,8.51,8.21,14.88,19.7,30.43-9.53,43.97,12.83,49.78,19.05-24.08,22.4-16.45,23.61-17.45,1.73-1.43-1.39-7.96,2.57-7.18Z"/>
          <path class="cls-19" d="M75.98,826.78c-2.27,7.66-4.88,15.31-8.21,22.58-21.87.02-43.85-.85-65.69,1.03.29-1.92,11.93-34.14,13.34-36.44,18.09-29.49,51.29-18.29,60.56,12.83Z"/>
          <path class="cls-13" d="M141.67,799.06c.96,6.35.66,10.49,1.03,16.42-3.95-.78-.84,5.75-2.57,7.18-1.21,1-4.56-6.63-23.61,17.45-22.36-5.81,6.87-19.35-12.83-49.78-4.13-6.37-12.99-8.03-8.21-14.88,22.12-21.84,42.49-.81,46.19,23.61Z"/>
        </g>
        <path class="cls-20" d="M290.49,665.64c15.53,3.54,33.61,8.84,49.27,11.29.86,4.05-1.79,4.78-2.05,6.16-12.38-1.03-24.25-5.13-36.44-7.18-9.59-1.62-17.24,5.26-17.96-10.26,1.94.46,5.21-.45,7.18,0Z"/>
        <g>
          <path class="cls-4" d="M222.75,651.27c9.2,1.18,18.36,4.55,27.71,5.13,10.69,3.36,21.96,6.64,32.84,9.24.72,15.53,8.37,8.64,17.96,10.26,12.18,2.06,24.05,6.16,36.44,7.18-.42,2.23.5,5.96,0,7.7-.77,2.67-15.1,9.86,13.34,19.5-12.4,4.23-24.26,2.4-35.92,8.21,12.27,10.67,11.35,5.85,13.86,6.67,2.37.78,4.62,3.94,5.13,4.11,1.52.5,12.85-7.1,23.09,16.94-23.59,11.63,2.34,9.17,18.47,28.74-8.73.99-17.03,2.48-24.12-3.59-7.58,2.37-18.11-1.29-25.15,6.67,3.71,13.67,30.19,9.22,27.2,24.12-4.35-5.98-8.85-1.66-11.29-2.05-.25-.04-2.95-2.91-4.11-3.08-3.62-.54-5.26,1.26-7.18,1.03-.25-.03-3.06-2.98-4.11-3.08-3.83-.38-6.81,2.07-7.18,2.05-2.06-.11-2.66-2.04-3.08-2.05-21.1-.41-20.45,2.82-21.55,3.08-.71.17-5.7-4.53-11.8,5.13-2.65-.85-31.18.05-35.41,1.03-13.82,3.19-17.99,15.6-18.99,16.42-1.81,1.48-18.68,12.1-20.01,12.32-22.54,3.66-34.68-38.74-22.07-49.78-21.29-18.57-32.55-1-45.16,15.91-3.7-24.42-24.07-45.45-46.19-23.61-12.06,11.91-14.78,35.35-19.5,51.32-9.27-31.12-42.46-42.32-60.56-12.83-1.41,2.3-13.05,34.52-13.34,36.44-.05.33.05.69,0,1.03-2.55-1.79-2.03-4.62-2.05-7.18.69,0,1.87.25,2.05-.51,4.11-17.1,4.44-30.08,14.37-53.37,10.35-24.26,39.35-57.44,40.03-61.07,9.85-5.9,16.33-16.1,24.63-23.61,23.83-21.54,55.19-41.77,86.21-50.29,5.26-1.44,4.86-1.99,5.13-2.05,2.53-.58,23.39-4.05,24.63-4.11,4.28-.19,20.63,1.41,25.66,2.05Z"/>
          <g>
            <path class="cls-26" d="M144.23,669.74c22.94-3.74,21.1,16.69,22.58,17.45,1.24.63,6.91-14.74,21.04,7.7-2.07,22.82-35.16,10.93-37.46,10.78-3.91-.26-8.54,3.05-9.24,3.08-32.94,1.52-17.98-35.57,3.08-39Z"/>
            <path class="cls-20" d="M203.76,696.43c10.85-.14,20.64,17.79,16.42,19.5l-32.33-1.54c1.03-8.13,6.82-17.85,15.91-17.96Z"/>
            <path class="cls-8" d="M318.72,749.8c35.02,15.89-.49,11.88-16.94,12.83,5.91-5.77,10.43-10.91,16.94-12.83Z"/>
            <path class="cls-8" d="M150.39,730.3c30.75,16.38,13.29,11.13-15.4,13.34-2.23-1.12,13.49-11.8,15.4-13.34Z"/>
            <path class="cls-8" d="M207.87,669.74c3.17,6.87,10.99,1.66,13.86,11.8-14.34-3.78-12.04,2.84-14.88,2.57-.75-.07-1.51-3.86-7.18-3.08-.87.12-16.42,12.71-4.62-1.54,4.78-5.77,10.41-2.3,12.83-9.75Z"/>
          </g>
        </g>
        <g>
          <path class="cls-19" d="M572.74,792.91c8.29-.4,13.39,2.68,17.45,9.75,11.69,20.4-2.38,33.26-17.45,45.67-11.59-.08-23.25.07-34.9,0,.4-4.74-.97-10.98,1.03-15.4,2.04-4.51,13.31-7.61,13.86-8.21,1.96-2.16-.55-3.9-.51-4.11,2.56-12.46,1.36-17.09,11.29-26.69,4.34,4.41,4.48-.8,9.24-1.03Z"/>
          <path class="cls-38" d="M585.06,787.77c18.79,6.9,15.96,35.04,22.58,50.29-.11,3.59-.02,7.76,1.03,11.29-11.99,0-24.02-.94-35.92-1.03,15.07-12.41,29.14-25.27,17.45-45.67-4.06-7.08-9.16-10.15-17.45-9.75-1.34-7.55,2.76-4.66,12.32-5.13Z"/>
        </g>
        <path class="cls-20" d="M506.03,780.59c12.64,15,33.54,15.96,51.83,15.4-3.48,6.77-8.72,17.47-5.65,24.63-.04.2,2.47,1.95.51,4.11-.54.6-11.81,3.7-13.86,8.21-8.4-8.32-60.74-49.99-63.12-53.37-.33-.47-1.26-3.15-1.54-4.11-4.29-14.63,9.3,9.44,31.82,5.13Z"/>
        <path class="cls-20" d="M416.73,665.64c9,8.53-30.49,25.04-34.9,3.08,4.05-.54,8.31-1.61,12.32-2.05,1.86-.21,4.23.2,6.16,0,5.52-.58,11-.5,16.42-1.03Z"/>
        <path class="cls-2" d="M481.39,663.58c4.19,19.55-2.34,6.35-16.94,4.11-14.23-2.19-28.19,5.56-9.75-6.16,7.01-.45,17.09-2.34,24.12-1.03,2.97.56,2.37,3.04,2.57,3.08Z"/>
        <g>
          <path class="cls-26" d="M469.08,733.38c-1.12,14.23.42,9.65,9.75,11.29.79.14,2.52,3.64,4.11,3.08,1.3-.46,1.46-6.84,8.72-3.08,3.18,4.67,6.08,8.47,6.67,14.37q4.11-5.13,8.21-10.26c6.85,8.76,16.37,28.59-.51,31.82-22.52,4.3-36.1-19.76-31.82-5.13-6.4-2.87-18.24-9.5-20.53-16.42-3.58-10.86,4.35-23.32,15.4-25.66Z"/>
          <path class="cls-1" d="M491.66,744.67c-7.26-3.76-7.42,2.62-8.72,3.08-1.59.56-3.32-2.94-4.11-3.08-9.33-1.64-10.87,2.94-9.75-11.29,11.69-2.48,16.37,2.17,22.58,11.29Z"/>
        </g>
        <g>
          <path class="cls-4" d="M454.71,661.53c-18.44,11.72-4.48,3.97,9.75,6.16,14.59,2.24,21.13,15.45,16.94-4.11,15.54,3.41,30.27,8.53,45.67,12.32,5.6,6.78,15.43,8.46,16.94,9.24,6.51,3.35,12.28,7.47,18.47,11.29,8.6,5.31,19.94,12.28,27.71,18.47,7.12,5.67,17.28,15.74,23.61,22.58,19.76,21.37,38.92,49.19,48.24,76.98-23.35-34.77-53.26-14.37-54.4,23.61-6.62-15.25-3.79-43.4-22.58-50.29-10.48-3.85-14.01-1.13-21.55,6.16-9.93,9.6-8.73,14.23-11.29,26.69-3.08-7.16,2.16-17.86,5.65-24.63-18.29.57-39.19-.39-51.83-15.4,16.88-3.23,7.36-23.06.51-31.82q-4.11,5.13-8.21,10.26c-.59-5.9-3.49-9.7-6.67-14.37-6.21-9.12-10.89-13.77-22.58-11.29-11.05,2.34-18.98,14.8-15.4,25.66-1.21-.17-2.85.27-3.59,0-3.07-1.12-44.47-33.5-52.34-39-6.2-4.33-14.92-8.11-21.04-12.32-2.9-1.99-6.99-3.47-7.7-4.11-11.89-10.78-.53-25.31-8.72-30.79.14-.1-.2-2.54,1.54-3.08.96-.3,11.81.06,20.01-1.03,4.41,21.96,43.9,5.45,34.9-3.08,4.17-.4,8.43-1.74,12.32-2.05,8.51-.68,17.16-1.51,25.66-2.05Z"/>
          <path class="cls-8" d="M533.23,735.43c10.94-2.48,15.11,3.18,21.04,10.78l-33.36.51c.91-3.19,10.13-10.79,12.32-11.29Z"/>
          <path class="cls-8" d="M445.98,700.53c7.46-1.04,13.21,3.09,15.91,9.75-30.12.9-39.28,3.37-15.91-9.75Z"/>
          <path class="cls-38" d="M585.06,787.77c-9.55.47-13.66-2.42-12.32,5.13-4.75.23-4.89,5.43-9.24,1.03,7.54-7.29,11.07-10,21.55-6.16Z"/>
        </g>
      </g>
      <g>
        <path class="cls-34" d="M171.43,557.87c-.61,22.96.36,45.82,1.03,68.77.26,8.88-.19,17.8,0,26.69-.27.06.13.61-5.13,2.05v-95.45c.28-.1-1.2-2.9,4.11-2.05Z"/>
        <path class="cls-13" d="M205.3,540.42c1.84,18.65-2,24.34-2.05,25.66-14.22,6.58-22.27-6.69-31.82-8.21-5.3-.85-3.83,1.95-4.11,2.05-10.54,3.81-15.96,8.74-26.17,2.05-11.44-7.49-5.53-12.37-1.54-25.66,11.86-39.54,25.8-78.43,31.82-119.57l2.57-2.57c4.63,25.2,30.25,115.63,31.3,126.24Z"/>
      </g>
      <g>
        <path class="cls-35" d="M344.89,40.58c-.82-.27-2.65.27-3.08,0-.1-.06-.89-1.57-1.03-2.05-1.15-3.96.84-28.7,0-37.46,8.04-7.25,2.15,24.42,4.11,39.52Z"/>
        <g>
          <path class="cls-25" d="M264.83,306.41c.74,12.29,2.41,24.69,3.08,36.95.42,7.68,2.85,25.42,2.05,29.76-1.16,6.29-19.4,30.51-23.61,37.98q-6.67-48.24-13.34-96.48c7.06-.66,8.91,2.31,8.21-8.21,4.44-.01,9.17-1.01,13.34-1.03.52,0,3.29,1.78,10.26,1.03Z"/>
          <path class="cls-37" d="M218.64,313.59c3.06,31.87,9.03,63.5,11.29,95.45-4.75-3.74-11.52-8.47-17.45-4.62,6.93,82.1,10.95,164.44,10.26,246.84-5.03-.64-21.38-2.24-25.66-2.05.88-9.24,2.22-18.47,3.08-27.71,1.74-18.58,2.4-36.79,3.08-55.42.05-1.32,3.9-7.01,2.05-25.66,2.95-65.2-6.05-130.43-14.37-195.01-1.33-10.29-2.68-20.52-4.11-30.79,10.43-1.86,21.29-1.03,31.82-1.03Z"/>
          <path class="cls-36" d="M229.93,409.04c.58,8.16.65,16.46,1.03,24.63,3.27,71.85.54,144.16,0,216.05,2.2,2.31,10.53,3.85,19.5,6.67-9.35-.58-18.51-3.95-27.71-5.13.69-82.4-3.34-164.74-10.26-246.84,5.93-3.85,12.7.88,17.45,4.62Z"/>
          <g>
            <path class="cls-31" d="M219.67,252.01c7.83,11.26,16.52,27.3,30.79,47.21l-1.54,1.03c-34.83-46.89-24.1-41.91-8.72,6.16-18.47.05-36.96.6-55.42,0,.04-2.43,1.1-6.62,3.08-8.21-.15,1.16-.95,5.93-.51,6.16l26.17-1.54,1.03-54.4,5.13,3.59Z"/>
            <path class="cls-3" d="M219.67,252.01l-5.13-3.59-1.03,54.4-26.17,1.54c-.44-.23.36-5,.51-6.16.72-5.56,18.24-39.22,22.58-48.24.97-2.01,2.8-3.88,3.08-6.16,2.05,2.77,4.17,5.35,6.16,8.21Z"/>
            <path class="cls-24" d="M250.46,299.22c1.43,2,2.71,4.12,4.11,6.16-4.17.01-8.9,1.01-13.34,1.03-.34,0-.68,0-1.03,0-15.38-48.07-26.1-53.05,8.72-6.16l1.54-1.03Z"/>
            <path class="cls-36" d="M240.2,306.41c.34,0,.68,0,1.03,0,.7,10.52-1.16,7.55-8.21,8.21-4.71.44-9.72-1.02-14.37-1.03-10.53,0-21.38-.83-31.82,1.03-.18-1.31-2.21,1.02-2.05-8.21,18.46.6,36.96.05,55.42,0Z"/>
          </g>
          <path class="cls-32" d="M233.01,314.62q6.67,48.24,13.34,96.48c-4.01,7.12-7.72,15.18-11.29,22.58h-4.11c-.37-8.18-.45-16.47-1.03-24.63-2.26-31.95-8.23-63.58-11.29-95.45,4.65,0,9.66,1.46,14.37,1.03Z"/>
        </g>
        <path class="cls-5" d="M407.5,256.12c1.22,7.25-6.37,97.44-8.21,117.01-.36,0-1.08,1.09-7.18,1.03-1.99-3.44-.37-7.78,0-12.32,3.06-37.28,5.78-74.55,8.21-111.87,5.97,1.19,5.99-.89,7.18,6.16Z"/>
        <g>
          <g>
            <path class="cls-25" d="M460.87,255.09c-2.43,5.52-15.11,102.12-19.5,119.06-3.79-.85-7.4-1.16-11.29-1.03.29-2.49.88-4.64,1.03-7.18,1.42-24.2,5.28-105.15,23.61-110.85.71.03,2.61-2.49,6.16,0Z"/>
            <path class="cls-32" d="M454.71,255.09c-18.33,5.7-22.19,86.64-23.61,110.85-5.33,3.51,2.8,5.76-10.26,6.16,6.52-39.03,3.05-78.68,6.16-118.03,9.39-.06,18.39.68,27.71,1.03Z"/>
            <path class="cls-37" d="M427,254.06c-3.11,39.36.36,79-6.16,118.03-1.75.05-10.63.42-11.29-.51q3.59-58.25,7.18-116.49c.52-.01,1.71-.97,10.26-1.03Z"/>
            <path class="cls-34" d="M416.73,255.09q-3.59,58.25-7.18,116.49c.66.93,9.54.57,11.29.51,13.06-.4,4.93-2.65,10.26-6.16-.15,2.55-.74,4.7-1.03,7.18-10.68.37-20.18.12-30.79,0,1.84-19.57,9.44-109.76,8.21-117.01,4.4-5.28,6.07-.94,9.24-1.03Z"/>
          </g>
          <g>
            <path class="cls-3" d="M435.21,164.77c-3.43,25.56-.43,52.22-5.13,78-9.42-.5-18.93,1.06-28.23-2.05-.88-.96,2.88-8.13,4.62-13.34,1.68-5.05,3.33-10.42,5.13-15.4,6.3-17.43,15.04-34.06,20.53-51.83,2.67-4.25,2.22,2.86,3.08,4.62Z"/>
            <path class="cls-7" d="M440.34,176.06c-2.93,3.62,2.85,28.69,5.13,41.05,1.58,8.57,3.32,17.14,5.13,25.66-7.14-.02-13.2.39-20.53,0,4.7-25.78,1.71-52.44,5.13-78,1.86,3.82,3.44,7.42,5.13,11.29Z"/>
            <path class="cls-22" d="M470.1,243.8c-3.42-.02-6.84.02-10.26,0-5.33-13.07-6.16-30.18-14.37-26.69-2.29-12.36-8.06-37.44-5.13-41.05,4.17,9.53,29.21,64.08,29.76,67.74Z"/>
            <path class="cls-30" d="M459.84,243.8c-3.05-.02-6.58-1.02-9.24-1.03-1.81-8.52-3.55-17.09-5.13-25.66,8.21-3.49,9.04,13.61,14.37,26.69Z"/>
          </g>
        </g>
        <path class="cls-36" d="M436.23,585.58c7.7-1.03,39.26.13,53.37,0,21.89-.2,43.79.15,65.69,0-16.8,4.16-47.99-4.23-44.13,6.16-9.51.26-66.15-.46-69.28,1.03-3.25,1.55-10.02,62.84-12.83,70.82-3.89.31-8.14,1.65-12.32,2.05-5.42.53-10.91.44-16.42,1.03,6.55-11.38-2.47-29.73,2.05-42.59.71-2.03,25.21-32.3,26.69-33.87,3.73-3.97,3.22-4.09,7.18-4.62Z"/>
        <g>
          <g>
            <path class="cls-31" d="M378.76,189.4c4.86,1.23,9.46,0,13.34,1.03,2.6.69,12.87,14.24,15.4,17.45-5.38,5.88-6.03,20.81-8.21,29.76-1.36,1.01-1.72,2.91-2.57,3.08-10.59,2.15-117.62-.88-140.1-1.03,1.17-2.85,34.02-48.32,36.95-49.27,3.27-1.05,15.93-.76,20.53-1.03,2.04-.12,4.11.08,6.16,0,18.07-.74,36.37,1.4,54.4-1.03,2.52,1.15,3.23.81,4.11,1.03Z"/>
            <path class="cls-36" d="M406.47,227.38c-1.73,5.22-5.5,12.38-4.62,13.34,9.3,3.11,18.8,1.55,28.23,2.05,7.33.39,13.38-.02,20.53,0,2.65,0,6.18,1.01,9.24,1.03,3.42.02,6.84-.02,10.26,0,.84,5.56-7.49,7.32-9.24,11.29-3.54-2.49-5.45.03-6.16,0-9.32-.35-18.32-1.09-27.71-1.03-8.55.06-9.75,1.01-10.26,1.03-3.16.09-4.84-4.25-9.24,1.03-1.19-7.05-1.21-4.96-7.18-6.16-7.51-1.5-14.08-.82-21.55-1.03-10.58-.29-21.22.11-31.82,0-11.97-.12-23.95.09-35.92,0-14.28-.11-38.53,1.02-49.27,0-1.59-.15-6.42.55-7.18-.51-.85-3.63.81-5.69,2.05-8.72,22.48.15,129.51,3.18,140.1,1.03.85-.17,1.21-2.07,2.57-3.08,4.14-3.09,2.63-7.89,7.18-10.26Z"/>
            <path class="cls-14" d="M411.6,211.98c-1.8,4.98-3.45,10.34-5.13,15.4-4.56,2.37-3.05,7.18-7.18,10.26,2.18-8.95,2.84-23.88,8.21-29.76,1.16,1.48,2.25,3.36,4.11,4.11Z"/>
          </g>
          <g>
            <path class="cls-18" d="M305.89,152.45v26.17c12.73-6.9,9.29-3.24,8.21,10.78-4.6.27-17.26-.03-20.53,1.03q-.51-18.99-1.03-37.98c4.23.41,9-.15,13.34,0Z"/>
            <path class="cls-28" d="M393.13,151.43q-.51,19.5-1.03,39c-3.89-1.03-8.48.2-13.34-1.03v-36.95c4.55-.26,9.91-.5,14.37-1.03Z"/>
            <path class="cls-12" d="M378.76,152.45v21.55c-21.24-10.7-15.05,9.4-4.11,14.37-18.03,2.43-36.32.29-54.4,1.03,1.33-3.27-2.2-14.14-2.05-14.88,1.56-8.09,41.72-14.33,46.19-22.07,4.77-.14,9.61.27,14.37,0Z"/>
            <path class="cls-32" d="M364.39,152.45c-4.46,7.74-44.63,13.98-46.19,22.07-.14.74,3.38,11.61,2.05,14.88-2.04.08-4.12-.12-6.16,0,1.08-14.02,4.52-17.67-8.21-10.78v-26.17c17.9.61,40.55.54,58.5,0Z"/>
            <path class="cls-30" d="M378.76,174.01v15.4c-.87-.22-1.58.12-4.11-1.03-10.94-4.97-17.14-25.07,4.11-14.37Z"/>
          </g>
          <g>
            <path class="cls-3" d="M341.81,40.58c-1.34-.08-.99.9-1.03,2.05-1.02,29.4,5.39,68.21,3.08,99.56-22.87.15-45.85,1.98-68.77,1.03l-2.05-1.54c19.33-35.02,43.05-67.45,64.66-101.1,1.32-.47,1.76-1.71,3.08-2.05.14.48.93,1.99,1.03,2.05Z"/>
            <path class="cls-36" d="M343.86,142.19c11.39-.07,22.37.27,33.87,0,2.33-.06,4.7.08,7.18,0,5.67-.19,13.22-.64,18.47,1.03-1.62,7.84-4.62,7.54-10.26,8.21-4.46.53-9.82.77-14.37,1.03-4.76.27-9.6-.14-14.37,0-17.96.54-40.6.61-58.5,0-4.34-.15-9.11.41-13.34,0-8.88-.86-11.02-.62-17.45-9.24,22.92.95,45.89-.88,68.77-1.03Z"/>
            <path class="cls-24" d="M344.89,40.58c.96,7.44,5.36,12.99,9.24,20.01,6.4,11.6,49.79,74.07,50.29,79.03.08.74-.63,1.65-1.03,3.59-5.26-1.67-12.81-1.21-18.47-1.03-9.97-24.11-19.12-48.87-31.3-71.85l-1.54,3.08c-3.55-10.25-7.28-20.59-9.24-31.3l-2.05.51c.04-1.15-.31-2.13,1.03-2.05.42.27,2.25-.27,3.08,0Z"/>
            <path class="cls-7" d="M352.07,73.42c7.99,23.1,17.06,45.88,25.66,68.77-11.5.27-22.48-.07-33.87,0,2.31-31.34-4.09-70.16-3.08-99.56l2.05-.51c1.96,10.71,5.69,21.06,9.24,31.3Z"/>
            <path class="cls-22" d="M384.92,142.19c-2.48.08-4.86-.06-7.18,0-8.59-22.88-17.67-45.67-25.66-68.77l1.54-3.08c12.18,22.98,21.33,47.74,31.3,71.85Z"/>
          </g>
          <g>
            <path class="cls-12" d="M378.76,248.93c-.52,2.74-.02,5.53,0,8.21-18.97-9.49-21,3.34-19.5,20.01l17.96.51c2.44-1.61,1.27-3.97,1.54-6.16l3.08-1.54-2.05,100.58c16.42,6.73,6.71-6.37,12.32-8.72-.37,4.53-1.99,8.87,0,12.32-19.86-.21-39.62-1.45-59.53-1.03.56-14.53-3.92-40.37-3.08-52.34.72-10.28,13.29-56.3,17.45-71.85,10.59.11,21.23-.29,31.82,0Z"/>
            <path class="cls-32" d="M346.94,248.93c-4.16,15.55-16.73,61.57-17.45,71.85q-9.24-35.92-18.47-71.85c11.97.09,23.95-.12,35.92,0Z"/>
            <path class="cls-33" d="M316.15,373.12c-.62,0-7.99,2.78-12.32,0,.53-23.15-4.28-26.3,11.8-24.63q.26,12.32.51,24.63Z"/>
            <g>
              <path class="cls-37" d="M311.02,248.93q9.24,35.92,18.47,71.85c-.84,11.98,3.64,37.81,3.08,52.34-5.75.12-10.72.05-16.42,0q-.26-12.32-.51-24.63c-16.09-1.66-11.27,1.48-11.8,24.63,0,.34,0,.68,0,1.03-8.29.72-16.41-.52-24.63-1.03-1.36-24.29,5.84-32.81-11.29-29.76-.67-12.26-2.34-24.66-3.08-36.95-1.15-19.1-.58-38.44-3.08-57.48,10.74,1.02,34.98-.11,49.27,0Z"/>
              <path class="cls-27" d="M284.85,257.14c12.28-1.67,8.64,8.75,8.21,21.55l-14.88-.51c.44-9.03-2.68-16.35,6.67-21.04Z"/>
            </g>
            <path class="cls-33" d="M279.2,373.12c-4.35-.27-7.36.99-9.24,0,.8-4.34-1.63-22.09-2.05-29.76,17.13-3.04,9.94,5.47,11.29,29.76Z"/>
            <path class="cls-25" d="M400.31,249.96c-2.43,37.32-5.15,74.6-8.21,111.87-5.6,2.36,4.11,15.45-12.32,8.72l2.05-100.58-3.08,1.54c.46-3.65.03-10.06,0-14.37-.02-2.68-.52-5.47,0-8.21,7.47.21,14.04-.48,21.55,1.03Z"/>
            <path class="cls-11" d="M378.76,257.14c.03,4.31.46,10.72,0,14.37-.27,2.19.9,4.55-1.54,6.16l-17.96-.51c-1.5-16.68.53-29.51,19.5-20.01Z"/>
          </g>
        </g>
        <g>
          <g>
            <path class="cls-31" d="M316.15,373.12c5.7.05,10.67.12,16.42,0,19.91-.42,39.67.82,59.53,1.03,6.1.06,6.82-1.03,7.18-1.03,10.61.12,20.11.37,30.79,0,3.89-.13,7.5.18,11.29,1.03-.18,2,1.56,3.41,2.05,5.13,2.66,9.38,12.33,25.88,17.45,34.9,1.06,6.09,4.62,12.26,5.13,18.47-2.95.72-5.5.02-8.21,0-51.33-.42-102.63.78-153.96,1.03.29-19.83-.4-39.7,0-59.53,0-.34,0-.68,0-1.03,4.33,2.78,11.7,0,12.32,0Z"/>
            <path class="cls-3" d="M279.2,373.12c8.22.51,16.34,1.74,24.63,1.03-.4,19.83.29,39.7,0,59.53-22.92.11-45.85-.08-68.77,0,3.57-7.4,7.28-15.46,11.29-22.58,4.21-7.46,22.45-31.68,23.61-37.98,1.88.99,4.89-.27,9.24,0Z"/>
            <path class="cls-33" d="M466,432.65c.32,3.86-2.69,6.33-7.18,8.21-1.68.7-.71,1.83-1.54,2.05-8.16,2.17-147.52,1.18-168.84,1.03-7.09-.05-52.67.56-54.91-1.03-1.21-.86-.17-7.33-.51-9.24h2.05c27.95-1.04,211.72,4.68,222.21,1.03.79-.27.52-1.34.51-2.05,2.71.02,5.26.72,8.21,0Z"/>
            <path class="cls-11" d="M457.79,432.65c0,.71.27,1.78-.51,2.05-10.49,3.65-194.26-2.06-222.21-1.03,22.92-.08,45.85.11,68.77,0,51.33-.25,102.62-1.44,153.96-1.03Z"/>
          </g>
          <g>
            <path class="cls-37" d="M233.01,433.68c.34,1.91-.7,8.38.51,9.24,2.24,1.59,47.82.97,54.91,1.03,1.71,42.88,5.12,85.8,11.29,128.3-14.26,26.39-5.67,53.74-7.18,81.08-.04.67-3.61.97-2.05,12.32-1.98-.45-5.24.46-7.18,0-10.88-2.59-22.16-5.87-32.84-9.24-8.97-2.82-17.31-4.37-19.5-6.67.54-71.89,3.27-144.2,0-216.05h2.05Z"/>
            <path class="cls-27" d="M254.05,502.44c17.39-2.9,13.98,5.6,11.29,21.55-17.56,3.24-13.82-7.85-11.29-21.55Z"/>
            <path class="cls-33" d="M247.9,456.26q6.41.26,12.83.51-.26,10.01-.51,20.01c-16.37,1.26-13.19-.38-12.32-20.53Z"/>
            <path class="cls-33" d="M255.08,570.18c15.45-1.17,12.07-.45,11.29,20.53-15.45,1.17-12.07.45-11.29-20.53Z"/>
          </g>
          <path class="cls-29" d="M457.79,544.52c-7.47,13.49-15.62,26.78-21.55,41.05-3.97.53-3.46.65-7.18,4.62-1.48,1.57-25.97,31.84-26.69,33.87-4.52,12.86,4.5,31.22-2.05,42.59-1.93.2-4.3-.21-6.16,0-.17-4.09.24-8.24,0-12.32-1.34-23.22,2.18-51.25-6.16-72.87q34.38-35.41,68.77-70.82c-.39,11.11-.56,22.83,1.03,33.87Z"/>
          <g>
            <path class="cls-28" d="M388,581.47c8.33,21.62,4.82,49.65,6.16,72.87-7.24,2.84-17.12,0-18.47,0,7.32-28.94,1.58-94.51-42.08-85.19-39.49,8.43-21.01,77.1-25.66,83.65-.93,1.31-12.85.09-15.4.51,1.52-27.34-7.08-54.7,7.18-81.08,20.5-37.93,72.3-32.19,88.27,9.24Z"/>
            <g>
              <path class="cls-33" d="M375.68,654.35c-.54,0,2.12,3.75-9.24,1.54,4.67-22.18,3.75-48.94-10.26-67.74-9.17-12.31-20.04-13.21-22.58-18.99,43.66-9.32,49.4,56.24,42.08,85.19Z"/>
              <g>
                <path class="cls-10" d="M333.6,569.16c2.54,5.78,13.41,6.68,22.58,18.99,14.01,18.8,14.93,45.56,10.26,67.74,11.35,2.21,8.69-1.54,9.24-1.54,1.35,0,11.23,2.84,18.47,0,.24,4.08-.17,8.23,0,12.32-4.01.44-8.27,1.52-12.32,2.05-8.21,1.09-19.06.73-20.01,1.03-1.74.54-1.4,2.98-1.54,3.08-16.47,11.93-10.46,3-14.88,2.05-1.73-.37-1.99,2.62-5.65,2.05-15.65-2.45-33.74-7.75-49.27-11.29-1.56-11.34,2.02-11.65,2.05-12.32,2.55-.43,14.47.79,15.4-.51,4.64-6.55-13.83-75.22,25.66-83.65Z"/>
                <g>
                  <path class="cls-34" d="M323.85,595.84h5.13c15.72,29.99-20.86,29.93-5.13,0Z"/>
                  <path class="cls-9" d="M349.51,612.26h7.18c17.59,22.5-16.41,15.76-7.18,0Z"/>
                  <path class="cls-9" d="M326.93,627.66l4.62,1.54c3.25,18.46-16.3,8.34-4.62-1.54Z"/>
                  <path class="cls-9" d="M354.64,629.71c8.65-.76,14.53,8.18-4.11,5.13-4.03-2.76,1.34-4.89,4.11-5.13Z"/>
                  <path class="cls-11" d="M322.82,639.98c15.79-1,16.85,5.66,0,4.11v-4.11Z"/>
                  <path class="cls-21" d="M361.82,636.9c5.21,6.5-15,6.49-8.21,2.05l8.21-2.05Z"/>
                </g>
              </g>
            </g>
          </g>
          <g>
            <path class="cls-15" d="M456.76,510.65q-34.38,35.41-68.77,70.82c-15.97-41.43-67.77-47.17-88.27-9.24-6.17-42.5-9.58-85.42-11.29-128.3,21.32.16,160.68,1.14,168.84-1.03.83-.22-.14-1.35,1.54-2.05-.45,2.29,1.94,2.44,2.05,4.62.72,13.91-3.49,47.81-4.11,65.17Z"/>
            <path class="cls-34" d="M358.74,445.99c17.24-4.25,16.09,9.97,14.37,22.58l-21.04-1.54c-.03-6.02-1.58-19.01,6.67-21.04Z"/>
            <path class="cls-33" d="M430.59,448.05c14.56-2.05,13.93,24.27,3.08,25.66-13.38,1.71-15.29-21.32-3.08-25.66Z"/>
          </g>
        </g>
        <g>
          <g>
            <path class="cls-25" d="M550.16,591.74l12.32,104.69c-6.19-3.82-11.96-7.94-18.47-11.29-2.42-21.57.74-46.21-1.03-67.23-.08-.93-3.06-.36-3.08-.51-.59-5.83.43-12.52,0-18.47-.14-1.97-1.64-3.92-1.03-7.18,3.61-.17,7.97.43,11.29,0Z"/>
            <path class="cls-9" d="M539.9,598.92c.43,5.95-.59,12.65,0,18.47q-9.49.51-18.99,1.03c-5.58-19.32.2-26.25,18.99-19.5Z"/>
            <g>
              <path class="cls-12" d="M538.87,591.74c-.61,3.27.88,5.22,1.03,7.18-18.79-6.75-24.57.18-18.99,19.5q9.49-.51,18.99-1.03c.02.16,3-.41,3.08.51,1.76,21.02-1.39,45.65,1.03,67.23-1.5-.77-11.34-2.45-16.94-9.24-15.4-3.78-30.13-8.9-45.67-12.32-.2-.04.4-2.52-2.57-3.08-7.03-1.32-17.11.58-24.12,1.03-8.49.54-17.15,1.37-25.66,2.05,2.81-7.98,9.58-69.27,12.83-70.82,3.13-1.49,59.77-.77,69.28-1.03,9.21-.25,18.52.44,27.71,0Z"/>
              <path class="cls-9" d="M458.3,594.82c17.4-1.06,14.3-.42,13.34,20.53-19.46,3.28-21.52-5.57-13.34-20.53Z"/>
            </g>
          </g>
          <path class="cls-16" d="M558.37,585.58c2.12,6.84-1.92,5.34-8.21,6.16-3.32.43-7.68-.17-11.29,0-9.19.44-18.5-.25-27.71,0-3.86-10.39,27.34-1.99,44.13-6.16h3.08Z"/>
          <g>
            <path class="cls-7" d="M516.29,526.05c6.24,8.14,40.48,54.37,42.08,59.53h-3.08c-21.89.15-43.8-.2-65.69,0-.07-.66.15-1.51,0-2.05h18.99c4.36-1.8-7.77-69.86-11.8-79.03l1.03-1.03c6.21,7.48,12.56,14.86,18.47,22.58Z"/>
            <path class="cls-3" d="M497.82,503.47l-1.03,1.03c-.99-2.25-5.18-6.79-7.18-8.72,2.12,20.75-3.99,73.03,0,87.75.15.54-.07,1.39,0,2.05-14.11.13-45.67-1.03-53.37,0,5.93-14.27,14.09-27.57,21.55-41.05,4.96-8.96,9.18-18.99,14.37-27.71.23-.38.29.67,5.13-7.18,3.75-6.09,8.18-11.7,10.78-18.47,1.85-.44,8.4,10.69,9.75,12.32Z"/>
            <path class="cls-31" d="M496.79,504.5c4.03,9.17,16.16,77.24,11.8,79.03h-18.99c-3.99-14.73,2.12-67,0-87.75,2,1.94,6.19,6.47,7.18,8.72Z"/>
          </g>
        </g>
      </g>
    </g>
  </g>
</svg>