<?xml version="1.0" encoding="UTF-8"?>
<svg id="Lag_2" data-name="Lag 2" xmlns="http://www.w3.org/2000/svg" viewBox="0 0 350.52 314.02">
  <defs>
    <style>
      .cls-1 {
        fill: #810710;
      }

      .cls-1, .cls-2, .cls-3, .cls-4, .cls-5, .cls-6, .cls-7, .cls-8, .cls-9, .cls-10 {
        stroke-width: 0px;
      }

      .cls-2 {
        fill: #420807;
      }

      .cls-3 {
        fill: #f7adad;
      }

      .cls-4 {
        fill: #da1721;
      }

      .cls-5 {
        fill: #f3e5e3;
      }

      .cls-6 {
        fill: #c0b5b1;
      }

      .cls-7 {
        fill: #a78386;
      }

      .cls-8 {
        fill: #a80812;
      }

      .cls-9 {
        fill: #580606;
      }

      .cls-10 {
        fill: #9eb4b6;
      }
    </style>
  </defs>
  <g id="Lag_1-2" data-name="Lag 1">
    <g>
      <g>
        <path class="cls-5" d="M2.65,102c.06,12.29,1.63,22.69,5,34.5,2.22,7.76,5.58,15.2,9,22.5,6.4,13.67,14.12,24.62,24,36,7.74,8.92,16.36,17.46,25,25.5-23.99-16.9-45.63-45.16-56.5-72.5-1.62-9.57-9.38-19.51-7.5-43.75.01-.19-2.73-.5,1-2.25Z"/>
        <path class="cls-6" d="M227.65,6.5c-3.59,1.83-7.07,3.89-10.5,6-1.16.71-2.31,1.18-3.5,2-2.95-1.44,6.49-5.76,9-9.25.03-.04-.65-.44-.5-.75.03-.06,1.26.4,1-1,1.64.63,3.45,1.51,4.5,3Z"/>
      </g>
      <g>
        <path class="cls-10" d="M87.15,0c-.48.26-1.27.52-1.5,1C38.97,2.61,7.83,43.15,3.15,87c-2.08,2.88-1.47,18.57-3,10-.71-4,1.37-20.07,2.5-24.75,2.79-11.52,9.03-22.59,14-33.25,14.2-18.28,10.42-16.75,29.5-29.5,1.49.97,4.5-2.27,6.75-3,.83-.27,1.81.88,3,.5,3.33-1.07,9.13-4,13.5-5,5.68-1.29,11.92-1.78,17.75-2Z"/>
        <g>
          <path class="cls-9" d="M280.15,2c22.7,5.72,47.16,28.08,58,48.5,15.93,30.01,15.42,61.01,4.5,92.5-.56,1.61-.88,3.42-1.5,5-25.88,65.48-92.84,98.36-140.75,140.5-9.83,8.64-19.36,20.08-23.25,23.5-.72.64-1.32,2.2-2.25,2-.16-.03-.91-1.15-2.25-2.5-.78-.79-3.63-5.15-5.5-7,2.19-2-1.98-7.68-2.5-11.75-.68-5.33.2-29.29,1-35.5,4.81-37.53,35.6-73.95,61.75-99.75,22.06-21.76,59.92-48.2,67.25-79.5.8-3.44,1.11-7.01,1.5-10.5,1.79,11.19,9.31,20.52,12.5,31.25,3.85,12.94,1.68,35.69,16.25,34.25,20.3-2.01,12.66-54.22-6.25-80.75-2.53-3.54-11.5-13.87-11.5-11.25.44-13.02-11.2-25.52-21.5-32-5.68-3.57-5.64-3.13-11.5-5-4.01-1.28-7.99-2.25-12-3.5,7.54-.12,10.42-.41,18,1.5Z"/>
          <path class="cls-7" d="M296.15,67.5c.02-.16-.02-.34,0-.5.21-1.96-.84-3.5-.5-5.25.3-1.54,11.16-10.61,11.5-20.75,0-2.62,8.97,7.71,11.5,11.25,18.91,26.53,26.55,78.74,6.25,80.75-14.57,1.44-12.4-21.31-16.25-34.25-3.19-10.73-10.71-20.06-12.5-31.25Z"/>
        </g>
        <g>
          <path class="cls-4" d="M85.65,1c.83-.03,1.67,0,2.5,0,1.4,2.53,18.82-.14,15.75,4.5-10.77-2.41-26.47-2.77-33.75,6.75,13.02,21.19,35.43,15.85,9.25,18.75C43.85,40.3,11.95,79.31,15.65,116.75c.26,2.6,1.88,8.7,4,10.5-2.07,1.95-1.86-3.07-7.5-1.5-.14,9.81,2.64,19.25,3.5,29-3.44-5.28-4.54-14.03-8-18.25-3.37-11.81-4.94-22.21-5-34.5-.02-4.91-.02-10.12.5-15C7.83,43.15,38.97,2.61,85.65,1Z"/>
          <path class="cls-8" d="M296.15,67c-.02.16.02.34,0,.5-.39,3.49-.7,7.06-1.5,10.5-8.14,3.75-9.08,14.34-12.25,12.5-32.42,35.97-70.84,66.16-102.5,103-7.16,3.76-3.76,4.73-5.25,8.25-3.94,9.33-7.73,8.19-3,.5-4.04-7.05-14.91,1.56-20.75,5.75-10.61,7.62-19.26,18-29.5,26-3.18,2.48-19.2,13.86-22,13.5-.47-.06-3.01-1.63-3.75-2-3.88-1.94-25.32-20.64-30-25-8.64-8.04-17.26-16.58-25-25.5,4.54,1.75,7.56,5.45,9.75,9.5,4.39-5.55-10.59-9-16.25-27.75l.75-1.75c32.51-.2,50.62-7.89,84.5-10.5.89-.07,4.73-1.46,5.5-1.5,10.99-.56,21.99,1.47,33,.5,12.78-3.18,25.68-8,39-6,2.59-6.27,9.95-7.68,15-11.5,34.32-26.01,48.72-59.07,70-77,16.21-13.65,6.3,1.61,9.5,3,5.93-1.27,2.48-4.82,4.75-5Z"/>
          <path class="cls-8" d="M307.15,41c-.34,10.14-11.2,19.21-11.5,20.75-.34,1.75.71,3.29.5,5.25-2.27.18,1.18,3.73-4.75,5-3.2-1.39,6.71-16.65-9.5-3-21.28,17.93-35.68,50.99-70,77-5.05,3.82-12.41,5.23-15,11.5-13.32-2-26.22,2.82-39,6-11.01.97-22.01-1.06-33-.5-.77.04-4.61,1.43-5.5,1.5-33.88,2.61-51.99,10.3-84.5,10.5l-.75,1.75c5.66,18.75,20.64,22.2,16.25,27.75-2.19-4.05-5.21-7.75-9.75-9.5-9.88-11.38-17.6-22.33-24-36-.31-1.43,9.51-6.86,10.25-7,13.13-2.5,36.24,5.93,77.5-14,3.02-1.46,11.18-7.66,14-8.5,2.32-.69,5.64.11,6,0,1.28-.38,4.86-7.35,5.5-7.5.81-.19,6.8,3.46,8.5,3.5,6.94-18.62,5.57-3.26,8-2,1.49.77,29.07-3.04,30.5-2.5.29.11,1.26,2.99,3,3,.38,0,4.75-2.72,6-3,4.9-1.1,10.17-.81,15-2,5.58-1.38,22.91-9.3,31-11.5,18.92-17.29,34.86-37.87,52.75-56.25,6.49-6.67,8.43-3.64,16.5-17,1.09-1.81,5.75-1.54.25-8.75-5.6-1.3-7.41,5.32-7.75,5.75-.29.36-2.74.99-3,1.5-.99,1.94.55,1.88.5,2-.25.57-1.61-.08-2,.5-.11.17.78,2.77.5,3.5-.22.58-3.37,1.79-5,11l-2-.5c7.22-17.06-1.13-24.49-.5-27.5.25-1.2,7.28-6,3.5-12.75,10.3,6.48,21.94,18.98,21.5,32Z"/>
          <path class="cls-8" d="M294.65,78c-7.33,31.3-45.19,57.74-67.25,79.5-26.15,25.8-56.94,62.22-61.75,99.75-.8,6.21-1.68,30.17-1,35.5.52,4.07,4.69,9.75,2.5,11.75-21.95-21.77-48.37-38.57-71.5-59,.74.37,3.28,1.94,3.75,2,2.8.36,18.82-11.02,22-13.5,10.24-8,18.89-18.38,29.5-26,5.84-4.19,16.71-12.8,20.75-5.75-4.73,7.69-.94,8.83,3-.5,1.49-3.52-1.91-4.49,5.25-8.25,31.66-36.84,70.08-67.03,102.5-103,3.17,1.84,4.11-8.75,12.25-12.5Z"/>
          <path class="cls-4" d="M262.15.5c4.01,1.25,7.99,2.22,12,3.5,1.79,2.31-3.28,1.87-5.75,3.5-10.9,7.18-4.54,21.54-6.5,22.5-.48.23-5.5,0-10.5,1.5-34.12,10.26-52.91,47.35-70.5,75.5l-1.25-.75c-2.01-4.78,8.25-35.84,4-43.75,5.84-13.43,24.27-37.48,33.5-50,3.43-2.11,6.91-4.17,10.5-6,2.03-1.03,4.4-1.39,6.5-2.5,2.14-.13,5.18-1.51,9.5-2,7.09-.8,11.09-1.39,18.5-1.5Z"/>
          <g>
            <path class="cls-4" d="M121.65,8.5c2.45,1.06,4.63,2.31,7,3.5,1.54,2.76,3.87,4.35,6,7,1.82,2.27,7.98,9.22,3.75,11.5-12.8,3.4-14.57-6.6-15.5-6.5-14.68,17.05-8.33,11.91,2,20,3.16,2.47,12.17,12.93,14.75,16.5,9.21,12.76,20.17,38.22,28.5,53.25,1.44,2.69,3.85-9.76,5.5-15.75,2.64-9.61,6.71-27.92,10-35.5,4.25,7.91-6.01,38.97-4,43.75l1.25.75c17.59-28.15,36.38-65.24,70.5-75.5,5-1.5,10.02-1.27,10.5-1.5,1.96-.96-4.4-15.32,6.5-22.5,2.47-1.63,7.54-1.19,5.75-3.5,5.86,1.87,5.82,1.43,11.5,5,3.78,6.75-3.25,11.55-3.5,12.75-.63,3.01,7.72,10.44.5,27.5l2,.5c1.63-9.21,4.78-10.42,5-11,.28-.73-.61-3.33-.5-3.5.39-.58,1.75.07,2-.5.05-.12-1.49-.06-.5-2,.26-.51,2.71-1.14,3-1.5.34-.43,2.15-7.05,7.75-5.75,5.5,7.21.84,6.94-.25,8.75-8.07,13.36-10.01,10.33-16.5,17-17.89,18.38-33.83,38.96-52.75,56.25-8.09,2.2-25.42,10.12-31,11.5-4.83,1.19-10.1.9-15,2-1.25.28-5.62,3-6,3-1.74-.01-2.71-2.89-3-3-1.43-.54-29.01,3.27-30.5,2.5-2.43-1.26-1.06-16.62-8,2-1.7-.04-7.69-3.69-8.5-3.5-.64.15-4.22,7.12-5.5,7.5-.36.11-3.68-.69-6,0-2.82.84-10.98,7.04-14,8.5-41.26,19.93-64.37,11.5-77.5,14-.74.14-10.56,5.57-10.25,7-3.42-7.3-6.78-14.74-9-22.5,3.46,4.22,4.56,12.97,8,18.25-.86-9.75-3.64-19.19-3.5-29,5.64-1.57,5.43,3.45,7.5,1.5-2.12-1.8-3.74-7.9-4-10.5-3.69-37.44,28.21-76.45,63.75-85.75,26.18-2.9,3.77,2.44-9.25-18.75,7.28-9.52,22.98-9.16,33.75-6.75,3.07-4.64-14.35-1.97-15.75-4.5,11.94-.02,22.64,2.81,33.5,7.5Z"/>
            <path class="cls-3" d="M99.15,36.5c.47,5.7-17.02,15.7-25.75,24-14.87,14.12-20.16,25.31-26.25,44.5-3.45,10.86-4.13,37.31-22.75,26-7.55-4.59-8.09-15.82-7.75-23.75,1.44-33.81,32.97-70.56,66.75-75.75,5.22-.8,15.51-2.79,15.75,5Z"/>
            <path class="cls-3" d="M258.4,31c2.77-.21,6.38-.6,8.25,1.75,6.51,13.06-7.08,8.86-25.25,25.75-19,17.66-32.93,50.8-57,55l-2.75-3.25c-.67-3.7,18.99-33.65,22.5-38.5,12.04-16.65,32.33-39.11,54.25-40.75Z"/>
            <path class="cls-4" d="M47.15,105c6.09-19.19,11.38-30.38,26.25-44.5,8.73-8.3,26.22-18.3,25.75-24,13.83-3.2,13.76,12.13,8,20.75-7.74,11.59-24.67,13.7-35.25,20.75-1.65,1.1-13.88,11.87-14.25,12.75-.95,2.29-1.46,14.88-2.75,19.25-4-2.43,3.68-7.74-1.75-8.75l-1.25,2.75c-3.37-2.19,4.1-5.29,1.5-8-5.35,6.25-1.27,9.01-6.25,9Z"/>
          </g>
          <path class="cls-9" d="M166.65,49c2.56,6.44,3.65,20.47,5.5,28.25l1.75.75c4.86-6.47,5.51-5.4,5.75-5.75.31-.45.71-5.14,3-10.5,2.45-5.72,7.87-9.4,2.5-16.25,7.54-8.62,11.78-19.48,28.5-31,1.19-.82,2.34-1.29,3.5-2-9.23,12.52-27.66,36.57-33.5,50-3.29,7.58-7.36,25.89-10,35.5-1.96-.6-3.47,13.7-4.5,11.25,1.02-15-5.92-49.37-12.5-62-.2-.38-1.36-1.98-2-1.75-2.13-4.59-15.15-22.26-20-26.5-2.13-2.65-4.46-4.24-6-7,6.67,3.35,14.13,7.05,19.75,12,4.88,4.29,15.91,19.13,18.25,25Z"/>
          <path class="cls-1" d="M173.65,98c-1.65,5.99-4.06,18.44-5.5,15.75-8.33-15.03-19.29-40.49-28.5-53.25,1.68-3.22,16.31-11.06,16.5-12.25.08-.49-.85-1.35-1.5-2.75.64-.23,1.8,1.37,2,1.75,6.58,12.63,13.52,47,12.5,62,1.03,2.45,2.54-11.85,4.5-11.25Z"/>
          <path class="cls-8" d="M154.65,45.5c.65,1.4,1.58,2.26,1.5,2.75-.19,1.19-14.82,9.03-16.5,12.25-2.58-3.57-11.59-14.03-14.75-16.5-10.33-8.09-16.68-2.95-2-20,.93-.1,2.7,9.9,15.5,6.5,4.23-2.28-1.93-9.23-3.75-11.5,4.85,4.24,17.87,21.91,20,26.5Z"/>
        </g>
        <path class="cls-2" d="M166.65,49c3.58-.36,14.31.49,15.75,0,.21-.07,2.24-2.92,2.75-3.5,5.37,6.85-.05,10.53-2.5,16.25-2.29,5.36-2.69,10.05-3,10.5-.24.35-.89-.72-5.75,5.75l-1.75-.75c-1.85-7.78-2.94-21.81-5.5-28.25Z"/>
      </g>
    </g>
  </g>
</svg>