<?xml version="1.0" encoding="UTF-8"?>
<svg id="Lag_2" data-name="Lag 2" xmlns="http://www.w3.org/2000/svg" viewBox="0 0 426.31 468.23">
  <defs>
    <style>
      .cls-1 {
        fill: #000;
        stroke-width: 0px;
      }
    </style>
  </defs>
  <g id="Lag_2-2" data-name="Lag 2">
    <path class="cls-1" d="M40.31,53.12c.09.34.34.64,3,2,2.2,1.12,2.59,1.2,4,2,1.02.58,1.94,1.1,3,2,.62.52.71.68,2,2,2.32,2.36,2.38,2.2,3,3,1.12,1.43,1.58,2.78,2,4,.8,2.33.95,4.28,1,5,.42,6.43.01,26.57,0,33-.02,9.18.75,18.2,1,21,.4,4.39.9,8.55,1,15,.01.65,0,.89,0,9,0,7.07-.01,10.61,0,11,.22,6.92.82,7.77,1,15,.07,2.81.04,5.14,0,8-.11,8.7-.5,9.07,0,12,.38,2.23.99,4.32,1,7,0,.11,0,.23,0,4,0,.67,0,1.33,0,2v7c.21,3.54.85,5.54,0,6-.16.09-.24.04-1,0-.54-.03-1.36-.02-3,0-2.29.03-2.34.16-3,0-.99-.25-1.66-.75-2-1-1.93-1.43-4.13-2.49-6-4-6.34-5.12-34.39-17.15-33-22,.11-.4.34-.43,3-2,4.85-2.85,4.74-3.11,8-5,7.33-4.26,12.97-5.93,14-9,.05-.16.53-1.58,0-2-.24-.19-.46-.01-2,0h-2c-2.28,0-4,1-4,1-.85.49-1.23.97-2,1-.07,0-.12,0-1,0h-1c-2.88,0-2.96,0-3,0-1.97,0-4.72,1.43-6,2-3.68,1.65-4.1.34-11,2-4.16,1-6.26,1.54-7,3-.86,1.7.03,3.76,3,9,3.64,6.41,5.46,9.62,8,13,3.06,4.07,6,7.97,11,12,2.04,1.64,4.85,3.91,9,6,2.41,1.21,3.45,1.45,6,3,3.45,2.1,3.49,2.84,6,4,2.79,1.29,3.23.58,7,2,1.48.55,2.98,1.37,6,3,5.16,2.79,5.69,3.49,6,4,.72,1.2.82,2.8,1,6,.1,1.74.03,2.23,0,6v41c.07,3.1.14,4.02,0,6-.24,3.41-.75,4.63-1,8-.2,2.7-.05,4.41,0,6,.11,3.43.33,9.86-2,16-.47,1.24-3.36,8.57-10,13-4.56,3.04-6.84,4.56-9,5-.81.16-2.74.48-4,2-.25.3-1.15,1.48-1,3,.03.29.15,1.53,1,2,.53.29,1.01.12,2,0t3,0h12c8.01,0,16.87.61,31,1,18.16.5,19.54-.05,27,1,9.41,1.33,14.12,1.99,17,3,4.21,1.47,7.76,3.34,9,2,.93-1.01.32-3.59-1-5-.81-.87-1.53-.92-4-2,0,0-1.96-.86-4-2-.55-.31-7.12-4.09-8-10-.02-.14,0-.05,0-6,0,0,0-.29,0-4,0-8.19-1-81.69-1-89,0-2.74.14-3.08,0-5-.19-2.61-.54-3.3,0-4,.82-1.07,2.4-.43,6-1,.94-.15,1.08-.23,4-1,4.88-1.29,6.07-1.47,8-2,2.83-.77,3.02-1.13,10-4,6.65-2.74,9.45-3.64,14-6,2.42-1.25,4.18-2.32,6-4,2.23-2.05,2.41-3.06,3-3,1.55.15,2.84,7.18,3,41t0,25v19c.06,7.3.14,9.44,0,14-.05,1.53-.13,3.55-1,15-1.12,14.66-1.37,16.43-2,19-.97,3.94-2.04,8.16-5,13-3.09,5.06-5.43,8.88-10,11-2.35,1.09-5.11,1.65-6,4-.73,1.93-.06,3.85,0,4,.07.17.91,2.19,3,3,1.71.67,3.37.18,4,0,1-.28,5.99-.89,16-1,4.15-.05,6.83-.08,10,0,10.32.25,49.79,2.2,58,5,.44.15,1.89.68,3,0,1.4-.86,1.92-3.43,1-5-.82-1.4-2.5-1.52-4-2-3.16-1.01-4.81-3.4-8-8-6.16-8.89-7.78-18.59-8-20-.6-3.81-.21-4.12,0-17v-45c.43-15.13.25-27.43,0-36-.38-12.82-.9-16.51-1-30,0-1.29,0-.63,0-24v-13c-.28-1.05-.79-2.65,0-4,.41-.71,1.17-1.32,6-3,2.15-.75,3-1,3-1,10.64-3.15,10.84-3.8,14-4,3.27-.2,3.6.46,7,0,2.07-.28,3.17-.69,4,0,.91.76.52,2.01,1,5,.29,1.83.66,2.77,1,4,2.4,8.81,5,28,5,28,2.62,19.34,2.96,15.79,5,32,2.62,20.84.93,17.78,3,29,1.19,6.41,2.45,11.28,1,12-2.97,1.47-13.12-16.4-16-15-1.72.84.93,7.68,4,25,1.06,5.99.66,4.71,3,19,.56,3.43,1.65,10.02,3,18,1.46,8.65,1.58,9.17,2,12,1.38,9.33,1.06,9.61,2,16,1.2,8.18,2.13,8.51,4,19,.94,5.27.67,5,2,14,1.49,10.11,2.17,12.79,4,24,1.57,9.67,2.33,14.51,3,20,0,0,1.5,12.33,3,21,.71,4.08.84,3.22,1,5,.17,1.88.08,3.56,1,4,.31.15.71.14,1,0,1.36-.62,1.07-3.99,1-5-.7-10,1.41-20,2-30,0-.11.34-4.08,1-12,1.95-23.32,1.91-22.61,2-24,.39-5.97.27-6.55,1-31,.36-12.1.37-19.78,2-20,1-.14,2.32,2.56,4,6,1.6,3.27,1.54,4.19,3,7,1.85,3.55,2.29,2.74,4,6,2.03,3.87,2.17,6.44,5,9,1.31,1.19,1.8,1.1,2,1,.69-.36.22-2.23,0-5-.16-1.99,0-4,0-6v-94c0-6.33,1.28-12.8,0-19-.08-.39-.39-1.82,0-2,.65-.3,2.81,2.98,4,5,1.92,3.26,2.6,5.47,4,9,1.22,3.06,2.16,5.09,4,9,3.73,7.95,5.76,12.28,7,12,.45-.1,1.09-.88,1-11-.07-8.29-.56-15.14-1-21-.51-6.81-.76-10.21-1-13-.98-11.42-1.32-12.32-2-21-.61-7.83-.28-6.44-1-16-.56-7.47-.99-11.41-1-16,0-.63,0-7.13,0-9v-2q0-1,0-1c.03-.19.13-.56,0-1h0c-.78-6.49-.97-11.53-1-15,0-.12,0-.05,0-8v-81c0-4.67.45-9.36,0-14-.28-2.83-.18-4.55,0-8,.18-3.36.46-4.23,1-5,1.03-1.46,3.04-2,7-3,5.06-1.28,7.58-1.92,8-2,9.21-1.74,13.81-2.61,16-1,1.66,1.22,2.13,3.83,3,9,1.64,9.74.38,14.51,2,22,.11.51.53,2.39,1,5,.45,2.48.82,4.58,1,7,.2,2.69.06,4.5,0,6-.08,2.08.01,2.63,1,14,.79,9.14.93,11.1,1,14,.09,3.81-.08,3.3,0,7,.16,7.6.89,9.87,1.11,16.6.1,2.96-.05,2.3-.11,9.4-.1,11.53-.14,17.3,0,22,.21,6.92.52,9.06-1,12-1.21,2.34-2.27,2.64-5,7-2.73,4.36-2.68,5.68-4,6-1.81.44-4.57-2.7-10-9-2.31-2.68-5.12-5-7-8-.92-1.47-1.93-3.37-4-4-.9-.28-1.94-.18-4,0-2.44.22-3.66.34-4,1-.43.83.57,1.9,2,4,1.42,2.08.2.67,5,9,1.48,2.56,2.21,3.76,3,5,.92,1.44,1.62,2.44,2,3,5.4,7.87,8.1,11.81,9,14,.58,1.42,1.28,3.44,3,4,.6.2.87.07,3,0,2.37-.07,2.67.07,4,0,1.74-.09,2.83-.42,5-1,5.68-1.52,5.08-1.12,8-2,3.34-1.01,5.76-2.04,8-3,18.99-8.15,22.1-10.4,24-12,1.25-1.05.39-.48,6-6,1.75-1.72,2.6-2.53,3-4,.28-1.02.07-1.34,0-5v-13c0-3.65.38-6.67,1-13,.53-5.46.36-4.35,1-11,.5-5.16.55-5.26,1-10,.46-4.79.46-5.19,1-11,.55-5.92.83-8.88,1-10,.95-6.36,1.76-7.19,2-12t0-7v-8s0,4.84,0-3c0-.85,0-.95,0-1-.03-2.39-3-5-3-5-9.62-8.45-15.93-20.05-24-30-6.08-7.5-9.12-11.24-11-14-3.34-4.9-7.56-9.17-11-14-.2-.29-.84-1.2-2-2-.33-.23-.86-.56-2-1-2.4-.93-4.22-1.63-6-1-.02,0,0,0-2,1-.9.45-1.89.94-2,1-2.14,1.07-5.27,1.82-6,2-.5.12-3.01,1.08-8,3-4.63,1.77-9.57,2.77-14,5-.89.45-3.34,1.72-4,1-.26-.28-.1-.69,0-2,.07-1,0-2,0-3v-11c0-2.67-.81-5.46,0-8,.05-.16.25-.77,0-1-.39-.35-1.43.61-3,1-1.22.3-2.15.12-3,0,0,0-2.67,0-8,0-12.38,0-13.76.21-19,0-7.89-.32-6.48-.87-13-1-9.18-.18-11.39.93-16,0-2.96-.6-6.15,0-9-1-.14-.05-.69-.25-1,0-.37.31-.13,1.07,0,2v8c.01,5.13,2.86,16.3,5,28,.73,3.97.9,5.45,1,7,.3,4.61-.3,6.36,0,11,.14,2.2.36,3.1,1,7,.1.61,0,.04,2,14,2.86,20.01,2.75,19.05,3,21,1.4,11,.94,10.69,2,19,2.26,17.69,5.98,31.81,6,41,0,2.19-.2,4.06,0,8,.25,4.95.81,6.48,0,7-1.51.97-4.8-3.45-13-8-3.16-1.75-4.78-2.64-7-3-4.07-.66-5.52.87-12,2-6.9,1.2-6.72-.29-12,1-5.9,1.44-10,4.24-11,3-.54-.67.53-1.67,0-4-.29-1.29-.74-1.53-1-3-.16-.91-.07-1.29,0-3,.07-1.67,0-3.33,0-5v-68c0-17.5-.1-16.68,0-18,.66-9.15,2.76-15.5,4-18,.13-.27.83-1.65,2-4,1.88-3.77,1.79-3.65,2-4,1.45-2.41,3.15-4.13,5-6,0,0,.67-.67,2-2v-2h-6c-.37,0-1.4.04-5,1-2.88.77-2.94.94-4,1-.34.02-.4,0-3,0h-54c-.67,0-1.34-.08-2,0-.43.06-.68.12-1,0-.55-.22-1.51-1.05-3-1-1.11.04-2,0-2,0-.66-.03-.82-.06-.94-.03-.03.01-.05.02-.06.03-.19.13-.06.56,0,1,.07.53-.04.58,0,1,.08.83.56,1.44,1,2,.17.21.48.61,1,1,.64.49,1.11.61,2,1,0,0,.39.17,2,1,3.07,1.58,4,8,4,8,1.7,11.71,2,21,2,21,.29,9.02.43,13.53,1,19,.38,3.69.97,8.11,1,14t0,6v8c0,2,.09,4,0,6-.09,1.99-.2,2.66,0,4,.29,1.95.77,2.06,1,4,.1.87.03,1.01,0,4,0,1,0,2,0,3v29c0,1.67-.02,3.33,0,5,.04,4.92.19,6.22,0,9-.21,3.08-.31,4.62-1,6-1.56,3.12-4.73,4.44-6,5-7.62,3.37-3.65,4.42-30,19-9.22,5.1-12.16,6.33-14,5-2.09-1.51-1.18-5.21-1-13,.1-4.37-.24-.67-1-18-.48-11.04-.58-17.82-1-35-.61-24.83-.99-33.83-1-47,0-6.9.1-7.06,0-11-.01-.51-.26-10.09,0-20,.06-2.16.12-3.92,1-6,.9-2.13,2.3-3.79,5-7,1.52-1.8,2.21-2.46,3-4,.9-1.77,1.78-4.43,1-5-.52-.38-1.38.46-3,1-2.58.86-4.83.22-6,0-4.97-.94-15.85.85-41,1-13.11.08-17.22-.37-22,0-2.01.16-3.6.42-6,0-3.08-.53-4.19-1.61-6-1-1.87.63-3.37,2.68-3,4Z"/>
  </g>
</svg>