<?xml version="1.0" encoding="UTF-8"?>
<svg id="Lag_2" data-name="Lag 2" xmlns="http://www.w3.org/2000/svg" xmlns:xlink="http://www.w3.org/1999/xlink" viewBox="0 0 250.04 394.83">
  <defs>
    <style>
      .cls-1 {
        fill: #ab6901;
      }

      .cls-1, .cls-2, .cls-3, .cls-4, .cls-5, .cls-6, .cls-7, .cls-8, .cls-9, .cls-10, .cls-11, .cls-12, .cls-13, .cls-14, .cls-15, .cls-16, .cls-17, .cls-18, .cls-19, .cls-20, .cls-21, .cls-22, .cls-23, .cls-24, .cls-25, .cls-26, .cls-27, .cls-28, .cls-29, .cls-30, .cls-31, .cls-32, .cls-33, .cls-34, .cls-35, .cls-36, .cls-37, .cls-38, .cls-39, .cls-40, .cls-41, .cls-42, .cls-43, .cls-44, .cls-45, .cls-46, .cls-47, .cls-48, .cls-49, .cls-50, .cls-51, .cls-52, .cls-53, .cls-54, .cls-55, .cls-56, .cls-57, .cls-58, .cls-59 {
        stroke-width: 0px;
      }

      .cls-2 {
        fill: #baa290;
      }

      .cls-3 {
        fill: #a05c04;
      }

      .cls-4 {
        fill: #83400b;
      }

      .cls-5 {
        fill: #6f656b;
      }

      .cls-6 {
        fill: #898888;
      }

      .cls-7 {
        fill: #e1c7ac;
      }

      .cls-8 {
        fill: #ce5706;
      }

      .cls-9 {
        fill: #f0765b;
      }

      .cls-10 {
        fill: #80756f;
      }

      .cls-11 {
        fill: #d4c8bc;
      }

      .cls-12 {
        fill: #a2a9af;
      }

      .cls-13 {
        fill: #3e3a3b;
      }

      .cls-14 {
        fill: #f99656;
      }

      .cls-15 {
        fill: #d9d5d3;
      }

      .cls-16 {
        fill: #2e242e;
      }

      .cls-17 {
        fill: #928281;
      }

      .cls-18 {
        fill: #b94739;
      }

      .cls-19 {
        fill: #f0720c;
      }

      .cls-20 {
        fill: #a5332f;
      }

      .cls-21 {
        fill: #a73c43;
      }

      .cls-22 {
        fill: #350d0a;
      }

      .cls-23 {
        fill: #dacbca;
      }

      .cls-24 {
        fill: #b8beb2;
      }

      .cls-25 {
        fill: #c2c5c3;
      }

      .cls-26 {
        fill: #472102;
      }

      .cls-27 {
        fill: #2a2121;
      }

      .cls-28 {
        fill: #1b0b07;
      }

      .cls-29 {
        fill: #201406;
      }

      .cls-30 {
        fill: #897a81;
      }

      .cls-31 {
        fill: #646263;
      }

      .cls-32 {
        fill: #515051;
      }

      .cls-33 {
        fill: url(#Ikke-navngivet_forløb_4);
      }

      .cls-34 {
        fill: #c2a880;
      }

      .cls-35 {
        fill: #ef8155;
      }

      .cls-36 {
        fill: #5a2600;
      }

      .cls-37 {
        fill: #52484e;
      }

      .cls-38 {
        fill: #d88702;
      }

      .cls-39 {
        fill: #ac8b79;
      }

      .cls-40 {
        fill: #baad9f;
      }

      .cls-41 {
        fill: #aaa8a5;
      }

      .cls-42 {
        fill: #e9e9e7;
      }

      .cls-43 {
        fill: #2b1505;
      }

      .cls-44 {
        fill: #080606;
      }

      .cls-45 {
        fill: #cc6903;
      }

      .cls-46 {
        fill: #be8202;
      }

      .cls-47 {
        fill: #cd5c49;
      }

      .cls-48 {
        fill: #a04b02;
      }

      .cls-49 {
        fill: #e99803;
      }

      .cls-50 {
        fill: #201e24;
      }

      .cls-51 {
        fill: #a39990;
      }

      .cls-52 {
        fill: #bc6b65;
      }

      .cls-53 {
        fill: #989092;
      }

      .cls-54 {
        fill: #441400;
      }

      .cls-55 {
        fill: #fdb56d;
      }

      .cls-56 {
        fill: #8a3439;
      }

      .cls-57 {
        fill: #787879;
      }

      .cls-58 {
        fill: #c3bab8;
      }

      .cls-59 {
        fill: #6d3504;
      }
    </style>
    <linearGradient id="Ikke-navngivet_forløb_4" data-name="Ikke-navngivet forløb 4" x1="167.48" y1="56.86" x2="221.77" y2="104.91" gradientUnits="userSpaceOnUse">
      <stop offset="0" stop-color="#b0acad"/>
      <stop offset="1" stop-color="#857f81"/>
    </linearGradient>
  </defs>
  <g id="Lag_1-2" data-name="Lag 1">
    <g>
      <path class="cls-15" d="M86.16,331.27c-4.04,1.56,7.05,7.92,7.75,8,1.69.18,1.65-1.02,1.75-1,1.04.18.3-.22,2.5.5,1.82,3.86-1.22,2.16,2.5,5.5-.04,1.76,1.22,3.07,2,4.5,1.61,2.95,2.81,2.62,1,6.5-8.89-7.37-14.8-13.32-20.75-23.5l-.75.75c4.19,6.81,9.79,14.13,15.5,19.75-2.9-1.29-1.37.9-3,2-13.3-10.84-21.97-24-29-39.5l2-3c3.08,5.42,8.06,10.06,12.75,14,3.59-5.44,3.15-2.01,3.75,2.75-6.88-1.03-.76,1.15,2,2.75Z"/>
      <path class="cls-27" d="M48.66,243.77c-1.34.66-.03,1.43,0,1.5.01.03.29-.2.5.5-.65-.09-.66,1.78-.5,2.75,3.8,22.61,7.48,45.25,17,66.25,7.03,15.5,15.7,28.66,29,39.5-.73.49-7.19-4.73-8-5.5-1.1-1.04-10.42-11.96-11.5-13.5-5.95-8.41-15.84-30.25-19-40.25-5.11-16.17-6.53-32.53-8.5-49.25-.1-.81.09-1.69,0-2.5.61-.07.76-.18,1,.5Z"/>
      <g>
        <path class="cls-50" d="M242.66,165.27c-1.95-.04-.65,4.09-3,2.75.17-13.9,2.25-28.37-.5-42.5-1.27-6.54-6.29-4.81,1.5-27,2.11-22.84-1.43-1.51-11.25,12.75-7.17-11.89-2.78-23.77-2.25-36.5,3.93-8.47,8.65-18.51,4.5-27.5,18.2,19.17,19.96,63.43,17.5,88.25-.99,9.92-4.04,20.1-6.5,29.75Z"/>
        <path class="cls-32" d="M231.66,47.27c4.15,8.99-.57,19.03-4.5,27.5-2.19,4.73-7.17,9.46-8,16.5-5.76,4.89-4.05-2.08-4-6,4.17-3.1,11.79-15.68,13-20.75,2.15-9.04.19-13.76,0-21.75,1.31,1.68,2.34,1.99,3.5,4.5Z"/>
        <path class="cls-50" d="M228.16,42.77c.19,7.99,2.15,12.71,0,21.75-1.21,5.07-8.83,17.65-13,20.75-7.82,5.81,4.16-8.16,7-13.75,5.42-10.66,8-24.46.5-34.75,1.95,1.92,3.82,3.84,5.5,6Z"/>
      </g>
      <path class="cls-44" d="M24.66,165.77c.16,1.42.02,3.23-2,4-3.55-9.61-9.07-21.4-8.5-31.5,2.08,10.44,10.08,23.84,10.5,27.5Z"/>
      <g>
        <path class="cls-28" d="M17.16,198.27c-12.38,28.83-15.69,62.78-7.5,93.25,3.52,13.09,12.33,29.62,17,42.75-.89.23-1.74-1.63-2-2.25-3.15-7.65-6.42-15.33-9.5-23-3.33-8.29-6.57-22.3-7.5-16.25-3.82-14.01-4.17-22.58-4.5-23.75-.4-1.43-1.96-2.1-2-2.25-.15-.58-.76-1.21-1-2.5l2,.75c-.47-14.6.79-29.16,3.75-43.25h-1.75c.16-.73-.17-1.79,0-2.5,3.25,2.13,7.31-11.31,2.5-7,.06-.21-.45.38,1-4,3.42-1.38,8.32-9.23,2-6.5.53-1.51,1.44-3,2-4.5,1.04,0,2.09.21,3-.5,1.63,2.32,2.38,1.34,2.5,1.5Z"/>
        <path class="cls-22" d="M26.66,334.27c4.02,11.31,6.8,22.33,9.5,34,2.02,8.74,3.56,17.6,6,26.25-10.53,1.01-18.58-.65-3-2-1.29-5.8-3.08-11.49-4.5-17.25.66.05.68-2.31.5-3.25-1.95-10.37-7.28-26.06-11-36.25-5.73-15.72-12.01-26.54-16.5-43,.93-6.05,4.17,7.96,7.5,16.25,3.08,7.67,6.35,15.35,9.5,23,.26.62,1.11,2.48,2,2.25Z"/>
        <path class="cls-21" d="M7.66,292.77c4.49,16.46,10.77,27.28,16.5,43h-1c-1.97-5.28-5.31-13.88-8.5-18-2.15-7.25-4.33-9.7-4.5-10.25-4.04-13.24-9.24-26.85-9-40.75.04.15,1.6.82,2,2.25.33,1.17.68,9.74,4.5,23.75Z"/>
        <path class="cls-56" d="M.16,264.27c-.55-2.93.46-25.95,1-30.25.11-.84,1.45-3.17,1.5-3.5.15-1-.74-1.58-.5-3,.33-1.96,1.61-3.94,2-5.75h1.75c-2.96,14.09-4.22,28.65-3.75,43.25l-2-.75Z"/>
        <path class="cls-56" d="M16.16,186.27c2.19-5.49,4.36-10.99,6.5-16.5,2.02-.77,2.16-2.58,2-4,1.35-.55,1.64-2.03,2.5-3,.37-.42.6-.63,1-1,1.4-1.31,3.68-4.31,5.5-2.25-8.37,7-10.85,19.06-17.5,26.75Z"/>
        <path class="cls-52" d="M24.16,335.77c3.72,10.19,9.05,25.88,11,36.25.18.94.16,3.3-.5,3.25-.22-.89-.3-1.7-.5-2.5-3.14-12.45-6.5-24.96-11-37h1Z"/>
        <path class="cls-20" d="M14.66,196.77c-.91.71-1.96.49-3,.5.93-2.52,2.52-5,3.5-7.5,5.82-3.41-.08,6.67-.5,7Z"/>
        <path class="cls-18" d="M4.16,219.27c1.18-5.09,2.4-6.64,2.5-7,4.81-4.31.75,9.13-2.5,7Z"/>
        <path class="cls-56" d="M7.66,208.27c.71-2.14,1.25-4.38,2-6.5,6.32-2.73,1.42,5.12-2,6.5Z"/>
      </g>
      <path class="cls-15" d="M47.66,245.77c1.97,16.72,3.39,33.08,8.5,49.25,3.16,10,13.05,31.84,19,40.25l-1.75,2c-13.13-13.87-22.53-30.72-27.25-49.25-1.32-10.47-3.67-20.78-5-31.25,1.61-.72.07-7.99,0-11,1.89.53,1.46-1.66,2.75-3.5,1.66-.11-.51,4.6,3.75,3.5Z"/>
      <path class="cls-6" d="M114.16,118.27c-.19-.03-2.23,1.11-3.75.5-2.61-1.05-3.69-26.15-39.25-13.5,17.08-10.9,37.9-8.22,43,13Z"/>
      <path class="cls-41" d="M67.66,311.77l-2,3c-9.52-21-13.2-43.64-17-66.25-.16-.97-.15-2.84.5-2.75,5.65,19.16,8.33,48.13,18.5,66Z"/>
      <path class="cls-42" d="M47.66,243.27c.09.81-.1,1.69,0,2.5-4.26,1.1-2.09-3.61-3.75-3.5-1.29,1.84-.86,4.03-2.75,3.5-.17-7.59-.23-18.35,3.25-25,1.33,7.44,2.38,15,3.25,22.5Z"/>
      <path class="cls-41" d="M104.16,346.77c.03.41-.06.9,0,1-1.6-1.09-.44.5-1.5,1-.78-1.43-2.04-2.74-2-4.5.65.58,2.63,1.94,3.5,2.5Z"/>
      <g>
        <path class="cls-42" d="M129.66,87.77l.5.5c.33,3.8,4,8.28-.5,9.5-3.12-4.22-8.09-7.64-13-9.5-5.06-1.91-19.33-4.45-24.25-4-.12.01-.34,1.29-2,1.5-12.25,1.57-16.2,2.19-26.25,9.5-4.38,3.19-4.77,3.1-1-1.75,9.95-12.81,33.55-15.34,48.25-12.25,8.39,1.76,14.82,7.35,18.25,6.5Z"/>
        <path class="cls-41" d="M116.66,88.27c4.91,1.86,9.88,5.28,13,9.5-2.33.63-5.11.32-7.5.5-1.38-1.07-2.63-2.49-4-3.5-5.18-3.81-10.11-6.75-16.5-8.25l15,1.75Z"/>
        <path class="cls-32" d="M116.66,88.27l-15-1.75c6.39,1.5,11.32,4.44,16.5,8.25-3.34-1.68-6.42-3.79-10-5-14.71-4.95-30.88-2.58-44,5.5,10.05-7.31,14-7.93,26.25-9.5,1.66-.21,1.88-1.49,2-1.5,4.92-.45,19.19,2.09,24.25,4Z"/>
      </g>
      <g>
        <path class="cls-33" d="M222.66,36.77c7.5,10.29,4.92,24.09-.5,34.75-2.84,5.59-14.82,19.56-7,13.75-.05,3.92-1.76,10.89,4,6-1.91,16.33,14.26,28.1,14.75,44-8.69-4.76-12.89-14.45-20.5-20.5-9.64-7.66-28.69-15.09-40.75-12-.87-3.63-5.55.66-6.5-.75,1.73-2.07,3.47-1.37,3.5-3.75.01-1.01-.42-1.03-.5-1.5-.11-.62.07-1.35,0-2,3.17-.25,8.11-.07,11.25.5,3.6.66,19.47,8.4,8,1.5-14.46-8.7-39.11-7.13-43.25,3-3.9-2.08-6.52-1.13-9-1.5,1.52-.99,3.18-2.29,4.5-3.5,2.94,1.89,3.79-.19,4-3,5.36-2.97,7.81-3.97,14-5,16.79-2.79,24.5,3.39,25.5-1.5,6.55,1.66,12.64,4.7,18.75,7.5-12.45-12.48-44.59-19.81-59.75-11.5l-.5-3c1.31-.44,8.36-5.49,7-7,.79-.48,13.71-11.84,13.5-12.75-.1-.42-3.36.28.25-2.75,4.01-3.37,12.56-3.51,3.25-4.75,2.22-2.8,4.69-6.57,7.5-8.75,3.35-2.59,8.04-4.01,8.75-4.5,6.68-4.61,9.96-9.58,23.25-13.5,7.28,4.52,10.19,6.28,16.5,12.5Z"/>
        <path class="cls-42" d="M206.16,24.27c-13.29,3.92-16.57,8.89-23.25,13.5-.71.49-5.4,1.91-8.75,4.5-.16-2.09.89-1.69,1.5-2.5,8.56-7.65,13.91-10.66,24.5-14.5,1.54-.56,2.43-.49,3.5-2,.36.21,2.17.79,2.5,1Z"/>
        <path class="cls-58" d="M142.66,78.27l.5,3c-.2.11-2.95,2.5-3.5,3-4.76,4.38-6.19,10.99-7.5,5.75-.64-2.58,2.91-5-2-1.75l-.5-.5c-2.06-2.4,4.51-8,7-10-1.49,1.84,5.67.61,6,.5Z"/>
        <path class="cls-15" d="M149.66,71.27c1.36,1.51-5.69,6.56-7,7-.33.11-7.49,1.34-6-.5,8.47-6.81,12.37-6.12,13-6.5Z"/>
      </g>
      <g>
        <path class="cls-42" d="M166.16,5.77c-1.78,2.39-10.62-1.62-14.75-2-14.01-1.29-54.52,6.89-69,13.5v1c9.15-4.42,44.53-11.77,52-9.5,2.82.85,2.97,6.1-.5,7-6.49,1.68-32.81-1.63-63.5,15.5-24.04,13.42-45.56,35.33-41.75,65-4.43-9.34,4.9,16.16,5,17.75.26,4.01-3.2,6.85-1,14-.88,1.59-5.64-16.56-6-17.75-3.46-11.39-.69-.66-1,.25-.03.1-1.74-.17-2,.5-1.19,3.13.6,19.03,1.5,23.25,0,.33-.01.67,0,1-1.96-.39-1.54.76-1.5,3.25.03,2.26,1.67,22.37,2,23.5.12.42.96.91,1.5.75-.86.97-1.15,2.45-2.5,3-.42-3.66-8.42-17.06-10.5-27.5-5.62-28.12,2.61-74.63,21.5-97.25C58.84,13.27,106.19-2.28,141.41.27c8.52.62,16.65,3.02,24.75,5.5Z"/>
        <path class="cls-42" d="M108.16,89.77c3.58,1.21,6.66,3.32,10,5,1.37,1.01,2.62,2.43,4,3.5.82.64,3.9,3.9,4.25,4,3.35.97,16.19-1.31,2.25,2.25,5.49,1.04-5.4,14.45-6.25,14.75-1.93.69-6.16-.72-8.25-1-5.1-21.22-25.92-23.9-43-13-16.85,6-24.79,17.89-36.75,30-5.15-11.39,9.76-21.59,8.75-36.5,8.22.19-3.53-20.2-1.5-33.75,3.9-26.05,70.76-45.45,93.75-42.25-.24,7-19,5.66-34,9-13.98,3.12-37.34,11.86-47.5,22-17.43,17.41,3.72,30.48.5,60,20.68-31.14,49.25-21.83,53-22.5.27-.05-.51-.89.75-1.5Z"/>
        <path class="cls-42" d="M26.66,110.27c-.55,14.43,5.34,27.86,4.5,42.25-.54,1.06-4.67-14.37-5-15.75-.66-2.79-.97-2.37-1-2.5-.9-4.22-2.69-20.12-1.5-23.25.26-.67,1.97-.4,2-.5.31-.91-2.46-11.64,1-.25Z"/>
        <path class="cls-41" d="M25.16,135.27c.08,1.98.49,1.42.5,1.5,1.5,7.92,4.89,22.74,2.5,25-.4.37-.63.58-1,1-.54.16-1.38-.33-1.5-.75-.33-1.13-1.97-21.24-2-23.5-.04-2.49-.46-3.64,1.5-3.25Z"/>
        <path class="cls-31" d="M26.16,136.77h-.5c-.01-.08-.42.48-.5-1.5-.01-.33,0-.67,0-1,.03.13.34-.29,1,2.5Z"/>
        <g>
          <path class="cls-42" d="M166.16,5.77c14.97,4.59,24.24,9.56,37.5,17.5-1.07,1.51-1.96,1.44-3.5,2-9.54,1.14-18.73,6.86-24.5,14.5-.61.81-1.66.41-1.5,2.5-2.81,2.18-5.28,5.95-7.5,8.75,9.31,1.24.76,1.38-3.25,4.75-3.61,3.03-.35,2.33-.25,2.75.21.91-12.71,12.27-13.5,12.75-.63.38-4.53-.31-13,6.5-2.49,2-9.06,7.6-7,10-3.43.85-9.86-4.74-18.25-6.5-14.7-3.09-38.3-.56-48.25,12.25-3.77,4.85-3.38,4.94,1,1.75,13.12-8.08,29.29-10.45,44-5.5-1.26.61-.48,1.45-.75,1.5-3.75.67-32.32-8.64-53,22.5,3.22-29.52-17.93-42.59-.5-60,10.16-10.14,33.52-18.88,47.5-22,15-3.34,33.76-2,34-9-22.99-3.2-89.85,16.2-93.75,42.25-2.03,13.55,9.72,33.94,1.5,33.75-.28-4.16-3.82-14.98-6.5-18-.45-.51-.75-1.04-1.25-1.5-3.44,4.57-.19,9.71-.25,10.25-.1.91-5.73,4.29,1.5,16.25.11,13.66-3.95-.96-8-9.5-3.81-29.67,17.71-51.58,41.75-65,30.69-17.13,57.01-13.82,63.5-15.5,3.47-.9,3.32-6.15.5-7-7.47-2.27-42.85,5.08-52,9.5v-1c14.48-6.61,54.99-14.79,69-13.5,4.13.38,12.97,4.39,14.75,2Z"/>
          <path class="cls-32" d="M176.91,34.27l-12.75,15.75c-11.47,20.37-10.04,12.37,0-1.5,3.71-5.13,8.32-9.74,12.75-14.25Z"/>
          <path class="cls-32" d="M200.16,25.27c-10.59,3.84-15.94,6.85-24.5,14.5,5.77-7.64,14.96-13.36,24.5-14.5Z"/>
        </g>
      </g>
      <g>
        <path class="cls-42" d="M184.16,85.27c-7.97-2.02-15.8-3.02-24-2-7.94.99-23.31,5.67-24.5,15-.51-.12-1.27-.63-2-.75l6-13.25c.55-.5,3.3-2.89,3.5-3,15.16-8.31,47.3-.98,59.75,11.5-6.11-2.8-12.2-5.84-18.75-7.5Z"/>
        <path class="cls-58" d="M158.66,86.77c-6.19,1.03-8.64,2.03-14,5-.15.08-.83-.79-3.25,1-1.17.87-.65,1.91-.75,2-1.32,1.21-2.98,2.51-4.5,3.5-.16-.02-.34.04-.5,0,1.19-9.33,16.56-14.01,24.5-15,2.48,2.91-1.97.57-1.5,3.5Z"/>
        <path class="cls-41" d="M184.16,85.27c-1,4.89-8.71-1.29-25.5,1.5-.47-2.93,3.98-.59,1.5-3.5,8.2-1.02,16.03-.02,24,2Z"/>
        <path class="cls-41" d="M144.66,91.77c-.21,2.81-1.06,4.89-4,3,.1-.09-.42-1.13.75-2,2.42-1.79,3.1-.92,3.25-1Z"/>
      </g>
      <g>
        <path class="cls-42" d="M169.16,94.77c-3.26.26-6.47,1.31-9.5,2.5.53-2.61-4.49-.16-5.75.5-4.69,2.45-9.44,11.57-9.25,4,0-.1.46-1.9.5-2,4.14-10.13,28.79-11.7,43.25-3,11.47,6.9-4.4-.84-8-1.5-3.14-.57-8.08-.75-11.25-.5Z"/>
        <path class="cls-42" d="M159.66,97.27c-1.22.48-2.34.86-3.5,1.5-6.31,3.49-5.73,5.64-6,6-.02.03-.12-.1-.5.5-1.36,2.12-1.45,1.4-1.5,1.5-1.49,3.08-1.79,2.75-1,6.5,1.13,5.39,1.32,2.96,2,3.5,1.43,1.12,1.04,1.73,2.5,1.5-6.4-.06-7.53.39-12.5-4.5,2.3-3.77,4.68-7.61,5-12h.5c-.19,7.57,4.56-1.55,9.25-4,1.26-.66,6.28-3.11,5.75-.5Z"/>
        <path class="cls-42" d="M144.16,101.77c-.32,4.39-2.7,8.23-5,12-5.18-5.1-4.81-6.11,1.75-14l3.25,2Z"/>
        <path class="cls-31" d="M169.66,98.27c-.03,2.38-1.77,1.68-3.5,3.75.95,1.41,5.63-2.88,6.5.75-2.19.56-5.85,2.08-7.5,3.5-6.1-1.51-5.58,8.77-12,8,.62-1.03,1.34-2.62,2-3.5,1.02-1.38,2.33-2.74,3.5-4,2.14-2.31,7.62-4.06,6.5-8,.15-.07.46.12,1.5-.5h3Z"/>
        <path class="cls-37" d="M165.16,106.27c-3.6,3.1-6.62,11.7-7.25,12-1.06.51-4.91.01-6.25,0,.4-1.17.91-3.03,1.5-4,6.42.77,5.9-9.51,12-8Z"/>
        <path class="cls-41" d="M169.16,94.77c.07.65-.11,1.38,0,2-3.24.46-2.37,1.43-2.5,1.5-1.04.62-1.35.43-1.5.5-1.37.65-.37,1.11-1.25,1.5-.1.04-.24-1.53-1.5-1-3.75,1.57-4.85,3.37-3.75,7.5-1.17,1.26-2.48,2.62-3.5,4-.84-5.04-1.91-4.25-2-4.5-1.31-3.61.81-1.01,1.75-1.5.31-.16,2.99-5.15,1.25-6,1.16-.64,2.28-1.02,3.5-1.5,3.03-1.19,6.24-2.24,9.5-2.5Z"/>
        <path class="cls-53" d="M169.16,96.77c.08.47.51.49.5,1.5h-3c.13-.07-.74-1.04,2.5-1.5Z"/>
        <path class="cls-58" d="M153.16,106.27c.09.25,1.16-.54,2,4.5-.66.88-1.38,2.47-2,3.5-.59.97-1.1,2.83-1.5,4-1.46.23-1.07-.38-2.5-1.5l.5-11.5c.38-.6.48-.47.5-.5-.69,1.55,1.88,2.19,3,1.5Z"/>
        <path class="cls-58" d="M153.16,106.27c-1.12.69-3.69.05-3-1.5.27-.36-.31-2.51,6-6,1.74.85-.94,5.84-1.25,6-.94.49-3.06-2.11-1.75,1.5Z"/>
        <path class="cls-15" d="M149.16,116.77c-.68-.54-.87,1.89-2-3.5l1-6.5c.05-.1.14.62,1.5-1.5l-.5,11.5Z"/>
        <path class="cls-15" d="M148.16,106.77l-1,6.5c-.79-3.75-.49-3.42,1-6.5Z"/>
        <path class="cls-6" d="M165.16,98.77c1.12,3.94-4.36,5.69-6.5,8-1.1-4.13,0-5.93,3.75-7.5,1.26-.53,1.4,1.04,1.5,1,.88-.39-.12-.85,1.25-1.5Z"/>
      </g>
      <g>
        <path class="cls-44" d="M242.66,165.27c-2.4,9.42-6.33,18.33-8,28-13.47-2.81-11.17,2.14.25,3,.8-.63-.31-1.02-.25-1.5l10,3.25c-1.2,1.57-1.7,3.49-2.5,5.25-8.33,18.36-23.71,16.33-24.5,17.75.83,11.27.66,22.73,0,34-.6,10.22-3.63,23.74-3.5,25,.31,2.98,17.78,21.14,4.5,57.5-4.55,12.47-14.09,26.05-25,33.75-15.08,10.64-38.34,13.7-55.75,8-8.86-2.9-33.1-19.96-40.25-27-5.71-5.62-11.31-12.94-15.5-19.75l.75-.75c5.95,10.18,11.86,16.13,20.75,23.5,4.41,3.66,8.97,7.34,13.75,10.5,10.78,7.13,4,1.11.75-4.25-1.34-2.21-2.75-6.71-3-7-1.5-1.76-8.64-3.1-11-6.75-.06-.1.03-.59,0-1,3.21,2.06,5.55,3.37,9.25,4.5.45-.23-.62-4.55-.75-4.75-.45-.69-13.72-7.49-14.5-7.75-2.2-.72-1.46-.32-2.5-.5-2.57-3.16-6.06-5.01-9.5-7-2.76-1.6-8.88-3.78-2-2.75-.6-4.76-.16-8.19-3.75-2.75-4.69-3.94-9.67-8.58-12.75-14-10.17-17.87-12.85-46.84-18.5-66-.21-.7-.49-.47-.5-.5-.07-.48.12-1.16,0-1.5-.24-.68-.39-.57-1-.5-.87-7.5-1.92-15.06-3.25-22.5-3.48,6.65-3.42,17.41-3.25,25,.07,3.01,1.61,10.28,0,11-.67-5.31-2.24-34.13-3-35.75-.7-1.48-11.96-.45-19.5-16.5-.78-1.66-.28-4.7-1.5-6.25-.12-.16-.87.82-2.5-1.5.42-.33,6.32-10.41.5-7,.07-.17.2-1.5,1-3.5,6.65-7.69,9.13-19.75,17.5-26.75-1.82-2.06-4.1.94-5.5,2.25,2.39-2.26-1-17.08-2.5-25h.5c.33,1.38,4.46,16.81,5,15.75.84-14.39-5.05-27.82-4.5-42.25.36,1.19,5.12,19.34,6,17.75-2.2-7.15,1.26-9.99,1-14-.1-1.59-9.43-27.09-5-17.75,4.05,8.54,8.11,23.16,8,9.5-.03-3.66-1.58-9.08-1.75-13,1.54-.55,6.56,16.09,6.25,10.25-.39-7.35-3.56-14.94-4.5-22.25,2.68,3.02,6.22,13.84,6.5,18,1.01,14.91-13.9,25.11-8.75,36.5,11.96-12.11,19.9-24,36.75-30,35.56-12.65,36.64,12.45,39.25,13.5,1.52.61,3.56-.53,3.75-.5,2.09.28,6.32,1.69,8.25,1,.85-.3,11.74-13.71,6.25-14.75,13.94-3.56,1.1-1.28-2.25-2.25-.35-.1-3.43-3.36-4.25-4,2.39-.18,5.17.13,7.5-.5,4.5-1.22.83-5.7.5-9.5,4.91-3.25,1.36-.83,2,1.75,1.31,5.24,2.74-1.37,7.5-5.75l-6,13.25c.73.12,1.49.63,2,.75.16.04.34-.02.5,0,2.48.37,5.1-.58,9,1.5-.04.1-.5,1.9-.5,2h-.5l-3.25-2c-6.56,7.89-6.93,8.9-1.75,14,4.97,4.89,6.1,4.44,12.5,4.5,1.34.01,5.19.51,6.25,0,.63-.3,3.65-8.9,7.25-12,1.65-1.42,5.31-2.94,7.5-3.5,12.06-3.09,31.11,4.34,40.75,12,7.61,6.05,11.81,15.74,20.5,20.5-.49-15.9-16.66-27.67-14.75-44,.83-7.04,5.81-11.77,8-16.5-.53,12.73-4.92,24.61,2.25,36.5,9.82-14.26,13.36-35.59,11.25-12.75-7.79,22.19-2.77,20.46-1.5,27,2.75,14.13.67,28.6.5,42.5,2.35,1.34,1.05-2.79,3-2.75Z"/>
        <g>
          <path class="cls-50" d="M234.66,193.27c-.08.48.06,1.01,0,1.5-.06.48,1.05.87.25,1.5-11.42-.86-13.72-5.81-.25-3Z"/>
          <path class="cls-42" d="M113.66,181.27l-.75-1.5c-2.08,7.5-4.84,2.49-6.25,4.75-.14.22.79.8-.5,5.25-.34,1.16.82,2.84-1.25,2.5-9.11-5.56-13.3-5.9-23.75-5,15-6.65,21.96,2.36,23.75,1.5.2-.1-.61-3.1-.25-4.5,1.79-6.97,9.35-22.38,11.75-30.5-6.14,8.92-12.91,18.03-21.75,24.5-14.72,10.79-34.96,12.31-50.25,22.5l-5,5.5c9.24-7.68,20.49-9.87,32.25-10,.35,1.83-2.17.62-4.25,1-5.43.99-21.66,4.17-21.75,10-.18.11-2.49,2.46-3,3-.91.96-2.32,1.59-3,3.25l4.5,4.25c-12.04,3.15-22.16-6.88-25-17,2.65-2.82,7.16-4.02,10-6,2.08-1.45,8.58-6.58,9-8.75.43-2.22-5.24-40.75-4-45,.33-1.14,7.55-6.44,8.75-8.25.77-.53.46.94.25,3-1.1.21-4.91,5.86-5,6.25-.87,3.83,4.85,33.01,5.5,39.75.06.62-2.49,1.55,1,12-1.42.44-3.46,1.28-4.75,2-11.41,6.42,2.23.42,4,0,3.87-.93,24.09-3.95,7.25-3-.19-3.04-3.58-.45-4.5-1.25-.87-.75-1.41-7.83-2-9.75,1.07-.22,1.4.28,2,.5,5.44,2.01,1.76,4.14,15.5,2,2.11-.33,4.4-1.02,6.5-1.5,2.06-.47,6.4-1.47,8-2,2.71-.9,2.84-1.44,3-1.5,17.6-6.75,24.09-16.62,30.5-34,.09.11,2.09,1.14,2.5,1.5,4.91,4.39,9.9,7.14,5.5,3l1.5-.25c10.18-12.43,5.28-18.26,6.5-22,.74-2.27,17.21-7.19,10.5,15-14.87,2.53-21.14,25.89-23,38.75Z"/>
          <path class="cls-42" d="M211.16,321.27c-.15,1.26-.25,2.25-.5,3.5-1.49,7.63-5.12,12.59-8,19.5-.04.06-.37.22-1,1-2.23,2.76-4.62,5.48-6.5,8.5-.68.48-1.33,1.04-2,1.5-8.52,5.82-16.48,10.17-27,11-1.63.13-3.35,0-5,0-3.7.02-7.35.04-11-.75,28.23-17.24,44.56-49.72,48.75-81.75,9.64,12.3,14.15,21.52,12.25,37.5Z"/>
          <path class="cls-42" d="M103.16,223.27l.75,1.5c4.72-9.28-1.71-13.56,9.75-22,2.25,6.52,10.33,10.33,16,6-.34,1.33,1.7,1.23,2,1.75.38.67-.48,1.37-.5,1.75-8.97.01-15.3,14.12-14.25,14.5,1.4-3.16,10.19-12.82,13.25-12.5-1.04,3.15,5.96,6.12,6.5,9.25.21,1.2-2.58,9.83-1,13.75-.07.06-.29,1.21-1.5,1-1.07-4.9-4.42-10.86-6.75-16-1.04-.11-11.45,16.76-9.25,17.5-3.93.11-1.94-5.59-1.5-8,2.98-7.51-10.09,9.63-8.5,13.5-4.3-1.53-3.09-5.16-2.5-9,.71-1.18,1.34-2.29,2-3.5,3.45-6.32,5.52-13.21,9.5-19.25-.11-.71-3.56-2.51-4-1.25-3.74-.14-3.91,11.71-7.5,18.75-3.55,6.96-9.83,8.57-7.5,19.25-4.62-1.13-3.16-3.63-3.5-5.5-.27-1.48,1.39-2.22-.25-3.5-5.88-2.61-7.45,7.28-15,5.5-.71-.17-.87-2.07-3.5-2-1.22.03-8.62,3.18-.75,2.5l-4.25,1c-3.12-4.71,1.86-4.59,3.25-6,3.15,4.28,6.4-5.06,6.5-12,.03-1.88-.18-2.74-.5-4.5,5.29-6.67,3.86,9.8,5.5.5.63,4.42.39,16.56,1.5,3.25.25-2.95.21-10.61-.5-13.25,5.31-4.43,5.95,14.53,3.5,22.75l2,.25c.61-.01.75-.6,1-1,1.53-2.41,2.76-12.72,2.5-16,1.82.06,1.79-3.45,1.5-6.25-.62-5.92-5.04-15.31-10.5-17.75,4.3-.33,10.02,4.86,12,8.25,5.53,9.45,2.57,25.89,4.5,16.75Z"/>
          <path class="cls-5" d="M219.16,205.27c-4.13,6.18-9.05-4.27-8,9.5-7.67-1.36-16.78-2.38-23,3.5-.57-5.27,3.48-6.41,2-8,8.23-4.35,12.15-4.38,21.5-3.75-8.9-4.7-31.02-2.2-35,8.25l-2.5.5c1.31-8.55,6.39-17.74-3.5.75-1.53,9.19,11.26,34.49,3,7.75,1.22,1.37,5.23,13.92,3,14-.2-.28.74-1.35-2.5-1-.18-.35-.33-.68-.5-1-.52-.98-.44-2.63-.5-2.75-1.4-2.68-5.71-7.84-7.5-11.25-5.72-33.68,34.6-27.07,53.5-16.5Z"/>
          <path class="cls-16" d="M136.66,357.77c6.28-3,10.84-9.63,17-14.75v-1.25c1.79-.28,3.8-2.59,5.5-3.5.96-.51,2.06-.91,3-1.5,5.38-3.39,5.96-5.04,7.75-6.5.05-.04.95,1.05,1,1,13.02-10.89,18.92-39.21,21-55.5l3.25,3.25c-1.21,27.68-19.79,66.23-44.75,79.75-8.94,4.84-8.02,3.99-13.75-1Z"/>
          <path class="cls-6" d="M142.66,139.77c-3.56.86.35,3.48.5,3.75,2.31,4.17,2.32,5.73,2.5,6,.69,1.04,1.45.68,1.5.75-.7,2.45,9.68,21.6,10.5,19.75-2.97-5.02-4.52-11.81-7.5-16.75l1.5-1.5c3.58,2.77,1.49.31,3-3.25,4.77-11.24.18,5.15,7,14.75l-1,.25c1.33,1.22,1.27,3.23,2,4.75,1.59,3.32,4.89,7.09,8.5,7.75l.5-2.75c.58.42,1.38.62,2,1-.08.12.07.38,0,.5-.42.66.29,1.03-2.5,2.25,2.73,1.95,10.59,8.47,13,9.25v.5c-1.29-.27-1.95-.67-4-1,.39-1.4-3.43-1.17-5.75-2-8.54-3.07-8.67-8.51-15.75,2-.58-3.27-6.26-16.12-9-19.5-1.49-4.41-3.82-9.62-6-13.75-4.01-7.59-8-4.1-3.75-17.75.26-.12,2.47,4.58,2.75,5Z"/>
          <path class="cls-56" d="M120.16,350.27c.47,1.18,3.54,7.46,4,8,.65.76.95.45,1,.5,3.54,3.53,11.18,7.56,16,9,6.08,1.82,17.12,2.82,23.25,2,2.75-.37,2.12-1.47,2.25-1.5.88-.21,2.41.22,3.25,0,1.06-.28,4.32-2.93,5-3,1.97-.21,2.89,1.37,4.5,1,.66-.15,5.8-7.77,9.75-4.75.17.13-.29,1.21.25,1.75.03.03.52-.7.75-.5.1.09-.52,1.34,1.5,1-20.74,16.02-58.98,15.14-73-9.5,2.71-1.2-1.71-3.79,1.5-4Z"/>
          <path class="cls-47" d="M124.16,294.27c-3.59-2.51-1.82,3.22-2.5,4.75-.2.45-.97.19-1,.25-.12.3-3.69,1.42,1.5,4.5.13,1.29-.18,2.75,0,4-6.35-2.43-6.64-.59-1,2.5-.83,1.66-.27,2.43-.5,3.5-5.44-2.16-4.12-.9-4.5,1.5-.19,1.19.11,2.72,0,4-5.13.36-.99,5.28-3.5,6.5-.03-24.06,6.81-36.43,7.5-56.75-.21-2.46,3.91,7.5,4,8,.5,2.85-.57,5.89-.5,6.5.59,5.3,4.25,11.3-.75,6.75-1.01,2.22.48,2.63,1.25,4Z"/>
          <path class="cls-16" d="M188.16,218.27c-8.93,8.45-3.42,30.02-8.75,29-1.11-.91-1.13-2.34-1.75-3.5.44-1.96.07-4.47-1-6,2.23-.08-1.78-12.63-3-14-.18-2.89.06-5.64.5-8.5l2.5-.5c-.76,2-1.54,3.81-.75,6,6.69-12.04,2.92-1.59,3.5-1.5,2.82-3.82,6.54-6.78,10.75-9,1.48,1.59-2.57,2.73-2,8Z"/>
          <path class="cls-21" d="M191.66,363.77c-2.02.34-1.4-.91-1.5-1l3-7.5c.67-.46,1.32-1.02,2-1.5.5-.35,6.92-1.5,6.5-8.5.63-.78.96-.94,1-1,.35-.47,2.37-1.77,3-2.75,1.19-1.87,4.29-11.56,5-12,5.51,5.02,2.4-2.76,0-4.75.25-1.25.35-2.24.5-3.5,3.9-.77,4.23-3.56,5-6.5.09-.36,1.53-.74,1-7,1.28-.98,1.21.33,2,1.25-1.23,20.88-10.69,41.77-27.5,54.75Z"/>
          <path class="cls-58" d="M158.66,185.77c.27,1.52.15,3.43.5,5l-1.5,22.75,3,9.75c1.19,8.85,4.76,13.46,8.5,21-1.12,1.26-8.8-13.11-9.5-15-.23-.62-.26-1.33-.5-2-.05-.15.75-.99,0-3.25-.67-2-4.03-13.43-4.5-14-.49-.59-.86.81-1.5.75-1.54-.14-.9-1.05-1.25-1-3.66,3.35-1.14.36-.25-1.5,5.82-12.14,2.22-29.48-2-42,2.74,3.38,8.42,16.23,9,19.5Z"/>
          <path class="cls-53" d="M173.66,193.77c-11.38,3.84-14.89,15.71-11.5,26.5-2.33.13-1.84.5-1.5,3l-3-9.75,1.5-22.75c1.25-1.58,3.82-4.21,5.5-5,5.62,3.94,9.91-2.56,9,8Z"/>
          <path class="cls-21" d="M203.16,274.27l-.25-1.5c-5.06-1.67-7.5-4.05-3.25,2l-2,3.5c-6.15-7.43-14.34-14.72-14.75-25l10.25.25c-5.45,20.08,1.7,1.91,3,10,.68,4.26-6.15,10.11,3.25,2.25.46,1.28,5.71,5.83,5.75,6.25.11,1.07-1.54,1.68-2,2.25Z"/>
          <path class="cls-56" d="M128.16,301.27c.04.12,1.14-.14,1,2.25-.18,3.1-18.02,40.09,6.5,57.25l-1,.5c-.79-.82-4.78-4.4-5.5-4.5-.15-.02-.35-.01-.5,0,.93-1.96-.82-1.53-2-1-.83-1.76-1.32-4.28-3-5.5,1.52-2.06-2.4-4.23-2.5-4.5-.74-1.96-.31-8.19-2-8,.48-3.14-.01-2.85,0-3,.55-6.1.19-12.43,1-18.5.02-.13.4-2.02.5-2.5.23-1.07-.33-1.84.5-3.5.05-.11,1.63.46,2-1.25.37-1.69-.99-1.17-1-1.25-.18-1.25.13-2.71,0-4,4.6,2.73,3.08.3,4-.5,1.48-1.29,1.1-1.93,2-2Z"/>
          <path class="cls-42" d="M113.66,181.27c-.83,5.75-1.86,16.13,0,21.5-11.46,8.44-5.03,12.72-9.75,22l-.75-1.5c1.46-6.91,2.81-14.59-1-21,2.58-2.46,2.53,2.62,3.5-3.5,1.83,11.33,1.01,1.08,1-4,0-2.61.29-5.04-.5-5,1.29-4.45.36-5.03.5-5.25,1.41-2.26,4.17,2.75,6.25-4.75l.75,1.5Z"/>
          <path class="cls-37" d="M153.66,341.77v1.25c-6.16,5.12-10.72,11.75-17,14.75-4.09-3.55-7.65-7.84-9.5-13,5.68-1.43,8.4.21,13.5,1-3.34,4.59-.91,3.61,3.5-1.5l6-3c1.21.18,2.47.66,3.5.5Z"/>
          <path class="cls-58" d="M178.16,176.77c.16.09-.09.43,3,2,1.34.68,1.91.46,2,.5.13.06-.98.03,2.5,1.5,2.83,1.19,5.59,2.08,8.5,3,1.48.47,1.15-.1,1.5,0,.09.02-.32.53,1.5,1,8.63,2.25,15.71,6.05,23-1.5-.97,4.05-2.56,3.7-5,7-4.05,1.04-28.49-3.19-31-4-2.41-.78-10.27-7.3-13-9.25,2.79-1.22,2.08-1.59,2.5-2.25,1.36.78,3.19,1.26,4.5,2Z"/>
          <path class="cls-41" d="M43.16,135.77c-.12,1.19-2.67,8.16-.25,8,3.03-3.86.66-1.37.75,3.75.21,11.53,2.75,23.19,3,34.75-.6-.22-.93-.72-2-.5h-1c-.65-6.74-6.37-35.92-5.5-39.75.09-.39,3.9-6.04,5-6.25Z"/>
          <path class="cls-42" d="M61.16,204.27c3.61,0,5.76.7,9,2-1.21,1.15-1.52,1.99,0,3-1.36-.23-.92,1.05-1.25,1-2.59-.37-3.09-2.28-4-2.5-2.02-.49-10.73,1.63-9.75,5.5-2.75.55-7.98,3.71-11,4.5l-4.5-4.25c.68-1.66,2.09-2.29,3-3.25,2.99-.82,6.9-4.01,10.75-5,1.94-.5,5.73-1,7.75-1Z"/>
          <path class="cls-22" d="M137.91,270.77l1.25.75c-.53,10.41-4.98,20.1-8.75,29.75-1.19-1.83-3.33-5.15-3.25-7.25.05-1.3,5.03-19.35,10.75-23.25Z"/>
          <path class="cls-41" d="M180.16,185.77c2.05.33,2.71.73,4,1,6.74,1.42,13.55,4.26,20.25,6-8.87-.07-22.49-1.79-30.75,1,.91-10.56-3.38-4.06-9-8,2.95-1.38,11.49-.65,15.5,0Z"/>
          <path class="cls-42" d="M57.91,237.27c12.62,11.83,8.76,12.39,10,30.5-6.31-9-8.61-19.84-10-30.5Z"/>
          <path class="cls-58" d="M104.16,347.77c2.36,3.65,9.5,4.99,11,6.75.25.29,1.66,4.79,3,7,3.25,5.36,10.03,11.38-.75,4.25-4.78-3.16-9.34-6.84-13.75-10.5,1.81-3.88.61-3.55-1-6.5,1.06-.5-.1-2.09,1.5-1Z"/>
          <path class="cls-42" d="M180.91,273.77c5.21,1.28,3.54,12.69,2.75,17.75-.84,5.38-.84,6.8-5.75,9.75-1.09-.86,2.3-24.28,3-27.5Z"/>
          <path class="cls-42" d="M97.16,255.77c-.24,7.77,3.3,25.69-1,24.5-1.8-4.05-2.45-8.25-3.5-12.5,1.26-4.84-3.57-10.13,1.75-13.5l2.75,1.5Z"/>
          <path class="cls-42" d="M131.91,108.77l6.25,9.25-11.25,7.75c-6.46-3.63.27-7.19,5-17Z"/>
          <path class="cls-50" d="M214.91,223.77c2.74.11-1.71,48.31-4.5,52-.37-1.29-1.66-1.93-1.75-2.25-1.03-3.64,8.1-41.26,6.25-49.75Z"/>
          <path class="cls-25" d="M113.16,212.27l-5.5,20.5c-.66,1.21-1.29,2.32-2,3.5-.72,1.18-3.9,3.91-4,4.25-.42,1.45,1.28,9.66-3.5,9.75-2.33-10.68,3.95-12.29,7.5-19.25,3.59-7.04,3.76-18.89,7.5-18.75Z"/>
          <path class="cls-5" d="M162.16,220.27c1.76,5.61,14.85,22.58,7,24-3.74-7.54-7.31-12.15-8.5-21-.34-2.5-.83-2.87,1.5-3Z"/>
          <path class="cls-15" d="M70.16,209.27c4.74.8,4.63,3.84,6.5,7.5-2.07.26-3.19-1.58-4.5.5-4.36-4.66-11.19-5.17-17-4-.98-3.87,7.73-5.99,9.75-5.5.91.22,1.41,2.13,4,2.5.33.05-.11-1.23,1.25-1Z"/>
          <path class="cls-20" d="M116.16,319.27c-.29,3.29,0,3.33,0,3.5-.1,1.74-.02,2.83,0,4.5,0,.36-.89,2.58-.5,7.25.03.41.99.2,1,.25.05.47-1.86,4.49,1.5,8.5.11,1.33.15,2.7.5,4,.26.96.69,1.64,1,2.5.01.03.22-.2.5.5-3.21.21,1.21,2.8-1.5,4-5.29-9.3-5.98-17.97-6-28.5,2.51-1.22-1.63-6.14,3.5-6.5Z"/>
          <path class="cls-42" d="M36.66,80.77c.94,7.31,4.11,14.9,4.5,22.25.31,5.84-4.71-10.8-6.25-10.25.17,3.92,1.72,9.34,1.75,13-7.23-11.96-1.6-15.34-1.5-16.25.06-.54-3.19-5.68.25-10.25.5.46.8.99,1.25,1.5Z"/>
          <path class="cls-13" d="M147.16,143.27c-1.11-3.37,6.11-11.26,9.5-14-1.02,6.91-4.77,10.85,1.75,2.5l.75.75c-3.85,2.99-1.63,3.63-2,4.5-1.7,3.95-5.07,7.3-5,12-.29.25-4.67-5.28-5-5.75Z"/>
          <g>
            <path class="cls-51" d="M140.16,273.27l-.5-32.5c1.28,1.05,6.15,3.67,6.5,4.75.41,1.26-1.23,25.2-1.5,26.5-.77,3.68-5.07,3.97-4.5,1.25Z"/>
            <path class="cls-42" d="M140.16,273.27c-.92-13.64-10.88-29.6-.5-32.5l.5,32.5Z"/>
          </g>
          <path class="cls-42" d="M60.91,267.27c.75,2.43,5.46,6.61,5.75,7.75.29,1.15.94,15.42,1.25,19.75-5.91-2.4-5.37-19.58-7-27.5Z"/>
          <path class="cls-25" d="M94.66,244.77c-8.16-1.46-1.6,4.17-6.75,6.5-6.08-4.51-7.01.71-8.5.5-1.21-.17-2.11-5.11-4.25-4.5-7.87.68-.47-2.47.75-2.5,2.63-.07,2.79,1.83,3.5,2,7.55,1.78,9.12-8.11,15-5.5,1.64,1.28-.02,2.02.25,3.5Z"/>
          <path class="cls-42" d="M137.16,205.77c-.83,2.47-3.62,5.1-5.5,7,.05-.62-.5-.46-.5-.5.02-.38.88-1.08.5-1.75-.3-.52-2.34-.42-2-1.75,5.92-4.52,2.78-32.34,4.25-40.5,1.56,10.87,1.06,21.82,1.25,32.75.01.77-2.83-.1,2,4.75Z"/>
          <path class="cls-50" d="M223.16,205.77c1.64-2.06,5.72-1.26,3-4-1.27-1.28-4.41-4.5-5.5-4,.03-.33-.01-.67,0-1,16.93,1.08,22.46-2.15,5.75,11.5-.63,0-2.49-2.02-3.25-2.5Z"/>
          <g>
            <path class="cls-42" d="M109.66,249.27l1.5,22.5c-2-2.92-8.62-18.57-7-22.25,2.8-3.75,4.65-.3,5.5-.25Z"/>
            <path class="cls-40" d="M111.16,271.77l-1.5-22.5c1.23.08,2.24-1.8,3.75-1.5,0,12.53,4.13,33.33-2.25,24Z"/>
          </g>
          <g>
            <path class="cls-51" d="M124.66,258.27c1.67-6.02-.98-15.08,1.5-20,5.87,3.89,2.62,17.8,4.5,26.75-2.65-1.54-4.2-4.42-6-6.75Z"/>
            <path class="cls-42" d="M126.16,238.27c-2.48,4.92.17,13.98-1.5,20-6.25-8.06-10.04-13.9,1.5-20Z"/>
          </g>
          <g>
            <path class="cls-41" d="M148.16,236.27c-3.36-2.91-12.82-14.68-11-18.5.92-2.35,1.77-2.78,4.25-2.5,6.08,9.21,9.01,9.68,6.75,21Z"/>
            <path class="cls-58" d="M139.66,212.27c-2.79,2.12-5.52,6.85-2.5,5.5-1.82,3.82,7.64,15.59,11,18.5-.56,2.82-.52,4.51-4.5-.75-5.01-6.62-4.11-15.81-6,.5-1.16,1.54-1.91,1.17-2,1.25-1.58-3.92,1.21-12.55,1-13.75-.54-3.13-7.54-6.1-6.5-9.25.16.02.34-.02.5,0,.13.01.26,1.95,2.25,1.5,2.49-.57,7.96-13.31,6.75-3.5Z"/>
            <path class="cls-25" d="M134.16,238.27c-1.86,1.3-4-7.31-7.25-11-.78,0-3.47,11.09-8.75,12.5-2.2-.74,8.21-17.61,9.25-17.5,2.33,5.14,5.68,11.1,6.75,16Z"/>
          </g>
          <path class="cls-37" d="M211.16,214.77c-1.05-13.77,3.87-3.32,8-9.5,4.52,2.53,8.55,3.91,1.25,6.5-8.91-5.37-9.31-4.01-.75,1.75-5.17,5.57-5.79,1.73-8.5,1.25Z"/>
          <path class="cls-42" d="M151.66,208.27c-.89,1.86-3.41,4.85.25,1.5.35-.05-.29.86,1.25,1v.5c-5.85,2.73-5.25,2.74-5.5,6-.03.38-.08.55-.5.5-1.69-3.24-3.76-5.21-7.5-5.5,1.21-9.81-4.26,2.93-6.75,3.5-1.99.45-2.12-1.49-2.25-1.5.25-.45.66-1.16,1-1.5,1.88-1.9,4.67-4.53,5.5-7,3.48,3.49,10.94,7.54,14.5,2.5Z"/>
          <path class="cls-2" d="M96.16,280.27c4.3,1.19.76-16.73,1-24.5.33-.01.67.03,1,0,1.3-.11,2.84-1.4,4.5-1.25-4.92,3.62-1.64,19.92-2,28-5.68,2.22-4.18-1.54-4.5-2.25Z"/>
          <path class="cls-15" d="M104.16,346.77c-.87-.56-2.85-1.92-3.5-2.5-3.72-3.34-.68-1.64-2.5-5.5.78.26,14.05,7.06,14.5,7.75.13.2,1.2,4.52.75,4.75-3.7-1.13-6.04-2.44-9.25-4.5Z"/>
          <path class="cls-58" d="M28.66,193.77c.1.39-.25,1.03.5,1-2.84,1.98-7.35,3.18-10,6-.94-3.33-.87-5.39,1.5-8,6.94-3.24,7.01-6.61,7,1.75l1-.75Z"/>
          <path class="cls-50" d="M156.66,129.27c-3.39,2.74-10.61,10.63-9.5,14-1.49-2.1-.93-2.39-1-2.5,1.03-1.17,1.7-2.68,2.5-4,1.71-2.81,2.62-3.39,3.5-8.25.51-2.81-1.87-2.66.25-5.25,5.96-7.26,4.91,1.5,4.25,6Z"/>
          <path class="cls-18" d="M161.16,366.27c1.65,0,3.37.13,5,0l.5,2c-.13.03.5,1.13-2.25,1.5-6.13.82-17.17-.18-23.25-2l1-1c2.95.83,6.09-.92,9.75-.5,4.87.56,2.17,2.03,3.5,2.5,1.42.51,6.51.32,5.75-2.5Z"/>
          <path class="cls-35" d="M129.16,356.77c5.01,6.06,1.39,4.17,1.5,5.25.05.43,8.4,3.8,4-.75l1-.5c2.72,1.91,6.02,3.24,9.25,4,2.8,1.77-8.58.36-2.75,2l-1,1c-4.82-1.44-12.46-5.47-16-9,1.14-.3,2.64-1.92,3.5-2,.15-.01.35-.02.5,0Z"/>
          <path class="cls-15" d="M80.66,230.27c-.1,6.94-3.35,16.28-6.5,12,3.34-3.39,2.57-12.91,1.5-17.5,1.78.1,1.43,5.7,5,5.5Z"/>
          <path class="cls-5" d="M220.66,196.77c-.01.33.03.67,0,1-.11,1.23-1.92,1.3-3.5,4-5.46-2.78-11.53-4.56-17.5-5.75,6.99-.26,14.03.3,21,.75Z"/>
          <path class="cls-12" d="M76.66,216.77c1.49,2.91,2.9,5.73,3.5,9,.32,1.76.53,2.62.5,4.5-3.57.2-3.22-5.4-5-5.5-.67-2.89-1.42-5.27-3.5-7.5,1.31-2.08,2.43-.24,4.5-.5Z"/>
          <path class="cls-12" d="M116.66,231.77c-3.29,8.29-4.27,14.11-8.5,13.5-1.59-3.87,11.48-21.01,8.5-13.5Z"/>
          <g>
            <path class="cls-51" d="M156.16,273.27c1.25-7.27-2.65-15.26,1-22,.63.13,3.87,1.44,4,1.75.58,1.34-.3,21.94-.5,26-4.96,1.49-3.71-2.65-4.5-5.75Z"/>
            <path class="cls-42" d="M157.16,251.27c-3.65,6.74.25,14.73-1,22-.92-3.6-4.16-17.79-3.5-20.25.82-3.05,3.01-2.05,4.5-1.75Z"/>
          </g>
          <path class="cls-15" d="M28.66,193.77l-1,.75c.01-8.36-.06-4.99-7-1.75,9.94-23.11,4.95-10.92,8,1Z"/>
          <path class="cls-35" d="M213.16,288.27c-.07.24-.93.98-1,1-3.92.87-6.69,1.4-8-3-.05-.18.54-2.85.5-3,5.7-.89,5.86,1.14,8.5,5Z"/>
          <g>
            <path class="cls-17" d="M154.66,324.77c-.75.06-4.13,2.65-4.5,3-2.14-2.27-.87-3.45-1-5.5,1.52,1.58,5.1-3.67,6-5.25,4.45-7.8,1.67-12.14,5.25-13.75l1,15c10.28-10.18,6.71-13.62,6.25,7.25l-2.25-8.75-5.5,13c-1.9.08-.89-20.63-5.25-5Z"/>
            <path class="cls-53" d="M149.16,322.27c.13,2.05-1.14,3.23,1,5.5-.87.83-1.6,2.17-2.5,3-.75-2.41-1.27-9.43-1.75-9.5-2.95,12.81-6.31,29.26-10.75,11,5.09.79,10.36-7.85,6.5-11.5,8.16-18.52,6.04-21.03,7.5,1.5Z"/>
            <path class="cls-41" d="M141.66,320.77c3.86,3.65-1.41,12.29-6.5,11.5-.75-3.1-.58-6.44-1.5-9.5.02-.66.02-1.34,0-2,4.63-23.02,3.9-16.16,6.75,1.5l1.25-1.5Z"/>
            <path class="cls-58" d="M133.66,320.77c.02.66.02,1.34,0,2-.16,6.32.17,9.87-5.75,13.5-1.97-.72.12-15.01,2.75-18.75,3.78-5.37,2.88-1.34,3,3.25Z"/>
            <path class="cls-31" d="M154.66,324.77c-1.05,3.76-2.37,20.79-7,6,.9-.83,1.63-2.17,2.5-3,.37-.35,3.75-2.94,4.5-3Z"/>
          </g>
          <g>
            <g>
              <path class="cls-7" d="M79.16,257.27c.51,1.37.2,3.24.5,4.5-3.04,3.33-.21,23.23-2.25,24-4.92-2.1-3.86-2.84-4.25-4.5,5.21,1.04,1.15-19.99,1.5-28.5.94.1,4.39,4.2,4.5,4.5Z"/>
              <path class="cls-42" d="M74.66,252.77c-.35,8.51,3.71,29.54-1.5,28.5-1.17-4.97-.49-21.05-1.5-28.25l3-.25Z"/>
            </g>
            <g>
              <path class="cls-42" d="M85.16,254.77c.65,4.81.75,9.66,1,14.5.4,7.78,2.06,17.34-2,15.5-2.62-7.19-2.7-15.58-4.5-23-.3-1.26.01-3.13-.5-4.5,1.5-2.05,3.39-4.01,6-2.5Z"/>
              <path class="cls-39" d="M89.16,274.27c.09,9.55,2.47,14.66-3.25,14-2.34-1.17-1.55-2.94-1.75-3.5,4.06,1.84,2.4-7.72,2-15.5,3.29-1.43.76,4.92,3,5Z"/>
              <path class="cls-34" d="M89.16,274.27c-2.24-.08.29-6.43-3-5-.25-4.84-.35-9.69-1-14.5,5.18,2.35,3.88,7.5,4,19.5Z"/>
            </g>
          </g>
          <path class="cls-15" d="M76.41,290.27l1.25.25c-.85,3.28,3.9,16.02-2.25,10.75-2.09-1.79-2.52-10.33,1-11Z"/>
          <g>
            <path class="cls-10" d="M172.16,273.27l-1-23c5.73-6.45,5.29,17.32,5.5,26.25-3.35,1.79-3.69-1.2-4.5-3.25Z"/>
            <path class="cls-42" d="M171.16,250.27l1,23c-1.17-2.97-6.93-24.17-1-23Z"/>
          </g>
          <path class="cls-31" d="M147.66,127.77c-.31,2.96.04,2.62,0,2.75-.41,1.29-1.65,2.26-2.5,3.25-.66.77-1.3.71-2,2.5-.17-.32-.33-.68-.5-1-.91-4.7,2.76-8.55,3.5-13.5,2.95-.36,1.89,2.33,1.5,6Z"/>
          <path class="cls-20" d="M124.16,294.27c1.06,1.9,2.83,3.13,4,7-.9.07-.52.71-2,2l-5.5-4c.03-.06.8.2,1-.25.68-1.53-1.09-7.26,2.5-4.75Z"/>
          <path class="cls-47" d="M201.66,276.27c.18.29.33.7.5,1,.3.52,1.94,3.79,2,4,.15.49.25,1.18.5,2,.04.15-.55,2.82-.5,3-2.8-2.1-4.34-5.39-6.5-8l2-3.5c.11.16,1.93,1.39,2,1.5Z"/>
          <path class="cls-25" d="M98.16,255.77c-.33.03-.67-.01-1,0l-2.75-1.5c-5.32,3.37-.49,8.66-1.75,13.5-1.24-5.03-6.26-11.8.25-15.5,2.22-.35,4.07,1.86,5.25,3.5Z"/>
          <path class="cls-57" d="M142.66,139.77c1.63,2.47,7.17,10.58,9,12l-1.5,1.5c-.48-.8-2.72-2.58-3-3-.05-.07-.81.29-1.5-.75-.18-.27-.19-1.83-2.5-6-.15-.27-4.06-2.89-.5-3.75Z"/>
          <path class="cls-41" d="M166.66,168.77c1.13,1.08,2.28,2.03,3.5,3,.45.36,1.21,1.29,1.5,1.5l-.5,2.75c-3.61-.66-6.91-4.43-8.5-7.75,2.53.83,1.44-1.36,1.5-1.5,1.06-.22,1.22.79,2.5,2Z"/>
          <path class="cls-14" d="M213.16,296.77c3.04.92,2.34,5.15,2.5,8-5.76.83-3.41-1.66-6-6.75,1.06-.71,2.33-.86,3.5-1.25Z"/>
          <path class="cls-53" d="M146.16,121.77c-.74,4.95-4.41,8.8-3.5,13.5-.95-1.86-2.27-4.14-3-6l4.5-8c.41.03.77.76,2,.5Z"/>
          <path class="cls-37" d="M226.16,201.77l-4,3c-1.62-.97-3.34-2.15-5-3,1.58-2.7,3.39-2.77,3.5-4,1.09-.5,4.23,2.72,5.5,4Z"/>
          <path class="cls-47" d="M215.66,304.77c-.16-2.85.54-7.08-2.5-8,.52-.17,1.58.12,2.25,0,1.85-1.73-.2-1.39-.25-1.5-1.12-2.32-1.7-4.31-2.5-5.5-.04-.07.11-.55-.5-.5.07-.02.93-.76,1-1,3.78,5.53,4.34,9.5,5,16.25-.39.52-1.84.15-2.5.25Z"/>
          <path class="cls-42" d="M95.66,338.27c-.1-.02-.06,1.18-1.75,1-.7-.08-11.79-6.44-7.75-8,3.44,1.99,6.93,3.84,9.5,7Z"/>
          <path class="cls-35" d="M217.16,307.77c.53,6.26-.91,6.64-1,7-5.93-1.13-6.05-8.56,1-7Z"/>
          <path class="cls-42" d="M188.91,229.27c4.97,2.43,2.36,9.7.5,9.5-3.09,1.18-1.13-6.45-.5-9.5Z"/>
          <path class="cls-13" d="M148.66,136.77c-.8,1.32-1.47,2.83-2.5,4-.88-1.36-1.27-2.22-2-3.5,1.73.29,2.08-2.5,1-3.5.85-.99,2.09-1.96,2.5-3.25.04-.13-.31.21,0-2.75,4.28.66-2.12,8.43,1,9Z"/>
          <path class="cls-42" d="M140.66,345.77c-5.1-.79-7.82-2.43-13.5-1,6.36-8.61,5.09-3.53,9.25-.5l4.25,1.5Z"/>
          <path class="cls-53" d="M173.66,235.77c-3.23-3.99-2.77-1.15-3.5-1.75-.51-.41-4.1-9.87-4.5-12.25,1.79,3.41,6.1,8.57,7.5,11.25.06.12-.02,1.77.5,2.75Z"/>
          <path class="cls-14" d="M215.16,295.27c-6.95-.53-10.49-2-2.5-5.5.8,1.19,1.38,3.18,2.5,5.5Z"/>
          <path class="cls-23" d="M144.16,121.27l-4.5,8c-.31-.78-1.58-1.83-1.5-2.75.03-.31,2.4-2.97,3-5.5.59-.6,1.44.12,3,.25Z"/>
          <g>
            <path class="cls-42" d="M93.66,305.27c4.74,1.32.06,11.31-1.5,15-1.03-1.54-8.73-5.98-11-7.5-.87-.58-.13-.91-1-1.5-2.41-1.63-1.96-1.48-5-2.5-5.76-1.94,1.84-3.05,2.25-3,11.48,9.54,3.97,8.61,8.5-11l3.75,21.25c1.36.67,2.45-6.7,4-10.75Z"/>
            <path class="cls-15" d="M98.66,319.77c.04.34-.34.24,0,2,.21,1.09-1.05,1.6-1,1.75.4,1.3,4.23,2.13,6,6.25-10.77,6.67-4.06-1.95-4.5-2.75l-6.25,1.25c-.37-.21.76-4.2-.25-7-.02-.05-.47-.95-.5-1,1.56-3.69,6.24-13.68,1.5-15,6.63-17.27,3.24,5.92,3.5,12.25.01.36,1.44,1.8,1.5,2.25Z"/>
            <path class="cls-42" d="M107.66,328.27c1.38,1.22,2.38,3.05,3.5,4.5-.35,2.24-1.27,11.45-2.5,5.75-.9-4.18,1.79-7.07-2.75-1.25-.94-.13-1.46-5.67-2.25-7.5-1.77-4.12-5.6-4.95-6-6.25-.05-.15,1.21-.66,1-1.75,2.51,2.6,7.31,5,9,6.5Z"/>
            <path class="cls-41" d="M92.16,320.27s.48.95.5,1c-9.77,5.7-1.68-5.56-11.75-2l.25-6.5c2.27,1.52,9.97,5.96,11,7.5Z"/>
            <path class="cls-11" d="M106.16,321.27c-1.93-1.25-4.29-1.76-6.5-2l6.75-11c.63,4.37-.51,8.62-.25,13Z"/>
            <path class="cls-58" d="M106.16,321.27c.15,2.59.49,1.9.5,2,.05.36-.8.75-.5,1.75.2.69,3.28,2.16,1.5,3.25-1.69-1.5-6.49-3.9-9-6.5-.34-1.76.04-1.66,0-2,.45.06.54-.55,1-.5,2.21.24,4.57.75,6.5,2Z"/>
            <path class="cls-15" d="M111.16,332.77c-1.12-1.45-2.12-3.28-3.5-4.5,1.78-1.09-1.3-2.56-1.5-3.25-.3-1,.55-1.39.5-1.75,7.86-4.61,5.18,5.11,4.5,9.5Z"/>
            <path class="cls-24" d="M80.16,311.27c-2.3-.48-1.35,5.06-2.25,5.5-1.42-2.85-3.35-4.55-2.75-8,3.04,1.02,2.59.87,5,2.5Z"/>
          </g>
          <g>
            <path class="cls-5" d="M230.66,139.27c.15.16,2.63.44,3,3.25.25,1.93-2.96,33.84-3.5,38.75-.35-.04-.81.07-1,0-.05-.02-.96-.46-1-.5-2.14-1.95.43-14,.5-17.75.11-6.12-2.2-22.69,2-23.75Z"/>
            <path class="cls-17" d="M225.16,183.27c-2.91,2.33-6.51,6.11-10,7,2.44-3.3,4.03-2.95,5-7,1.82-7.6,1.47-28.07,2.5-37.25.06-.54.65-3.24,1.5-3.25.01.25,1.46,2.2,1.5,4.75.19,11.87-1.63,23.86-.5,35.75Z"/>
            <path class="cls-5" d="M230.66,139.27c-4.2,1.06-1.89,17.63-2,23.75-.07,3.75-2.64,15.8-.5,17.75-.73,1.06-2.01,1.71-3,2.5-1.13-11.89.69-23.88.5-35.75-.04-2.55-1.49-4.5-1.5-4.75-.45-11.15,1.5-8.69,6.5-3.5Z"/>
            <path class="cls-6" d="M230.16,181.27c-.87,7.94-.17,12.06-3.5,9.75l2.5-9.75c.19.07.65-.04,1,0Z"/>
          </g>
          <path class="cls-35" d="M207.16,280.77c-.24.01-1,.8-3,.5-.06-.21-1.7-3.48-2-4l4-2.5,1,6Z"/>
          <path class="cls-20" d="M207.16,280.77l-1-6c7.11,6.68,4.83,5.83,1,6Z"/>
          <path class="cls-9" d="M203.16,274.27c-.08.1.26,1.19-1.5,2-.07-.11-1.89-1.34-2-1.5-4.25-6.05-1.81-3.67,3.25-2l.25,1.5Z"/>
          <path class="cls-42" d="M69.41,299.77c8.96,3.72,3.51,6.11,3,6l-3-6Z"/>
          <path class="cls-15" d="M170.91,304.77c.26-.06,2.11,4.26,2.25,4.75,3.63,12.46-3.27.11-2.25-4.75Z"/>
          <path class="cls-57" d="M176.66,237.77c1.07,1.53,1.44,4.04,1,6-1.21-2.26-2.3-4.7-3.5-7,3.24-.35,2.3.72,2.5,1Z"/>
          <path class="cls-17" d="M150.16,341.27l-6,3c1.06-1.23,2.15-4.33,2.75-4.5,1.18-.32,2.11,1.33,3.25,1.5Z"/>
          <path class="cls-16" d="M223.16,205.77c-.89-.57-.94-.96-1-1l4-3c2.72,2.74-1.36,1.94-3,4Z"/>
          <path class="cls-53" d="M161.66,163.27c.65.92,1.47,1.96,2.5,2.5-.09.19.09.76,0,1-.06.14,1.03,2.33-1.5,1.5-.73-1.52-.67-3.53-2-4.75l1-.25Z"/>
          <path class="cls-32" d="M144.16,137.27c-.03-.06-.5-.06-1-1,.7-1.79,1.34-1.73,2-2.5,1.08,1,.73,3.79-1,3.5Z"/>
          <path class="cls-30" d="M162.16,336.77c-.94.59-2.04.99-3,1.5,1.4-3.22.51-5.81,3-1.5Z"/>
          <path class="cls-41" d="M48.66,245.27c-.03-.07-1.34-.84,0-1.5.12.34-.07,1.02,0,1.5Z"/>
          <path class="cls-44" d="M104.66,184.27c-.36,1.4.45,4.4.25,4.5-1.79.86-8.75-8.15-23.75-1.5-36.11,13.92-12.81,2.62,6.75,6,5.21.9,11.46,4.31,14.25,9,3.81,6.41,2.46,14.09,1,21-1.93,9.14,1.03-7.3-4.5-16.75-1.98-3.39-7.7-8.58-12-8.25-4.68-2.09-9.9-2.06-15-2-11.76.13-23.01,2.32-32.25,10l5-5.5c15.29-10.19,35.53-11.71,50.25-22.5l10,6Z"/>
          <path class="cls-41" d="M86.66,198.27c5.46,2.44,9.88,11.83,10.5,17.75.29,2.8.32,6.31-1.5,6.25-.41-5.24-3.88-11.71-8.5-14.5-9.89-3.17-9.03-3.79-19.5-4-2.08-.04-4.46-.16-6.5,0-5.5.42-10.43.45-15.5,3.5.09-5.83,16.32-9.01,21.75-10,2.08-.38,4.6.83,4.25-1,5.1-.06,10.32-.09,15,2Z"/>
          <path class="cls-15" d="M106.16,189.77c.79-.04.49,2.39.5,5-1.78-.34-.66,1.89-1,4-.97,6.12-.92,1.04-3.5,3.5-2.79-4.69-9.04-8.1-14.25-9-19.56-3.38-42.86,7.92-6.75-6,10.45-.9,14.64-.56,23.75,5,2.07.34.91-1.34,1.25-2.5Z"/>
          <path class="cls-41" d="M104.66,184.27l-10-6c8.84-6.47,15.61-15.58,21.75-24.5-2.4,8.12-9.96,23.53-11.75,30.5Z"/>
          <path class="cls-50" d="M44.66,193.77c2.5-.77,3.94-.86,6.5-1,16.84-.95-3.38,2.07-7.25,3-1.77.42-15.41,6.42-4,0,1.29-.72,3.33-1.56,4.75-2Z"/>
          <path class="cls-42" d="M44.66,181.77c.59,1.92,1.13,9,2,9.75.92.8,4.31-1.79,4.5,1.25-2.56.14-4,.23-6.5,1-3.49-10.45-.94-11.38-1-12h1Z"/>
          <path class="cls-13" d="M61.16,203.77v.5c-2.02,0-5.81.5-7.75,1-3.85.99-7.76,4.18-10.75,5,.51-.54,2.82-2.89,3-3,5.07-3.05,10-3.08,15.5-3.5Z"/>
          <g>
            <path class="cls-42" d="M118.16,149.77c-1.17-1.1-3.55-2.03-4.5-3.5.8-1.42,1.32-11.38,1-13.5-.99-6.62-5.34-6.48-1.75-11,2.13-.41,10.06,1.19,10.75,3.25.25.76-.32,12.64-4,10,10.08,4.9,4.74,2.7-1.5,14.75Z"/>
            <path class="cls-57" d="M113.66,132.27s.79.44,1,.5c.32,2.12-.2,12.08-1,13.5-.04.06-1.07-.26-1,.5-.41-.36-2.41-1.39-2.5-1.5-2.71-3.25-2.37-6.55-2-11l5.5-2Z"/>
            <path class="cls-57" d="M113.66,132.27l-5.5,2c1.03-12.48,2.62-7.12,5.5-2Z"/>
            <path class="cls-44" d="M113.66,146.27c.95,1.47,3.33,2.4,4.5,3.5,4.4,4.14-.59,1.39-5.5-3-.07-.76.96-.44,1-.5Z"/>
          </g>
          <path class="cls-44" d="M193.16,355.27l-3,7.5c-.23-.2-.72.53-.75.5-.54-.54-.08-1.62-.25-1.75-3.95-3.02-9.09,4.6-9.75,4.75-1.61.37-2.53-1.21-4.5-1-.68.07-3.94,2.72-5,3-.84.22-2.37-.21-3.25,0l-.5-2c10.52-.83,18.48-5.18,27-11Z"/>
          <path class="cls-28" d="M202.66,344.27c2.88-6.91,6.51-11.87,8-19.5,2.4,1.99,5.51,9.77,0,4.75-.71.44-3.81,10.13-5,12-.63.98-2.65,2.28-3,2.75Z"/>
          <path class="cls-44" d="M195.16,353.77c1.88-3.02,4.27-5.74,6.5-8.5.42,7-6,8.15-6.5,8.5Z"/>
          <path class="cls-42" d="M87.16,207.77c6.23,8.46,7.62,20.38,5.5,30.5-.01.05-.69-.18-.5,1l-2-.25c2.45-8.22,1.81-27.18-3.5-22.75-2-7.41-11.83-11.99-19-12.5,10.47.21,9.61.83,19.5,4Z"/>
          <path class="cls-44" d="M67.66,203.77c7.17.51,17,5.09,19,12.5.71,2.64.75,10.3.5,13.25-1.11,13.31-.87,1.17-1.5-3.25-1.29-9.01-6.97-16.59-15.5-20-3.24-1.3-5.39-2-9-2v-.5c2.04-.16,4.42-.04,6.5,0Z"/>
          <path class="cls-42" d="M85.66,226.27c-1.64,9.3-.21-7.17-5.5-.5-.6-3.27-2.01-6.09-3.5-9-1.87-3.66-1.76-6.7-6.5-7.5-1.52-1.01-1.21-1.85,0-3,8.53,3.41,14.21,10.99,15.5,20Z"/>
          <path class="cls-44" d="M95.66,222.27c.26,3.28-.97,13.59-2.5,16h-.5c2.12-10.12.73-22.04-5.5-30.5,4.62,2.79,8.09,9.26,8.5,14.5Z"/>
          <path class="cls-44" d="M107.66,232.77l5.5-20.5c.44-1.26,3.89.54,4,1.25-3.98,6.04-6.05,12.93-9.5,19.25Z"/>
          <path class="cls-44" d="M131.16,212.27s.55-.12.5.5c-.34.34-.75,1.05-1,1.5-.16-.02-.34.02-.5,0-3.06-.32-11.85,9.34-13.25,12.5-1.05-.38,5.28-14.49,14.25-14.5Z"/>
          <path class="cls-31" d="M93.16,238.27c-.25.4-.39.99-1,1-.19-1.18.49-.95.5-1h.5Z"/>
          <path class="cls-44" d="M190.16,210.27c-4.21,2.22-7.93,5.18-10.75,9-.58-.09,3.19-10.54-3.5,1.5-.79-2.19-.01-4,.75-6,3.98-10.45,26.1-12.95,35-8.25-9.35-.63-13.27-.6-21.5,3.75Z"/>
          <path class="cls-44" d="M174.16,215.27c-.44,2.86-.68,5.61-.5,8.5,8.26,26.74-4.53,1.44-3-7.75,9.89-18.49,4.81-9.3,3.5-.75Z"/>
          <path class="cls-44" d="M180.16,185.77c-4.01-.65-12.55-1.38-15.5,0-1.68.79-4.25,3.42-5.5,5-.35-1.57-.23-3.48-.5-5,7.08-10.51,7.21-5.07,15.75-2,2.32.83,6.14.6,5.75,2Z"/>
          <path class="cls-44" d="M150.16,153.27c2.98,4.94,4.53,11.73,7.5,16.75-.82,1.85-11.2-17.3-10.5-19.75.28.42,2.52,2.2,3,3Z"/>
          <path class="cls-55" d="M123.66,350.27c1.68,1.22,2.17,3.74,3,5.5-.89.4-1.99,1.64-2.5,2.5-.46-.54-3.53-6.82-4-8-.28-.7-.49-.47-.5-.5,1.23-1.27,2.83-.35,4,.5Z"/>
          <path class="cls-28" d="M128.66,356.77c-.86.08-2.36,1.7-3.5,2-.05-.05-.35.26-1-.5.51-.86,1.61-2.1,2.5-2.5,1.18-.53,2.93-.96,2,1Z"/>
          <path class="cls-35" d="M120.16,316.27c-.81,6.07-.45,12.4-1,18.5h-2.5c0-.05-.97.16-1-.25-.39-4.67.5-6.89.5-7.25,4.48,2.42,4.06-4.23,0-4.5,0-.17-.29-.21,0-3.5.11-1.28-.19-2.81,0-4l4,1Z"/>
          <path class="cls-44" d="M120.66,299.27l5.5,4c-.92.8.6,3.23-4,.5-5.19-3.08-1.62-4.2-1.5-4.5Z"/>
          <path class="cls-44" d="M120.66,313.77c-.1.48-.48,2.37-.5,2.5l-4-1c.38-2.4-.94-3.66,4.5-1.5Z"/>
          <path class="cls-44" d="M122.16,307.77c.01.08,1.37-.44,1,1.25-.37,1.71-1.95,1.14-2,1.25-5.64-3.09-5.35-4.93,1-2.5Z"/>
          <g>
            <path class="cls-48" d="M87.66,148.27c-3.42,1.58-3.03,4.42-5-2-2.58-8.39,2.57-8.86,9.25-16.5,2.48,0-.13,8.48-.75,9.75,9.65.74,13.93-5.28,6.25,7.75-2.2,1.35.7-3.67-6.5-2-2.33.54-2.05,1.72-3.25,3Z"/>
            <path class="cls-48" d="M80.16,147.77c-.15.18-1.92,2.84-2,3l-9.5-3c-1.15-.95-3.67-1.77-3.5-3.75.05-.62,5.78-10.19,6.75-10.25,9.42,3.6,5.21,5.67,8.25,14Z"/>
            <path class="cls-48" d="M48.41,161.77c8.46,8.34,14.94,8.55,7.75,15.25,2.73,5.34,4.61-4.97,8-2l-5.75,7.25c-10.1-2.1-5.6-7.63-10-20.5Z"/>
            <path class="cls-46" d="M79.66,163.77l6.5,10.75c-5.44,5.2-4.84,2.58-8.5-1.75-1.27-4.47-2.26-4.33-2.5-5.5-.06-.28-.04-.7,0-1,0-.08.46-1.43.5-1.5.53-.8,1.57-.69,2-1.5,1.33.23,1.9.5,2,.5Z"/>
            <path class="cls-49" d="M83.66,159.77c.94.02,1.1.5,2,.5,1.64.78,4.72,3.11,5.5,4.5,2.02,3.61,2.37,6.55-1.75,8-1.49-8.17-7.18-7.86-8.75-9.5-4.78-5.01.47-3.57,3-3.5Z"/>
            <path class="cls-45" d="M94.66,149.77c.16,1.39-.23,3.24,0,4.5-3.18,4.86-2.92,5.97-9,6-.9,0-1.06-.48-2-.5,2.71-2.49,4.05.1,4.5-.75l-.5-8.25c3.23-1.5,3.66-1,7-1Z"/>
            <path class="cls-45" d="M82.66,146.27c1.97,6.42,1.58,3.58,5,2-2.01,2.14-2.35,3.82-2.5,4-2.92,3.66-5.14,8.58-8.5,2.25,1.21-.77.93-2.59,1.5-3.75.08-.16,1.85-2.82,2-3,.38-.46,1.76-1.57,2.5-1.5Z"/>
            <path class="cls-45" d="M58.16,166.27c-6.26-5.24,1.27-4.06,8-5.5l2,.75c.93,4.66-1.02,1.99-2.75,2.75-3.66,1.61-2.75,3.74-7.25,2Z"/>
            <path class="cls-8" d="M97.66,156.77c-.14,0,.15-2.46-2,0,.25-2.61-.98-2.37-1-2.5-.23-1.26.16-3.11,0-4.5.21,0,2.89-.99,4.25-.5.47.17,3.3,4.36,4.75,5.25-.09,1.11-5.05,2.3-6,2.25Z"/>
            <path class="cls-45" d="M68.66,182.77c-2.1.48-4.39,1.17-6.5,1.5,3.29-8.03,13.92-17.47,6.5-1.5Z"/>
            <path class="cls-1" d="M77.66,172.77c.1.34-.47,5.37,2,6.5-.16.06-.29.6-3,1.5-.53-1.61-1.64-6.65-2-7.25-.31-.53-5.58.72.5-6.25.24,1.17,1.23,1.03,2.5,5.5Z"/>
            <path class="cls-38" d="M71.16,153.77c-1.56,4.11-2.85,4.57-7.5,4.5-1.26-.79-.07-2.49,0-3.5.74-.23,1.63-2.74,7.5-1Z"/>
            <path class="cls-29" d="M95.66,156.77c-.27,2.85-4.29,4.96-4.5,5.25-.03.04.65.45.5.75-.07.13-1.59-.75-.5,2-.78-1.39-3.86-3.72-5.5-4.5,6.08-.03,5.82-1.14,9-6,.02.13,1.25-.11,1,2.5Z"/>
            <path class="cls-45" d="M97.66,156.77c-2.92,5.18,9.82,6.83-6,6,.15-.3-.53-.71-.5-.75.21-.29,4.23-2.4,4.5-5.25,2.15-2.46,1.86,0,2,0Z"/>
            <g>
              <path class="cls-48" d="M63.66,153.77c-.08.1-2.09-.12-1,1.5-5.4.41-9.11-4.13-8-9.5,3.39-3.77.04-4.12,8.75-3.5.67,3.8,2.59,8.36.25,11.5Z"/>
              <path class="cls-4" d="M62.66,155.27c-7.71,2.38-6.59,1.75-12.5-4.25,1.34-1.91,2.95-3.53,4.5-5.25-1.11,5.37,2.6,9.91,8,9.5Z"/>
              <path class="cls-4" d="M63.66,153.77c-.01.33.02.67,0,1-.42.13-.58.37-1,.5-1.09-1.62.92-1.4,1-1.5Z"/>
            </g>
            <g>
              <path class="cls-3" d="M78.16,150.77c-.57,1.16-.29,2.98-1.5,3.75,3.36,6.33,5.58,1.41,8.5-2.25.22,1.25,1.09-.85,2.5-1.5l.5,8.25c-.45.85-1.79-1.74-4.5.75-2.53-.07-7.78-1.51-3,3.5-1.19-.19-.94.5-1,.5-.1,0-.67-.27-2-.5-.19-.03-.02-2.71-3,.25l1,1.25c-.04.07-.49,1.42-.5,1.5-3.47-1.8-3.1,9.4-10.5,7.25l-.5-5c9.23-1.16,11.52-6.2.75-2.75-1.13.36-1.68,4.74-6.75.5,4.5,1.74,3.59-.39,7.25-2,1.73-.76,3.68,1.91,2.75-2.75l-2-.75c.71-.15,4.49-.33,4.5-1.25-2.14-2.24-5.62,1.46-7-1.25,4.65.07,5.94-.39,7.5-4.5.3-.78,1.65-3.26,1.5-3.75-.12-.38-3.43-1.78-4-2.25l9.5,3Z"/>
              <g>
                <path class="cls-43" d="M77.66,163.27c-.43.81-1.47.7-2,1.5l-1-1.25c2.98-2.96,2.81-.28,3-.25Z"/>
                <path class="cls-54" d="M76.91,156.77c2.6.74.49,2.85-.25.25l.25-.25Z"/>
                <path class="cls-26" d="M74.91,160.27l.75.75c-1.66,1.9-1.98,1.38-.75-.75Z"/>
                <path class="cls-36" d="M73.41,156.27c.51-.19,1.26.67,1.25.75-.08.83-2.02-.46-1.25-.75Z"/>
                <path class="cls-54" d="M78.41,161.27c.3.75.99,1.49.5,1.5-.9.34-1.04-1.26-.5-1.5Z"/>
              </g>
            </g>
          </g>
          <path class="cls-14" d="M119.16,337.77c1.69-.19,1.26,6.04,2,8l-2.5,1.5c-.35-1.3-.39-2.67-.5-4-.63-7.89.95-5.17,1-5.5Z"/>
          <path class="cls-44" d="M119.16,334.77c-.01.15.48-.14,0,3-.05.33-1.63-2.39-1,5.5-3.36-4.01-1.45-8.03-1.5-8.5h2.5Z"/>
          <path class="cls-28" d="M134.66,361.27c4.4,4.55-3.95,1.18-4,.75-.11-1.08,3.51.81-1.5-5.25.72.1,4.71,3.68,5.5,4.5Z"/>
          <path class="cls-44" d="M123.66,350.27c-1.17-.85-2.77-1.77-4-.5-.31-.86-.74-1.54-1-2.5l2.5-1.5c.1.27,4.02,2.44,2.5,4.5Z"/>
          <path class="cls-44" d="M106.66,194.77c0,5.08.83,15.33-1,4,.34-2.11-.78-4.34,1-4Z"/>
          <g>
            <path class="cls-42" d="M205.41,234.27c1.55.29-2.36,27.21-3.25,29.75l-1.75.75c-8.43-10.78,1.85-20.33,5-30.5Z"/>
            <path class="cls-41" d="M204.41,239.27c-.34,8.87-3.1,8.25-1.25,2.25.04-.13.85-1.18,1.25-2.25Z"/>
          </g>
          <path class="cls-44" d="M116.16,327.27c-.02-1.67-.1-2.76,0-4.5,4.06.27,4.48,6.92,0,4.5Z"/>
          <g>
            <path class="cls-58" d="M150.16,219.77c2.49,3.51,2.92,8.96,4,13,1.02,3.82,2.36,7.58,3,11.5-1.15-.05-2.18.38-3-.75-.78-1.08-4.83-21.59-7-25.75.42.05.47-.12.5-.5,1.6,3.02,2.4,2.36,2.5,2.5Z"/>
            <path class="cls-53" d="M158.66,226.77c.06.12-.11.55.5.5.24.67.27,1.38.5,2-2.23,4.99,2.99,14.2-2.5,15-.64-3.92-1.98-7.68-3-11.5,4.12.1,1.96-2.85,1.5-5l3-1Z"/>
            <path class="cls-50" d="M159.16,227.27c-.61.05-.44-.38-.5-.5-2.31-4.75-5.01-10.2-5.5-15.5v-.5c.64.06,1.01-1.34,1.5-.75.47.57,3.83,12,4.5,14,.75,2.26-.05,3.1,0,3.25Z"/>
            <path class="cls-5" d="M153.16,211.27c.49,5.3,3.19,10.75,5.5,15.5l-3,1c-.81-3.84-6.21-15.84-5.5-8-.1-.14-.9.52-2.5-2.5.25-3.26-.35-3.27,5.5-6Z"/>
            <path class="cls-17" d="M155.66,227.77c.46,2.15,2.62,5.1-1.5,5-1.08-4.04-1.51-9.49-4-13-.71-7.84,4.69,4.16,5.5,8Z"/>
          </g>
          <g>
            <path class="cls-48" d="M197.16,146.77c-.45.59-1.26.9-2,2-4.05-1.35-8.54.23-12.5,0-1.86-.11-3.09-5.07-5.5-1-.85-2.38-.13-4.78-4-3l-1.5,5.5c-.56.32-2.07.33-2.5.5l-5-8.25c7.56-5.48,8.93.79,8.75-11.25,7.11,2.76,5.36,6.53,7.5,13.5l9-11c8.01,3.92,4.73,7.99,7.75,13Z"/>
            <path class="cls-48" d="M205.66,184.77c2.84-1.99.96-9.56-3.5-8.5-.12-2.1.03-4.17-.5-6.25,6.93-2.95,1.27-1.3,0-1.75-.89-.31-2.24-1.93-3-2.5l3.5-4c7.32,2.11,9.47-3,10.5,5.75-10,2.32-5.72,2.78-4.5,17l-2.5.25Z"/>
            <path class="cls-48" d="M210.16,146.27c-1.42,2.77-4.53,9.63-8.25,8-1.46-6.39-4.46-7.02-4.75-7.5,7.46-9.69,6.97-8.97,13-.5Z"/>
            <path class="cls-45" d="M171.16,151.27c-.76,5.59,1.22,4.84,2,0,2.01.32,2.59-.23,6,3-.65.72.28,3.76-.75,4-.15.04-1.14-1.29-2.75-1.5-9.68-1.24-13.29,4.76-14.5-3.75.19-.41,4.7-.82,7.5-1.75.82.62,1.07.04,2.5,0Z"/>
            <path class="cls-45" d="M191.16,150.77c.36,1.9-.77,3.18-.5,3.75.39.81,1.33-.41,1.5-.25.85.81,2.88,2.96,3,4-.72.31-2.33-.65-2,1-1.54,0-.64-1.12-1.75-1-.16.02-2.34,1.97-2.5,2-.47.11-1-.97-3.25,0-.52.22-2.39.92-2.5,1-.89-.9-1.85-1.05-3-.5-.06-.23-.46-.96-.5-1,2.95.16,1.32-1.55,1.5-1.75,1.22-1.39,4.27-2.61,4.5-3,.79-1.35-.41-.61-.5-3.25,3.81-.04,3.6,2.58,6-1Z"/>
            <path class="cls-45" d="M183.16,161.27c-.34.27-2.14,3.41-5,7-1.57,1.96-3.13,3.88-4.5,6-.62-.38-1.42-.58-2-1-.29-.21-1.05-1.14-1.5-1.5,2.97-2.04,7.55-9.84,10-11,1.15-.55,2.11-.4,3,.5Z"/>
            <path class="cls-45" d="M197.16,154.77c-.22-.04-.69-1.92-4-1.5,2.45-3.2,1.86-4.3,2-4.5.74-1.1,1.55-1.41,2-2,.29.48,3.29,1.11,4.75,7.5,3.72,1.63,6.83-5.23,8.25-8,1.46.83-4.24,8.83-4.75,9-.39.13-7.84-.42-8.25-.5Z"/>
            <path class="cls-1" d="M196.66,167.27c.31,1.62,1.02,3.38,1.5,7.5.16,1.39.42,2.56.5,4,.14,2.57,2.06,5.27-1.5,6-1.82-.47-1.41-.98-1.5-1-2.75-10.57.79-6.08,1.5-7.25.63-1.03-.09-10.05-5-9,1.53-1.46,2.83-1.79,4.5-.25Z"/>
            <path class="cls-8" d="M166.66,168.77c-1.28-1.21-1.44-2.22-2.5-2,.09-.24-.09-.81,0-1,1.59-3.19,7.5-10.64,10.5-5.75l-8,8.75Z"/>
            <path class="cls-43" d="M177.16,147.77c.39,1.1.13,3.92,2.5,6,.06.61-.48.47-.5.5-3.41-3.23-3.99-2.68-6-3-.58-.09-1.37-.02-2,0-1.43.04-1.68.62-2.5,0,.03-.01-.2-.22.5-.5.43-.17,1.94-.18,2.5-.5,2.63-1.52,1.2-2.48,1.5-5.5,3.87-1.78,3.15.62,4,3Z"/>
            <path class="cls-49" d="M202.16,161.77l-3.5,4c-.38-.29-1.37-.86-1.5-1-1.41-1.55-4.25-3.75-2-5.5,6.35.66,5.9,2.18,7,2.5Z"/>
            <path class="cls-48" d="M185.66,149.27c-.6.85-.53,1.52-.5,2.5.09,2.64,1.29,1.9.5,3.25-.23.39-3.28,1.61-4.5,3-.18.2,1.45,1.91-1.5,1.75-1.1-.97-3.32-1.36-4-3,1.61.21,2.6,1.54,2.75,1.5,1.03-.24.1-3.28.75-4,.02-.03.56.11.5-.5,4.47,3.93,5.52-2.64,3.5-4.5,1.4-.58,1.78.07,2.5,0Z"/>
            <path class="cls-4" d="M205.66,184.77c-3.47-.66-2.5-2.82-3-5.5-.06-.33-.36-.61-.5-3,4.46-1.06,6.34,6.51,3.5,8.5Z"/>
            <path class="cls-43" d="M202.16,176.27c.14,2.39.44,2.67.5,3l-4-.5c-.08-1.44-.34-2.61-.5-4,3.2-1.2,2.51-4.27,3.5-6.5,1.27.45,6.93-1.2,0,1.75.53,2.08.38,4.15.5,6.25Z"/>
            <path class="cls-59" d="M193.16,159.27c.65,0,1.35-.07,2,0-2.25,1.75.59,3.95,2,5.5-.43-.05-.46.12-.5.5-7.51-8.96-7.58-3.13-8.25-3-.95.18-.1-.6-1.75-1.5-.22-.12-1.04.29-1-.5,2.25-.97,2.78.11,3.25,0,.16-.03,2.34-1.98,2.5-2,1.11-.12.21,1.01,1.75,1Z"/>
            <path class="cls-19" d="M212.91,175.77c4.01,8.72-3.77,5.03-3.75,3.75l3.75-3.75Z"/>
            <path class="cls-49" d="M197.16,154.77c.2,2.41.05,2.6-2,3.5-.12-1.04-2.15-3.19-3-4,.08-.77.96-.94,1-1,3.31-.42,3.78,1.46,4,1.5Z"/>
            <path class="cls-44" d="M180.16,171.27c-.53,1.93-1.88,3.45-2,5.5-1.31-.74-3.14-1.22-4.5-2,.07-.12-.08-.38,0-.5,1.37-2.12,2.93-4.04,4.5-6,3.69.21,2.74.29,2,3Z"/>
            <path class="cls-45" d="M182.66,148.77c.61-.06.47.48.5.5,2.02,1.86.97,8.43-3.5,4.5-2.37-2.08-2.11-4.9-2.5-6,2.41-4.07,3.64.89,5.5,1Z"/>
            <path class="cls-43" d="M195.16,148.77c-.14.2.45,1.3-2,4.5-.04.06-.92.23-1,1-.17-.16-1.11,1.06-1.5.25-.27-.57.86-1.85.5-3.75-.64-3.39-3.02-1.74-5.5-1.5-.72.07-1.1-.58-2.5,0-.03-.02.11-.56-.5-.5,3.96.23,8.45-1.35,12.5,0Z"/>
            <path class="cls-26" d="M171.66,150.27l1.5-5.5c-.3,3.02,1.13,3.98-1.5,5.5Z"/>
            <path class="cls-49" d="M196.66,165.27c-.06.53-.09,1.52,0,2-1.67-1.54-2.97-1.21-4.5.25,4.91-1.05,5.63,7.97,5,9-.71,1.17-4.25-3.32-1.5,7.25-.35-.1-.02.47-1.5,0-.03-21.11-4.08-8.2-5.25-8-.72.13-2.79-4.26-4.75-2.5.64-2.24-.77-3.59-3-2.5.98-2.28,1.87-4.81,3-7,3.23-3.13,1.62,5.55,6.5,7.75,4.3-8.3-6.06-7.62-4-10.25v-.5c1.65.9.8,1.68,1.75,1.5.67-.13.74-5.96,8.25,3Z"/>
            <path class="cls-44" d="M194.16,183.77c-2.91-.92-5.67-1.81-8.5-3,3.9-4.87-.97-7.86-2.5-1.5-.09-.04-.66.18-2-.5.56-2.1,2.4-3.41,3-5.5,1.96-1.76,4.03,2.63,4.75,2.5,1.17-.2,5.22-13.11,5.25,8Z"/>
            <path class="cls-3" d="M184.16,173.27c-.6,2.09-2.44,3.4-3,5.5-3.09-1.57-2.84-1.91-3-2,.12-2.05,1.47-3.57,2-5.5.38-.07.65-.33,1-.5,2.23-1.09,3.64.26,3,2.5Z"/>
            <path class="cls-49" d="M185.66,180.77c-3.48-1.47-2.37-1.44-2.5-1.5,1.53-6.36,6.4-3.37,2.5,1.5Z"/>
            <path class="cls-28" d="M198.66,165.77c.76.57,2.11,2.19,3,2.5-.99,2.23-.3,5.3-3.5,6.5-.48-4.12-1.19-5.88-1.5-7.5-.09-.48-.06-1.47,0-2,.04-.38.07-.55.5-.5.13.14,1.12.71,1.5,1Z"/>
            <path class="cls-45" d="M173.16,151.27c-.78,4.84-2.76,5.59-2,0,.63-.02,1.42-.09,2,0Z"/>
            <path class="cls-43" d="M186.66,160.77v.5c-1.47.29-1.88,1.3-2.5,2.5-1.13,2.19-2.02,4.72-3,7-.35.17-.62.43-1,.5.74-2.71,1.69-2.79-2-3,2.86-3.59,4.66-6.73,5-7,.11-.08,1.98-.78,2.5-1-.04.79.78.38,1,.5Z"/>
            <path class="cls-45" d="M191.16,150.77c-2.4,3.58-2.19.96-6,1-.03-.98-.1-1.65.5-2.5,2.48-.24,4.86-1.89,5.5,1.5Z"/>
            <path class="cls-44" d="M186.66,161.27c-2.06,2.63,8.3,1.95,4,10.25-4.88-2.2-3.27-10.88-6.5-7.75.62-1.2,1.03-2.21,2.5-2.5Z"/>
          </g>
        </g>
      </g>
    </g>
  </g>
</svg>