<?xml version="1.0" encoding="UTF-8"?>
<svg id="Lag_2" data-name="Lag 2" xmlns="http://www.w3.org/2000/svg" viewBox="0 0 357.29 466.99">
  <defs>
    <style>
      .cls-1 {
        fill: #424245;
      }

      .cls-1, .cls-2, .cls-3, .cls-4 {
        stroke-width: 0px;
      }

      .cls-2 {
        fill: #fccbb2;
      }

      .cls-3 {
        fill: #fff;
      }

      .cls-4 {
        fill: #08080a;
      }
    </style>
  </defs>
  <g id="Lag_2-2" data-name="Lag 2">
    <path class="cls-4" d="M261.44,203.57c-1.76-2.82-4.18-4.66-5.62-5.72-.21-.15-4.11-2.98-7.99-3.95-9.52-2.36-18.91,6.53-19.62,7.22-.56.56-.99,1.31-1.24,2.27-2.6,10.32-3.58,24.25,8.49,28.98,4.92,1.93,11.99,2.19,16.96.39,5.55-2.01,7.85-7.42,9.65-12.61,1.92-5.51,2.58-11.42-.63-16.59Z"/>
    <path class="cls-4" d="M200.65,268.18c-8.56-6.19-23.21-5.66-31.81.53-5.17,3.73-.19,12.41,5.05,8.63,3.21-2.31,6.58-2.96,10.46-3.18,4.39-.25,7.58-.01,11.25,2.64,5.22,3.78,10.22-4.9,5.05-8.63Z"/>
    <path class="cls-1" d="M348.44,207.12c-.02-.1-.06-.19-.09-.29-.09-1.78-.27-3.55-.52-5.32,0-.03,0-.05-.01-.08-1.63-11.28-6.29-22.36-10.91-32.78-.03-.07-.07-.13-.1-.19-.21-4.78-1.59-9.25-3.22-13.7-1.04-12.13-2.49-24.21-4.32-36.26-.15-.95-.5-1.74-.99-2.36-.1-2.42-.57-4.85-1.12-7.3-1.06-4.76-1.89-9.54-2.86-14.32-1.89-9.38-5.37-18-12.36-24.66-4.03-7.91-8.8-15.45-14.36-22.46-8.35-10.52-19.11-18.55-31.02-24.66-11.37-5.83-23.48-10.93-36.18-12.78-.93-.77-2.13-1.24-3.59-1.18-5.69.21-11.37.6-17.05,1.01-4.54-.8-10.17-1.23-13.51.9-2.95.17-5.89.31-8.84.39-6.33.18-12.6-.03-18.91-.45-2.17-.15-4.43-.29-6.63-.15-.42-.22-.88-.41-1.4-.55-13.9-3.66-28.15-1.36-41.71,2.65-11.96,3.53-23.71,8.33-34.42,14.74-10.72,6.42-20.47,14.53-28.22,24.36-7.1,9.01-15.37,19.52-16.16,31.24-1.21,2.55-2.3,5.17-3.3,7.86-.33.89-.44,1.72-.39,2.48-1.28,2.85-2.62,5.67-3.17,8.78-.7,3.96-.86,8.03-1.44,12.02-1.19,8.31-2.44,16.61-3.65,24.92-.08.57-.09,1.11-.04,1.63,0,.03,0,.05-.01.08-1.34,2.8-2.27,5.7-2.77,8.05-.82,3.88-.73,7.81-.79,11.74-2.39,8.25-4.12,16.68-5.69,25.2-2.08,4.04-3.9,8.22-5.22,12.57-.04.12-.06.23-.09.35-1.19,3.01-2.19,6.08-2.76,9.22-.36,1.36-.65,2.76-.81,4.22-.11,1.06.02,1.96.33,2.73.04.72.09,1.44.19,2.17.05.35.12.69.2,1.02,0,1.13.1,2.27.31,3.43.23,1.22.6,2.4,1.03,3.56.61,4.11,1.84,7.98,3.76,11.75.61,1.71,1.21,3.43,1.74,5.19,2.22,7.38,3.37,14.92,3.64,22.62-.31.64-.48,1.35-.43,2.09.22,3.32.25,6.86,1.58,9.95,1.05,2.42,2.79,4,4.91,5.11,1.49,1.16,3.04,2.26,4.67,3.23,2.33,1.38,5.91,2.1,7.94,3.82,1.98,1.68,2.52,5.87,3.28,8.22,1.16,3.57,2.31,7.14,3.47,10.7.81,2.5,2.92,3.54,4.98,3.46,5.44,2.34,10.88,4.67,16.32,7.01,5.61,2.41,11.34,5.51,17.19,7.29,9.06,2.75,9.9-6.81,9.37-14.88,2.11-6.25.28-14.21-.07-20.57-.44-7.91-.89-15.81-1.33-23.72.57-1.13.79-2.49.44-4.04-.84-3.71-1.54-7.44-2.1-11.18.18-3.19.05-6.36-1.11-9.45-.31-3.54-.5-7.1-.57-10.68-.03-1.47-.47-2.65-1.17-3.56-.18-3.63-.31-7.26-.53-10.89-.53-8.72-1.92-17.33-2.97-26-.92-7.64-1.45-15.31-.83-22.98.3-.68.49-1.45.52-2.32.04-1.13.09-2.26.14-3.38.16-1.13.33-2.25.5-3.37.34-1.46.69-2.91,1.03-4.37,1.59-.89,2.68-2.55,2.51-5-.14-2.05-.05-4.08.19-6.09.94-3.74,1.89-7.47,2.89-11.19,2.72-7.11,6.71-13.94,10-20.42,2.7-5.32,5.39-10.7,8.22-16.01,9.16-8.87,15.62-20.21,25.71-28.25,7.85-6.26,17.18-10.15,26.94-12.12.34.05.7.07,1.08.06,16.11-.55,32.22-.74,48.33-.58.33.2.69.38,1.07.53,13.82,5.59,26.5,11.77,35.91,23.73,4.28,5.45,7.95,11.4,11.66,17.25,3.12,4.92,6.17,9.9,8.64,15.16.68,3.09,1.26,5.82,3.89,8.25.7.65,1.51,1.07,2.38,1.31,2.96,10.15,5.66,20.37,8.09,30.66.24,1,.74,1.83,1.4,2.48.18,5.53,1.04,11.04,1.8,16.64,1.17,8.59,2.19,17.2,2.93,25.84-1.8,16.74-2.14,33.6-.9,50.44.05.65.19,1.25.39,1.79-.37,5.08-.41,10.15.65,15.24.14.68.37,1.26.65,1.76-.62,7.54.34,15.04,1.05,22.53-.43,6.8-.79,13.6-1.06,20.41-1.28.68-2.64,1.25-4.11,1.65-.1.03-.17.06-.24.09-.02-.07-.05-.13-.08-.21-.6-1.44-.91-3.07-1.28-4.59-.78-3.19-1.34-6.41-1.7-9.67-.19-1.79-1.01-3.15-2.13-4.1-.79-1.97-2.56-3.5-5.32-3.5-5.82,0-7.26,6.83-4.3,10.18.84,8.52,2.24,21.7,11.19,23.83,5.46,1.3,11.54-1.18,16.58-4.76,2.12,1.38,4.98,1.59,7.34-.64,2.54-2.39,3.91-5.44,4.68-8.76,2.64-5.34,4.23-11.19,7.94-16.08,5.41-7.13,15.44-8.1,19.12-17.17,2.21-5.44,1.09-11.06,1.44-16.74.34-5.55,2.21-10.95,4.01-16.18,3.9-11.33,7.61-22.63,4.66-34.66Z"/>
    <path class="cls-4" d="M92.32,136.92c-.65-.38-1.71-.2-2.05.54-1.19,2.56-1.86,5.27-2.42,8.03-.57,2.78-1.16,5.54-2.01,8.26-.58,1.85,2.32,2.64,2.89.8.82-2.62,1.41-5.29,1.95-7.98.52-2.58,1.06-5.2,2.18-7.6.34-.73.21-1.62-.54-2.05Z"/>
    <path class="cls-4" d="M97.75,145.3c2.08-7.32,4.34-14.54,7.46-21.49,3.06-6.82,6.73-13.35,10.88-19.57,1.07-1.61-1.52-3.11-2.59-1.51-4.23,6.34-7.96,13.02-11.07,19.99-2.08,4.67-3.79,9.44-5.32,14.28-.73-.23-1.6.03-1.84.99-.41,1.7-.76,3.42-1.09,5.14-.7-1.14-2.85-.91-2.78.73.12,2.66.22,5.33.35,8,.09,1.82.23,3.66.75,5.4-.17,3.37-.18,6.75-.02,10.12.09,1.92,3.09,1.93,3,0-.09-1.94-.12-3.87-.1-5.8,1.07.5,2.46.42,3.6.51,2.84.22,5.69.37,8.54.46.84.03,1.31-.52,1.42-1.16,1.29-.09,2.1-2.01.69-2.78-1.03-.56-2.14-1.06-3.3-1.27-1.24-.23-2.48-.19-3.73-.14-2.27.09-4.53.26-6.79.48-.13-.28-.23-.56-.3-.78.19-3.54.57-7.06,1.14-10.56.48-.09.92-.41,1.09-1.02Z"/>
    <path class="cls-4" d="M277.45,125.68c-1.78-5.25-4.36-10.19-7.7-14.61-.49-.65-1.29-.98-2.05-.54-.64.37-1.03,1.4-.54,2.05,3.18,4.21,5.7,8.89,7.4,13.9.62,1.82,3.52,1.04,2.89-.8Z"/>
    <path class="cls-4" d="M117.13,193.76c-7.75-1.72-16.15.7-21.78,6.29-.1-1.08-.17-2.17-.19-3.26-.03-1.93-3.03-1.93-3,0,.05,2.62.32,5.22.78,7.8.23,1.25,2.19,1.48,2.74.36.14-.28.42-.47.75-.62.23,1.27,2.06,2.02,2.71.59.28-.62.63-1.19,1.04-1.71.09-.02.18-.04.27-.06,1.99-.42,4.01-.6,6.04-.71.81-.05,1.5-.66,1.5-1.5,0-.78-.69-1.55-1.5-1.5-.31.02-.61.04-.92.06,2.28-.86,4.79-1.26,7-1.32,5.44-.15,9.89,2.56,13.35,6.49.09.22.26.42.5.58.17.2.34.41.5.61.8,1.02,1.52,2.12,2.17,3.24.5.88,1.26,2.03,1.53,3.13-.23.24-.37.57-.36,1,.01.57.02,1.15,0,1.73-.02.06-.04.13-.05.2-.17.74-.3,1.5-.42,2.25-.24,1.51-.43,3.03-.75,4.52-.02.1-.05.2-.07.3-2.25,3.15-5.6,5.48-9.07,7.18-.36.17-.57.42-.68.7-1.32.6-2.69,1.04-4.13,1.05-1.7.02-3.39-.44-5.03-.81-1.38-.31-2.76-.64-4.11-1.07-2.78-.88-5.36-2.16-7.32-4.37-1.22-1.37-3.17.46-2.29,1.88-.07.24-.07.52.03.83,1.16,3.5,4.67,5.01,7.9,6.13,3.35,1.16,6.9,1.86,10.45,1.92,7.12.11,14.06-2.84,17.69-9.2,7.27-12.75-1.31-29.63-15.27-32.73Z"/>
    <path class="cls-4" d="M263.96,204.47c-.78-3-2.51-5.76-4.75-7.89-.69-.66-1.44-1.25-2.21-1.78-2.68-2.94-5.91-5.2-10.19-5.53-3.62-.28-7.45.72-10.79,2.05-3.22,1.28-6.05,3.15-8.03,6.04-1.94,2.85-2.9,6.29-3.61,9.62-.83,3.9-1.3,7.93-.81,11.9.83,6.71,4.45,12.85,10.82,15.6,3.21,1.38,6.69,1.94,10.16,2.09,3.56.15,7.3-.2,10.35-2.22,6.23-4.14,7.7-11.85,8.87-18.7.63-3.68,1.15-7.5.19-11.17ZM261.47,210.16c-.17,3.23-.83,6.5-1.51,9.66-.66,3.08-1.6,6.13-3.41,8.75-1.69,2.44-4.08,4.14-7,4.73-3.04.62-6.47.35-9.5-.24-2.82-.55-5.65-1.54-7.89-3.39-.03-.19-.1-.39-.23-.59-3.22-5.08-4.69-11.05-4.25-17.05.43-5.88,2.64-12.18,8.05-15.17,3.85-2.13,8.6-3.02,13.01-2.28-.04.38.09.77.51,1.09,3.24,2.54,6.61,4.9,10.13,7.05.24.15.5.21.75.2,1.02,2.18,1.49,4.63,1.35,7.23Z"/>
    <path class="cls-2" d="M279.94,222.77c.01-.07.03-.14.03-.21.46-11.08.51-22.18.14-33.26-.02-.7-.05-1.4-.08-2.1.58-7.26,1.05-17.93-8.58-15.69-.84.2-1.69.68-2.42,1.31-4.86.65-9.73,1.25-14.57,2.04-4.32.7-8.25,2.6-12.41,3.63-.44-.05-.91-.06-1.42,0-5.2.52-10.12,1.94-15.25,2.85-2.64.47-5.99.99-8.45.03-.98-1.48-1.59-3.14-1.56-4.88.04-1.91,1.17-3.52,2.36-5.07.05-.07.09-.14.12-.22.16-.13.33-.25.48-.37,1.28-1,2.63-1.91,4.01-2.76,2.93-1.81,6.04-3.33,9.18-4.74,3.12-1.4,6.28-2.9,9.55-3.94,2.96-.94,6.02-.95,9.08-1.18.14.01.28,0,.42-.03.02,0,.03,0,.05-.01.41-.03.81-.07,1.22-.12.29-.03.53-.14.74-.28,3.7-.68,7.45-.94,11.21-.75,2.17.11,4.35.53,6.52.49.98-.02,2.1-.12,3.05-.5,1.05.55,2.67-.23,2.18-1.64-.08-.22-.14-.44-.22-.66.31-1.6-.38-3.55-.71-5.02-.46-2.1-.99-4.18-1.59-6.25-1.15-3.98-2.57-7.87-4.18-11.69-.47-3.7-2.09-7.45-4.45-10.8-.56-1.17-1.2-2.31-1.89-3.4-.04-.12-.09-.24-.13-.35-.77-1.92-1.83-3.68-2.95-5.41-.2-.31-.41-.62-.62-.94-.04-.08-.08-.16-.12-.25-5.11-10.4-11.09-20.99-19.17-29.39-4.44-4.62-9.68-8.45-15.41-11.32-.51-.25-1-.2-1.39,0-.87-.66-1.53-1.12-1.81-1.31-6.15-4.2-12-5.02-19-6-10.64-1.49-19.25-.26-28,1-1.63.23-3.02.43-4.21.62-13.25-1.61-24.79,6.78-34.18,15.38-5,4.57-8.51,9.99-12.59,15.32-1.48,1.94-2.86,3.74-4.03,5.59-3.36,3.83-6.58,7.76-8.75,12.46-3.71,5.01-6.64,10.56-9.35,16.19-1.62,3.35-3.26,6.85-4.29,10.44-.44,1.54-.74,3.09-.92,4.68-.15,1.01-.22,2.03-.21,3.06-.05.21-.09.4-.12.56-5.93,3.01-2.63,12.18,4.41,11.08,1.35-.21,2.81-.46,4.01-1.16.27-.16.51-.36.74-.58,7.99.81,16.55,1.31,23.96,4.3,1.15.47,2.2.55,3.11.36.46.12.92.24,1.36.37,3.19.92,6.37,1.85,9.56,2.77.66.5,1.43.86,2.25,1.06.38.46.84.88,1.4,1.26,4.92,3.32,7.65,8.4,7.9,13.96-.14.15-.27.3-.41.45-1.36.14-2.71.75-3.89,1.66-.55.43-2.03,1.69-3.01,1.94-.44.11-2-.2-2.67-.33-.73-.15-1.46-.16-2.17-.08-.24-.32-.62-.53-1.14-.52-1.27.03-2.55-.71-3.74-1.09-1.34-.43-2.71-.76-4.07-1.15-1.56-.45-3.13-1.11-4.74-1.48-.28-.3-.69-.48-1.13-.54-1.87-.23-3.6-1.24-5.36-1.83-1.76-.59-3.58-1-5.42-1.26-2.28-.33-4.7-.53-7.04-.27-4.78-.24-9.55.6-14.32.12-1.63-.16-1.86,1.97-.73,2.74-.24,1.4.07,2.74.21,4.14.14,1.44.2,2.88.24,4.33.09,2.9.16,5.79.6,8.66,0,.3,0,.61-.03.91,0,.02,0,.02,0,.03,0,.01,0,.01,0,.03-.03.15-.05.3-.09.45-.06.26-.12.53-.17.79-.13.62-.24,1.25-.25,1.88-.01.78.7,1.54,1.5,1.5.82-.04,1.48-.65,1.5-1.49.54-.21,1.03-.5,1.52-.81.62-.39,1.23-.78,1.85-1.16.83-.52,1.67-1.05,2.5-1.57,1.57-.47,3.18-.78,4.78-.92,1.75-.16,3.45.05,5.19.18.96.07,1.92.06,2.88.1.71.03,1.53,0,2.19.3.25.19.57.31.9.33.32.01.64.08.97.18,1.38.73,2.73,1.5,4.01,2.39,1.6,1.12,3.09,2.43,4.46,3.88.1.1.22.18.34.25.89.99,1.78,1.98,2.61,3,.76.94,1.64,2.24,1.44,3.52-.12.78.2,1.57,1,1.82-.75,5.07-2.14,10.22-4.45,14.49-.34.29-.74.62-.92.74.06-.04,1.39-.3-.52.15-2.38.57-3.68,2.12-4.11,3.91-1.79.93-3.62,1.79-5.42,2.71-1.75-.03-3.53-.14-5.33-.37-.39-.05-.76-.06-1.12-.04-.12-.07-.24-.14-.37-.21-1.21-.7-2.39-.94-3.48-.84-1.18-.61-2.57-.81-4.1-.4-.44.11-.86.3-1.27.54-1.12-.68-2.22-1.4-3.28-2.16-1.03-.73-2.66.5-2.2,1.69.61,1.57.79,3.24,1.04,4.9.26,1.78.52,3.56.75,5.35.22,1.72.41,3.44.56,5.16-.11.21-.16.47-.12.78.13,1.05.26,2.1.38,3.15.02.54.05,1.08.07,1.63,0,.25.07.46.18.65.86,8.26,1.28,16.57,1.24,24.88,0,1.14,1.04,1.6,1.9,1.4.24.23.58.37,1.04.32,2.46-.28,4.8,1.27,7.04,2.1,2.2.82,4.45,1.49,6.73,2.06,4.81,1.21,9.71,2.09,14.61,2.87,4.95.79,9.93,1.42,14.92,1.88,2.43.23,4.86.41,7.3.56,2.22.13,4.81-.1,6.79,1.05,1.01.59,1.95-.12,2.18-.99,3.21.48,6.44.68,9.7.58.2.46.62.78,1.3.7,1.63-.2,3.29.15,4.9-.05.25.21.57.35.9.3,2.92-.38,5.85-.76,8.8-.9,2.89-.14,5.78.01,8.67.18,5.29.31,10.65.59,15.8-.79,10.28-.47,20.55-1.05,30.73-2.67,4.71-.75,9.32-1.83,13.9-3.12,1.62-.28,3.19-.68,4.65-1.23,3.48-.79,7.19-1.47,10.12-3.3,3.47-2.17,4.65-5.53,5.13-9.38.68-5.45,1.21-10.95,1.59-16.43.74-10.55-.9-20.97-.52-31.44ZM202.47,273.9c-.13.8-.32,1.42-.83,1.95-.61.63-1.31,1.19-2.02,1.71-.14.1-.26.22-.36.35-.89-.06-1.78-.17-2.68-.32-.62-.55-1.24-1.1-1.91-1.59-.76-.55-1.66-.65-2.53-.94-1.87-.62-3.78-.83-5.74-.95-.24-.01-.47.05-.68.17-.92-.05-1.85-.02-2.79.08-.41.04-.82.09-1.23.14-.26-.37-.66-.62-1.16-.56-1.61.18-3.01.96-4.48,1.6-1.39.6-2.8,1.15-4.22,1.66-.24.09-.46.23-.63.4-.81-.06-1.62-.18-2.29-.5-.94-.45-1.41-1.68-1.26-2.68.04-.28,0-.56-.07-.82.32-.36.47-.85.36-1.37,0-.03-.01-.05-.02-.07,0,0,0,0,0-.02.01-.08,0-.17,0-.26,0-.03.02-.11.04-.17.03-.11.07-.22.1-.32,0-.02.01-.03.02-.05.05-.11.11-.21.17-.32.12-.21.26-.4.39-.6,0-.01,0-.01.01-.02.02-.02.03-.04.06-.07.06-.07.12-.14.18-.22.16-.18.32-.35.49-.51.16-.16.33-.3.5-.45.04-.03.09-.07.12-.09.1-.07.19-.14.29-.2.37-.25.76-.47,1.17-.67.11-.05.21-.1.32-.15.02,0,.13-.06.2-.09.06-.02.23-.1.23-.09.09-.03.18-.07.27-.1.89-.34,1.81-.6,2.73-.87.69-.2,1.19-.92,1.09-1.64,2.18-.58,4.35-.98,6.54-1.27.1.64.58,1.21,1.43,1.19,4.39-.12,9.07-.28,13.09,1.78.4.21.86.22,1.26.08.07.05.15.08.22.13.36.23.72.47,1.07.72.09.06.17.12.26.19.03.02.1.08.13.11.14.11.28.22.41.34.32.28.63.58.91.89.05.06.11.12.16.18.03.04.27.36.06.07.1.15.21.29.31.45.11.17.21.34.3.52.03.05.05.1.08.16.02.19.04.39.05.6.04.84,0,1.73-.14,2.52ZM264.91,210.59c-.33,0-1.94,8.07-2.58,14.24-1.69.64-2.98,2.09-3.79,4.01.23-.54-.19.29-.24.38-.23.38-.43.78-.66,1.16-.52.86-1.1,1.68-1.68,2.5-.25.35-.49.7-.75,1.04,0,0,0,0,0,0-.03.03-.06.06-.12.12-.06.06-.16.2-.24.32-.03,0-.05.01-.08.02-1.12.27-2.07.9-2.8,1.72-4.93-.36-9.87-.72-14.8-1.08-5.09-3.37-9.85-7.04-13.45-11.84,1.15-5.33,2.48-12.64,1.73-19.28,2.82-2.66,6.87-12.12,15.19-13.43.07-.01.12-.02.15-.02.1.01.31.04.56.09,5.75,1.01,8.52,4.54,12.56,6.03.3.11,1.09.39,2,1,.29.19.84.59,1.93,1.72,1.07,1.12,1.81,2.06,2.05,2.37.67.87,1.63,2.19,2.75,4.08.87,1.47,1.75,2.97,2.54,4.85-.09,0-.17-.03-.26-.03Z"/>
    <path class="cls-4" d="M182.65,271.61c-3.44,0-6.59,1.3-9.65,2.73-.64.3-2.25,1.09-2.73.21-.54-.98.9-2.74,1.3-3.61.04-.08.06-.15.09-.23.53-.08.89-.4,1.07-.81.12-.08.23-.16.35-.24.49-.32,1-.6,1.53-.86.13-.06.27-.12.4-.18.02-.01.04-.02.05-.02.03-.01.06-.03.1-.04.27-.11.55-.21.82-.3.56-.18,1.12-.33,1.7-.44.77-.15,1.28-1.11,1.05-1.85-.27-.82-1.02-1.21-1.85-1.05-2.61.52-5.01,1.74-7.04,3.43-.28.17-.48.43-.59.72-.11.1-.2.21-.27.35-.85,1.81-2.09,3.43-1.69,5.55.37,1.99,2.33,3.12,4.26,2.92,1.97-.2,3.72-1.39,5.55-2.09,1.79-.69,3.64-1.19,5.56-1.19,1.93,0,1.93-3,0-3Z"/>
    <path class="cls-4" d="M199.84,269.06c-.95-1.34-2.25-2.19-3.64-3.03-1.49-.89-2.97-1.46-4.7-1.69-3.46-.45-7.04-.61-10.44.31-1.86.5-1.07,3.4.8,2.89,2.87-.77,5.85-.62,8.78-.3,1.34.15,2.5.48,3.67,1.15,1.02.59,2.25,1.2,2.95,2.18.47.66,1.31.97,2.05.54.65-.38,1.01-1.39.54-2.05Z"/>
    <path class="cls-4" d="M263.33,206.06c-1.35-3.41-3.45-6.49-6.1-9.03-3.05-2.91-6.78-5.12-10.82-6.32-2.49-.74-6.65-1.68-9.25-.24-.17-.02-.35-.03-.54,0-4.99.94-8.59,5.02-10.36,9.58-.6,1.55-.97,3.16-1.16,4.78-1.16,4.12-2.74,8.22-2.44,12.57.29,4.15,1.98,8.02,4.59,11.23,5.41,6.66,14.75,9.33,23.05,8.13,4.26-.61,7.87-2.69,10.3-6.26,2.34-3.43,3.42-7.68,3.97-11.75.59-4.29.37-8.65-1.24-12.71ZM261.85,215.95c-.37,6.88-2.75,15.55-10.27,17.52-6.94,1.82-15.45-.2-20.62-5.21-2.84-2.75-4.89-6.5-5.28-10.47-.05-.47-.05-.93-.05-1.4.09.61.18,1.22.27,1.82.28,1.9,3.18,1.09,2.89-.8-.59-3.92-1.21-8.05-.74-12.04.07-.26.15-.51.22-.77.07-.26.07-.5.02-.71.15-.8.35-1.59.61-2.36,1.12-3.29,3.42-6.25,6.61-7.59.59.83,1.91,1.11,2.44-.05.6-1.3,2.32-1.2,3.55-1.1,1.57.13,3.13.48,4.62.96,3.01.97,5.83,2.59,8.2,4.68,5.1,4.49,7.89,10.71,7.53,17.52Z"/>
    <path class="cls-4" d="M134.54,213.92c0-.27-.01-.54-.04-.8-.1-.97-.32-1.91-.63-2.81-.09-.35-.19-.7-.3-1.05-1.71-5.61-5.12-11.49-10.24-14.61-4.9-2.99-10.9-3.36-16.5-3.38-2.78-.01-6.05-.2-8.39,1.57-.44.21-.86.45-1.26.73-.47.33-.86.7-1.21,1.08-.61.27-1.22.54-1.83.81-1.26.56-.84,2.03.14,2.55-.1.4-.17.81-.23,1.23-.02.02-.04.03-.07.05-.02,0-.03.02-.05.03,0,0,0,0,0,0-.1.08-.21.15-.31.23-.76.6-.58,1.45-.03,1.99-.59.57-.49,1.43-.05,1.99-.45,4.35-.76,8.75-.64,13.09.12,4.27.87,8.62,3.11,12.28-.55.44-.78,1.32-.47,2.02,1.35,3,4.62,4.31,7.61,5.06,1.37.34,2.75.64,4.13.92.64.2,1.29.38,1.94.53,2.05.49,5.15,1.13,7.9.97,1.51.16,3.03.18,4.43-.5,1.57-.76,2.82-2.18,3.99-3.43.46-.49.9-1.01,1.34-1.52,2.33-1.75,4.25-4.07,5.57-6.69,1.94-3.84,2.53-8.13,2.05-12.34ZM96.63,203.21c4.76-2.69,9.96-4.89,15.49-5.02,2.69-.06,5.41.34,7.9,1.39,2.56,1.08,4.62,2.87,6.49,4.89,1.75,1.9,3.5,4,4.41,6.45.26.99.46,2,.6,3.02.06,1.97-.48,3.94-1.34,5.76-1.2,2.54-2.84,4.85-4.49,7.11-1.6,2.19-3.37,4.07-6.1,4.69-3.22.73-6.85.33-10.1.07-1.97-.16-3.92-.41-5.86-.72-1.02-.34-2.04-.68-3.06-1.03-.45-.44-.89-.91-1.28-1.42-2.47-3.24-3.2-7.41-3.35-11.38-.17-4.59.25-9.24.68-13.81Z"/>
    <path class="cls-4" d="M106.46,158.22c-1.85-.61-3.74-1.06-5.67-1.33-1.02-.14-2.05-.25-3.08-.31-.73-.04-1.37-.06-2.06-.28-.45-.14-.89-.48-1.03-.82-.27-.62-.23-1.26-.16-1.97.17-1.73.72-3.61,1.09-5.36.17-.79-.23-1.62-1.05-1.85-.75-.21-1.68.25-1.85,1.05-.45,2.09-1.06,4.21-1.22,6.35-.14,1.94.48,3.92,2.22,4.97,1.68,1.01,3.79.84,5.66,1.04,2.16.23,4.28.73,6.34,1.41.77.25,1.64-.29,1.85-1.05.22-.82-.28-1.59-1.05-1.85Z"/>
    <path class="cls-4" d="M275.48,154.37c-9.38,1.39-18.77,2.79-28.15,4.18-1.9.28-1.09,3.17.8,2.89,9.38-1.39,18.77-2.79,28.15-4.18,1.9-.28,1.09-3.17-.8-2.89Z"/>
    <path class="cls-4" d="M281.52,170.01c-6.73-1.82-13.78-1.58-20.55-.11-3.39.74-6.72,1.78-9.96,3.02-1.78.69-3.54,1.42-5.31,2.12-.15,0-.3.01-.47.06-8.48,2.6-17.23,4.1-26.09,4.46-1.92.08-1.93,3.08,0,3,7.12-.29,14.19-1.29,21.1-2.99.31.21.71.29,1.18.15,3.33-.98,6.51-2.4,9.73-3.67,3.17-1.25,6.41-2.31,9.72-3.08,6.52-1.52,13.33-1.85,19.84-.09,1.87.5,2.66-2.39.8-2.89Z"/>
    <path class="cls-4" d="M348.73,175.84c-2.4-6.61-4.81-13.27-6.38-20.14.03-.44.03-.9-.05-1.39-.51-3.28-1.01-6.56-1.52-9.84.3-1.66.68-3.31.87-4.84.6-4.87.07-9.73-1.05-14.5-2.33-9.97-7.36-19.32-7.35-29.75,0-1.07-.28-1.96-.74-2.68-7.13-25.1-21.99-47.07-42.36-63.36C270.03,13.26,244.31-.53,217.92.02c-.88.02-1.63.23-2.27.56-13.21-1.37-26.32,2.29-39.65,1.87-15.3-.48-30.35-4.19-45.49-.28-9.45,1.39-18.73,3.86-27.69,7.35-.35.04-.71.11-1.08.25C65.86,22.65,37.61,52.64,27.19,89.36c-.63.59-1.1,1.43-1.29,2.57-3.92,23.68-7.83,47.36-11.77,71.03-.36,2.14-.71,4.3-1.09,6.45-3.33,9.82-7.95,19.29-10,29.34-1.48,2.93-2.7,5.92-2.97,9.38-.34,4.3.65,8.5,2,12.56.81,11.33,6.28,21.54,8.94,32.86,2.98,12.72-3.77,27.62,9.94,35.77,4.13,2.46,11.01,3.36,13.9,7.45,1.77,2.5,1.07,6.02,1.3,8.9.26,3.32,1.03,6.36,3.08,9.01,4.44,5.75,13.08,7.41,19.57,9.76,8.49,3.07,16.98,6.15,25.47,9.22.54.2,1.06.3,1.54.32.32.25.69.44,1.1.58-2.17,8.52-4.35,17.04-6.52,25.56-1.1,4.33-2.21,8.66-3.31,12.99-.97,3.79-2.2,7.72-.97,11.6,1.84,5.81,7.36,9.33,11.5,13.4,2.12,2.09,4.15,4.59,4.85,7.53-.03.26-.03.53-.02.8.04.77.12,1.52.24,2.23-.14,1.54-.61,3.05-1.1,4.52-.67,2.01-1.33,4.02-1.91,6.06-2.62,9.29-3.95,18.94-3.98,28.59,0,.43.15.76.38.99.22,2.91,2.02,5.26,4.46,6.84,2.85,1.84,6.13,2.4,9.45,2.62,3.82.25,7.86.2,11.16,2.43,1.56,1.06,2.9,2.42,4.42,3.54,1.51,1.11,3.23,1.86,5.07,2.2,4.21.79,8.72.43,12.99.46,4.61.03,9.23.05,13.84.06,4.48,0,8.97-.02,13.45-.18,3.79-.14,7.63-.33,11.33-1.22,3.97-.95,7.29-2.8,10.12-5.74,1.48-1.53,3.07-2.15,5.03-.97,1.83,1.1,2.85,3.17,3.82,4.98.19.35.44.55.72.66.09.65.56,1.21,1.42,1.15,14.57-1.1,29.22-.95,43.76.49,6.32.63,13.02,1.58,18.87-1.57,2.58-1.39,4.47-3.45,5.78-6.05.54-1.07,1.03-2.29,2.05-2.99,0,0,.01,0,.02-.01.47-.04.9-.07,1.25-.1.96-.1,1.88-.37,2.7-.78.27-.01.54-.02.79-.04,3.41-.2,6.76.09,10.16.07,1.26,0,2.61-.23,3.59-1.08,1.14-1,1.34-2.42,1.51-3.85.82-6.76.51-13.65-.81-20.34-.67-3.4-1.66-6.7-2.81-9.96-1.09-3.1-2.41-6.53-1.79-9.87.94-5.07,5.64-8.33,9.22-11.57,4.59-4.15,7.71-9.13,8.54-15.34,0-.02,0-.03,0-.05.35-1.19.45-2.41.2-3.66-.07-3.91-1.07-7.8-2.99-11.21.72-.2,1.31-.86,1.03-1.79-3.43-11.39-6.12-22.99-8.05-34.74,0-.06-.03-.1-.04-.16,4.33-1.23,8.67-2.46,13-3.7,5.42-1.54,11.82-2.64,16.03-6.73,3.86-3.75,4.92-8.89,6.34-13.85,1.59-5.54,4.55-10.38,8.98-14.13,4.07-3.44,9.97-4.42,13.57-8.32,3.95-4.3,3.17-10.15,3.37-15.54.51-13.84,3.72-27.34,9-40.12.73-1.77.38-3.24-.53-4.28,3.66-16.61-1.69-32.93-7.36-48.57ZM108.51,391.62c-1.79,2.68-6.59,2.94-9.6.97-1.89-1.24-2.69-3.11-3-4,1.44-1.17,3.68-2.55,6.61-2.9,1.58-.19,4.62-.3,6.29,1.41,1.11,1.14.52,3.29-.3,4.52ZM181.98,291.33c-.56-.22-1.21-.35-1.94-.34-14.08.18-27.81-1.1-41.75-3-6.61-.9-13.23-1.93-19.71-3.54-5.35-1.34-10.52-3.84-15.95-4.78-.73-17.74-2.23-35.42-4.49-53.02,2.43,2.47,5.68,4.41,9.32,5.73,4.66,1.68,10.53,2.45,14.98-.19,4.37-2.59,7.52-7.64,9.85-12,.37-.69.57-1.38.62-2.04.02-.06.06-.12.08-.18,2.09-6.36-1.59-12.45-6.83-16.34-2.88-2.87-6.49-4.89-10.6-5.41-6.39-.8-15.52.76-19.74,6.19-.85-8.38-1.52-16.78-2.01-25.19.46.11.96.15,1.51.12,8.38-.54,16.62-.92,24.84,1.12,7.77,1.93,15.21,4.92,23.07,6.53,1.58.32,2.92-.04,3.96-.79.22-.02.44-.03.65-.06,4.34-.56,6.95-4.68,4.96-8.79-4.06-8.37-16.21-12.18-24.44-13.95-10.61-2.28-22.41-4.91-33.34-3.42,5.48-38.06,28.79-72.74,62.22-92.03,4.13-.69,8.31-1.32,12.53-1.81.32.04.65.05,1,.03,6.29-.39,12.58-.78,18.86-1.16,12.88.19,25.57,2.49,37.17,8.68,3.07,1.64,5.89,3.51,8.48,5.6,3.42,3.2,6.51,6.78,9.47,10.36.45.54.93.93,1.42,1.2,1.37,1.9,2.67,3.88,3.9,5.95,5.81,9.83,11.15,19.98,16.59,30.03,3.82,10.48,6.63,21.15,8.7,31.95-.2-.03-.41-.04-.62-.05-19.08-.4-45.92.51-59.02,16.84-1.93,2.4-1.28,5.3.35,7.09.72,1.33,2.11,2.22,4.18,1.99,9.72-1.12,19.22-2.96,28.66-5.49,9.53-2.56,19.12-3.72,28.89-4.94,1.91,14.98,2.59,30.14,2.58,45.33-.48.73-.75,1.65-.71,2.78.16,4.54.32,9.08.48,13.62-.3,11.15-.84,22.29-1.4,33.35-1.58,5.07-.78,11.53-7.03,12.76-2.72.54-5.53.56-8.22,1.29-3.34.91-6.28,2.65-9.72,3.29-1.11.21-1.94.69-2.53,1.32-23.04,2.61-46.16,4.4-69.33,5.38ZM273.86,390.5c-.74.9-1.71,1.63-2.81,2.02-2.23.8-5.12.89-7.37.13-1.9-.64-3.67-2.88-2.22-4.78.02-.02.02-.04.04-.07,2.09-.82,4.35-1.1,6.59-1.16,1.38-.04,2.76,0,4.14.04.81.03,2.25-.14,2.64.78.44,1.03-.38,2.28-1,3.04ZM346.21,227.98c-4.14,10.51-6.81,21.44-8.01,32.69-.32,3.01-.53,6.03-.62,9.06-.07,2.34.76,6.31-1.03,8.17-1.5,1.55-4.69,2.12-6.6,3.19-2.27,1.26-4.38,2.84-6.35,4.53-3.58,3.09-6.65,7.02-8.75,11.25-2.18,4.39-2.79,9.15-4.63,13.62-2.25,5.47-9.38,6.07-14.47,7.52-4.61,1.31-9.23,2.62-13.84,3.94-2.91-8.49-5.57-17.06-7.9-25.73-.34-1.28-1.82-4.96-1.13-5.72.93-1.02,6.27-.12,7.27.41.91.49,1.6,1.15,2.14,1.92.18,5,.35,10.01.53,15.01.19,5.36,8.83,7.13,9.82,1.33,1.06-6.17,1.9-12.87-.43-18.67-.67-18.91-1.34-37.82-2-56.72.94-35.88-.62-71.98-11.93-106.13.26-1.07.14-2.27-.53-3.5-.67-1.23-1.34-2.47-2.01-3.72-.03-.09-.06-.18-.1-.27-.21-.56-.49-1.05-.82-1.46-9.1-17.28-17.73-35.94-32.52-48.49-1.77-1.66-3.62-3.25-5.58-4.73-5.95-4.49-12.76-7.25-19.71-9.8-11.01-4.05-22.68-3.43-34.28-2.45-4.53.16-9.07.52-13.59,1.03-1.41-.16-2.82-.25-4.23-.28-1.41-1.09-3.34-1.53-5.37-.53-.6.29-1.19.6-1.78.9-5.6.74-11.01,2.58-15.97,5.66-9.1,5.66-16.44,14.61-23,22.93-.77.97-1.12,2.02-1.16,3.05-20.52,23.74-32.99,54.42-33.76,86.02-.17.54-.26,1.15-.23,1.83.42,8.14,1.02,16.27,1.79,24.38-.81,1.05-1.25,2.43-.97,4.06,4.26,24.7,6.91,49.61,8.05,74.65-.47.91-.69,1.98-.53,3.19,1.07,7.73,2.08,15.49,2.13,23.31.02,3.72.31,20.9-5.17,21.4-.17.02-.33.04-.5.07-.43-.34-.94-.63-1.53-.85-7.58-2.74-15.16-5.49-22.74-8.23-3.64-1.32-7.28-2.63-10.92-3.95-2.99-1.09-6.26-1.96-6.99-5.44-1.23-5.82.23-11.24-3.92-16.24-3.14-3.78-7.66-5.48-12.04-7.37-5.78-2.51-8.86-5.03-8.78-11.79.07-6.35.73-12.29-.55-18.59-1.85-9.07-6.9-18.1-8.65-27.39.75-1.03,1.01-2.4.41-4.04-.33-.9-.67-1.81-1-2.74.03-1.16.13-2.32.32-3.49.12-.75.09-1.46-.06-2.1.07-.4.1-.83.07-1.29-.22-3.45.04-6.81.63-10.12,1.54-2.95,3.36-5.84,4.58-8.87,2.67-6.65,4.22-13.63,5.48-20.67,1.04-3.01,1.95-6.05,2.59-9.14.28-1.34.05-2.51-.48-3.47,3.54-21.35,7.07-42.7,10.61-64.04.47-.53.85-1.2,1.08-2.03,8.59-31.33,31.51-57.87,61.18-70.92.69-.01,1.42-.17,2.15-.51,10.1-4.72,20.74-7.86,31.63-9.46.34-.01.69-.06,1.05-.15,8.48-1.17,17.1-1.41,25.73-.73.61.05,1.16,0,1.66-.12,5.36.55,10.72,1.19,16.06,1.35,14.4.45,29.02-4.61,43.27-1.17,1.86.45,3.4-.09,4.49-1.11,22.12,1.47,43.83,13.56,60.6,27.3,18.63,15.26,32.2,35.23,38.68,58.48.07.25.15.47.25.69.28,8.83,3.51,16.88,6.04,25.19-1.06,1.09-1.69,2.68-1.39,4.62.91,5.87,1.82,11.74,2.72,17.6.03.34.06.67.09,1.01-.52,4.19-.47,8.31,1.7,12,1.31,6.11,3.27,12.06,5.38,17.96,5.63,15.73,12.66,32.39,7.99,49.29-.4,1.43-.18,2.68.4,3.67Z"/>
    <path class="cls-3" d="M95.91,388.59c-.49,1.77,2.12,4.04,4,5,2.66,1.35,6.85,1.6,9-1,1.02-1.23,1.88-3.47,1-5-2.07-3.58-13.11-2.2-14,1Z"/>
    <path class="cls-3" d="M260.91,387.59c1.04-1.92,3.96-1.96,7-2,2.08-.03,7.37-.1,8,2,.51,1.68-2.19,3.96-4,5-2.76,1.58-7.59,2.63-10,0-1.16-1.26-1.83-3.46-1-5Z"/>
  </g>
</svg>